<svg width="46" height="52" viewBox="0 0 46 52" fill="none" xmlns="http://www.w3.org/2000/svg">
<path d="M44.2812 16.25H1.21875C0.880208 16.25 0.575521 16.1484 0.304688 15.9453C0.101562 15.6745 0 15.3698 0 15.0312V11.375C0 10.0208 0.473958 8.86979 1.42188 7.92188C2.36979 6.97396 3.52083 6.5 4.875 6.5H9.75V1.21875C9.75 0.880208 9.85156 0.609375 10.0547 0.40625C10.3255 0.135417 10.6302 0 10.9688 0H15.0312C15.3698 0 15.6406 0.135417 15.8438 0.40625C16.1146 0.609375 16.25 0.880208 16.25 1.21875V6.5H29.25V1.21875C29.25 0.880208 29.3516 0.609375 29.5547 0.40625C29.8255 0.135417 30.1302 0 30.4688 0H34.5312C34.8698 0 35.1406 0.135417 35.3438 0.40625C35.6146 0.609375 35.75 0.880208 35.75 1.21875V6.5H40.625C41.9792 6.5 43.1302 6.97396 44.0781 7.92188C45.026 8.86979 45.5 10.0208 45.5 11.375V15.0312C45.5 15.3698 45.3646 15.6745 45.0938 15.9453C44.8906 16.1484 44.6198 16.25 44.2812 16.25ZM1.21875 19.5H44.2812C44.6198 19.5 44.8906 19.6354 45.0938 19.9062C45.3646 20.1094 45.5 20.3802 45.5 20.7188V47.125C45.5 48.4792 45.026 49.6302 44.0781 50.5781C43.1302 51.526 41.9792 52 40.625 52H4.875C3.52083 52 2.36979 51.526 1.42188 50.5781C0.473958 49.6302 0 48.4792 0 47.125V20.7188C0 20.3802 0.101562 20.1094 0.304688 19.9062C0.575521 19.6354 0.880208 19.5 1.21875 19.5ZM13 40.2188C13 39.8802 12.8646 39.6094 12.5938 39.4062C12.3906 39.1354 12.1198 39 11.7812 39H7.71875C7.38021 39 7.07552 39.1354 6.80469 39.4062C6.60156 39.6094 6.5 39.8802 6.5 40.2188V44.2812C6.5 44.6198 6.60156 44.9245 6.80469 45.1953C7.07552 45.3984 7.38021 45.5 7.71875 45.5H11.7812C12.1198 45.5 12.3906 45.3984 12.5938 45.1953C12.8646 44.9245 13 44.6198 13 44.2812V40.2188ZM13 27.2188C13 26.8802 12.8646 26.6094 12.5938 26.4062C12.3906 26.1354 12.1198 26 11.7812 26H7.71875C7.38021 26 7.07552 26.1354 6.80469 26.4062C6.60156 26.6094 6.5 26.8802 6.5 27.2188V31.2812C6.5 31.6198 6.60156 31.9245 6.80469 32.1953C7.07552 32.3984 7.38021 32.5 7.71875 32.5H11.7812C12.1198 32.5 12.3906 32.3984 12.5938 32.1953C12.8646 31.9245 13 31.6198 13 31.2812V27.2188ZM26 40.2188C26 39.8802 25.8646 39.6094 25.5938 39.4062C25.3906 39.1354 25.1198 39 24.7812 39H20.7188C20.3802 39 20.0755 39.1354 19.8047 39.4062C19.6016 39.6094 19.5 39.8802 19.5 40.2188V44.2812C19.5 44.6198 19.6016 44.9245 19.8047 45.1953C20.0755 45.3984 20.3802 45.5 20.7188 45.5H24.7812C25.1198 45.5 25.3906 45.3984 25.5938 45.1953C25.8646 44.9245 26 44.6198 26 44.2812V40.2188ZM26 27.2188C26 26.8802 25.8646 26.6094 25.5938 26.4062C25.3906 26.1354 25.1198 26 24.7812 26H20.7188C20.3802 26 20.0755 26.1354 19.8047 26.4062C19.6016 26.6094 19.5 26.8802 19.5 27.2188V31.2812C19.5 31.6198 19.6016 31.9245 19.8047 32.1953C20.0755 32.3984 20.3802 32.5 20.7188 32.5H24.7812C25.1198 32.5 25.3906 32.3984 25.5938 32.1953C25.8646 31.9245 26 31.6198 26 31.2812V27.2188ZM39 40.2188C39 39.8802 38.8646 39.6094 38.5938 39.4062C38.3906 39.1354 38.1198 39 37.7812 39H33.7188C33.3802 39 33.0755 39.1354 32.8047 39.4062C32.6016 39.6094 32.5 39.8802 32.5 40.2188V44.2812C32.5 44.6198 32.6016 44.9245 32.8047 45.1953C33.0755 45.3984 33.3802 45.5 33.7188 45.5H37.7812C38.1198 45.5 38.3906 45.3984 38.5938 45.1953C38.8646 44.9245 39 44.6198 39 44.2812V40.2188ZM39 27.2188C39 26.8802 38.8646 26.6094 38.5938 26.4062C38.3906 26.1354 38.1198 26 37.7812 26H33.7188C33.3802 26 33.0755 26.1354 32.8047 26.4062C32.6016 26.6094 32.5 26.8802 32.5 27.2188V31.2812C32.5 31.6198 32.6016 31.9245 32.8047 32.1953C33.0755 32.3984 33.3802 32.5 33.7188 32.5H37.7812C38.1198 32.5 38.3906 32.3984 38.5938 32.1953C38.8646 31.9245 39 31.6198 39 31.2812V27.2188Z" fill="white"/>
</svg>
