<svg width="30" height="52" viewBox="0 0 30 52" fill="none" xmlns="http://www.w3.org/2000/svg">
<path d="M21.252 23.6641L10.2832 20.5156C9.67383 20.3125 9.16602 19.9401 8.75977 19.3984C8.35352 18.8568 8.15039 18.2812 8.15039 17.6719C8.15039 16.7917 8.42122 16.0807 8.96289 15.5391C9.57227 14.9297 10.2832 14.625 11.0957 14.625H17.9004C19.1868 14.625 20.3379 14.9974 21.3535 15.7422C21.6921 15.9453 22.0306 16.013 22.3691 15.9453C22.7754 15.8776 23.1139 15.7422 23.3848 15.5391L26.8379 11.9844C27.2441 11.6458 27.4134 11.2396 27.3457 10.7656C27.278 10.2917 27.041 9.88542 26.6348 9.54688C24.0618 7.51562 21.1504 6.5 17.9004 6.5V1.625C17.9004 1.15104 17.7311 0.778646 17.3926 0.507812C17.1217 0.169271 16.7493 0 16.2754 0H13.0254C12.5514 0 12.1452 0.169271 11.8066 0.507812C11.5358 0.778646 11.4004 1.15104 11.4004 1.625V6.5H11.1973C9.0306 6.5 7.06706 7.07552 5.30664 8.22656C3.54622 9.3099 2.19206 10.7995 1.24414 12.6953C0.296224 14.5234 -0.110026 16.5208 0.0253906 18.6875C0.296224 20.9896 1.21029 23.0208 2.76758 24.7812C4.32487 26.5417 6.25456 27.7604 8.55664 28.4375L19.0176 31.4844C19.627 31.6875 20.1348 32.0599 20.541 32.6016C20.9473 33.1432 21.1504 33.7188 21.1504 34.3281C21.1504 35.2083 20.8457 35.9531 20.2363 36.5625C19.6947 37.1042 19.0176 37.375 18.2051 37.375H11.4004C10.1139 37.375 8.96289 37.0365 7.94727 36.3594C7.60872 36.0885 7.23633 35.987 6.83008 36.0547C6.49154 36.1224 6.18685 36.2578 5.91602 36.4609L2.46289 39.9141C2.05664 40.3203 1.88737 40.7604 1.95508 41.2344C2.02279 41.7083 2.22591 42.1146 2.56445 42.4531C5.20508 44.4844 8.15039 45.5 11.4004 45.5V50.375C11.4004 50.849 11.5358 51.2214 11.8066 51.4922C12.1452 51.8307 12.5514 52 13.0254 52H16.2754C16.7493 52 17.1217 51.8307 17.3926 51.4922C17.7311 51.2214 17.9004 50.849 17.9004 50.375V45.5C20.3379 45.4323 22.5384 44.7552 24.502 43.4688C26.4655 42.1146 27.8535 40.3203 28.666 38.0859C29.3431 36.0547 29.4447 34.0573 28.9707 32.0938C28.5645 30.0625 27.6504 28.3021 26.2285 26.8125C24.8743 25.3229 23.2155 24.2734 21.252 23.6641Z" fill="white"/>
</svg>
