<svg width="64" height="64" viewBox="0 0 64 64" fill="none" xmlns="http://www.w3.org/2000/svg">
<path d="M40.875 23.125C43.2917 25.625 44.9167 28.5 45.75 31.75C46.5833 35 46.5833 38.25 45.75 41.5C44.9167 44.75 43.2917 47.5833 40.875 50L32.375 58.5C29.9583 60.9167 27.125 62.5417 23.875 63.375C20.625 64.2083 17.375 64.2083 14.125 63.375C10.875 62.5417 8 60.875 5.5 58.375C3.08333 55.9583 1.45833 53.125 0.625 49.875C-0.208333 46.625 -0.208333 43.375 0.625 40.125C1.45833 36.875 3.08333 34.0417 5.5 31.625L10.25 26.875C10.8333 26.2917 11.5 26.1667 12.25 26.5C13.0833 26.8333 13.5417 27.4167 13.625 28.25C13.7083 30.5 14.125 32.7083 14.875 34.875C15.125 35.625 14.9583 36.2917 14.375 36.875L12.75 38.625C11 40.375 10.0833 42.5 10 45C10 47.4167 10.875 49.5417 12.625 51.375C14.375 53.125 16.5 54 19 54C21.5 54 23.625 53.125 25.375 51.375L33.75 43C35.5 41.25 36.375 39.125 36.375 36.625C36.375 34.125 35.5 32 33.75 30.25C33.3333 29.8333 32.875 29.4583 32.375 29.125C31.875 28.7917 31.625 28.2917 31.625 27.625C31.5417 26.125 32 24.875 33 23.875L35.75 21.25C36.0833 20.9167 36.4583 20.75 36.875 20.75C37.375 20.6667 37.8333 20.75 38.25 21C39.1667 21.6667 40.0417 22.375 40.875 23.125ZM58.5 5.5C56 3.08333 53.125 1.45833 49.875 0.625C46.625 -0.208333 43.375 -0.208333 40.125 0.625C36.875 1.45833 34.0417 3.08333 31.625 5.5L23.125 14C20.7083 16.4167 19.0833 19.25 18.25 22.5C17.4167 25.75 17.4167 29 18.25 32.25C19.0833 35.5 20.7083 38.375 23.125 40.875C23.9583 41.625 24.8333 42.3333 25.75 43C26.1667 43.25 26.5833 43.375 27 43.375C27.5 43.2917 27.9167 43.0833 28.25 42.75L31 40.125C32 39.125 32.4583 37.875 32.375 36.375C32.375 35.7083 32.125 35.2083 31.625 34.875C31.125 34.5417 30.6667 34.1667 30.25 33.75C28.5 32 27.625 29.875 27.625 27.375C27.625 24.875 28.5 22.75 30.25 21L38.625 12.625C40.375 10.875 42.5 10 45 10C47.5 10 49.625 10.9167 51.375 12.75C53.125 14.5 53.9583 16.625 53.875 19.125C53.875 21.5417 53 23.625 51.25 25.375L49.625 27.125C49.0417 27.7083 48.875 28.375 49.125 29.125C49.875 31.2917 50.2917 33.5 50.375 35.75C50.4583 36.5833 50.875 37.1667 51.625 37.5C52.4583 37.8333 53.1667 37.7083 53.75 37.125L58.5 32.375C60.9167 29.9583 62.5417 27.125 63.375 23.875C64.2083 20.625 64.2083 17.375 63.375 14.125C62.5417 10.875 60.9167 8 58.5 5.5Z" fill="white"/>
</svg>
