<svg width="14" height="19" viewBox="0 0 14 19" fill="none" xmlns="http://www.w3.org/2000/svg">
<path d="M6.04688 17.8984C5.4375 17.0078 4.65234 15.8828 3.69141 14.5234C2.51953 12.8359 1.74609 11.6992 1.37109 11.1133C0.832031 10.2695 0.46875 9.56641 0.28125 9.00391C0.09375 8.41797 0 7.75 0 7C0 5.78125 0.304687 4.65625 0.914062 3.625C1.52344 2.59375 2.34375 1.77344 3.375 1.16406C4.40625 0.554688 5.53125 0.25 6.75 0.25C7.96875 0.25 9.09375 0.554688 10.125 1.16406C11.1562 1.77344 11.9766 2.59375 12.5859 3.625C13.1953 4.65625 13.5 5.78125 13.5 7C13.5 7.75 13.4062 8.41797 13.2188 9.00391C13.0312 9.56641 12.668 10.2695 12.1289 11.1133C11.7539 11.6992 10.9805 12.8359 9.80859 14.5234L7.45312 17.8984C7.28906 18.1328 7.05469 18.25 6.75 18.25C6.44531 18.25 6.21094 18.1328 6.04688 17.8984ZM6.75 9.8125C7.52344 9.8125 8.17969 9.54297 8.71875 9.00391C9.28125 8.44141 9.5625 7.77344 9.5625 7C9.5625 6.22656 9.28125 5.57031 8.71875 5.03125C8.17969 4.46875 7.52344 4.1875 6.75 4.1875C5.97656 4.1875 5.30859 4.46875 4.74609 5.03125C4.20703 5.57031 3.9375 6.22656 3.9375 7C3.9375 7.77344 4.20703 8.44141 4.74609 9.00391C5.30859 9.54297 5.97656 9.8125 6.75 9.8125Z" fill="white"/>
</svg>
