<svg width="48" height="64" viewBox="0 0 48 64" fill="none" xmlns="http://www.w3.org/2000/svg">
<path d="M48 15.25V16H32V0H32.75C33.5833 0 34.2917 0.291667 34.875 0.875L47.125 13.125C47.7083 13.7083 48 14.4167 48 15.25ZM31 20C30.1667 20 29.4583 19.7083 28.875 19.125C28.2917 18.5417 28 17.8333 28 17V0H3C2.16667 0 1.45833 0.291667 0.875 0.875C0.291667 1.45833 0 2.16667 0 3V61C0 61.8333 0.291667 62.5417 0.875 63.125C1.45833 63.7083 2.16667 64 3 64H45C45.8333 64 46.5417 63.7083 47.125 63.125C47.7083 62.5417 48 61.8333 48 61V20H31ZM14.125 22C15.7083 22 17.0833 22.5833 18.25 23.75C19.5 24.9167 20.125 26.3333 20.125 28C20.125 29.6667 19.5 31.0833 18.25 32.25C17.0833 33.4167 15.6667 34 14 34C12.4167 34 11.0417 33.4167 9.875 32.25C8.70833 31.0833 8.125 29.6667 8.125 28C8.125 26.3333 8.70833 24.9167 9.875 23.75C11.0417 22.5833 12.4583 22 14.125 22ZM40.125 52H8.125V46L13.125 41C13.375 40.75 13.6667 40.625 14 40.625C14.4167 40.625 14.7917 40.75 15.125 41L20.125 46L33 33C33.3333 32.75 33.7083 32.625 34.125 32.625C34.5417 32.625 34.875 32.75 35.125 33L40.125 38V52Z" fill="white"/>
</svg>
