<svg width="21" height="19" viewBox="0 0 21 19" fill="none" xmlns="http://www.w3.org/2000/svg">
<path d="M20.25 1.09375V5.59375C20.25 5.82813 20.168 6.02734 20.0039 6.19141C19.8398 6.35547 19.6406 6.4375 19.4062 6.4375C19.1719 6.4375 18.9727 6.35547 18.8086 6.19141L17.543 4.92578L9 13.5039C8.83594 13.668 8.63672 13.75 8.40234 13.75C8.16797 13.75 7.96875 13.668 7.80469 13.5039L6.99609 12.6953C6.83203 12.5312 6.75 12.332 6.75 12.0977C6.75 11.8633 6.83203 11.6641 6.99609 11.5L15.5742 2.95703L14.3086 1.69141C14.1445 1.52734 14.0625 1.32813 14.0625 1.09375C14.0625 0.859375 14.1445 0.660156 14.3086 0.496094C14.4727 0.332031 14.6719 0.25 14.9062 0.25H19.4062C19.6406 0.25 19.8398 0.332031 20.0039 0.496094C20.168 0.660156 20.25 0.859375 20.25 1.09375ZM14.3086 9.77734L13.7461 10.3398C13.582 10.5039 13.5 10.7031 13.5 10.9375V16H2.25V4.75H11.5312C11.7656 4.75 11.9648 4.66797 12.1289 4.50391L12.6914 3.94141C12.8555 3.77734 12.9375 3.57813 12.9375 3.34375C12.9375 3.10937 12.8555 2.91016 12.6914 2.74609C12.5273 2.58203 12.3281 2.5 12.0938 2.5H1.6875C1.21875 2.5 0.820312 2.66406 0.492188 2.99219C0.164063 3.32031 0 3.71875 0 4.1875V16.5625C0 17.0312 0.164063 17.4297 0.492188 17.7578C0.820312 18.0859 1.21875 18.25 1.6875 18.25H14.0625C14.5312 18.25 14.9297 18.0859 15.2578 17.7578C15.5859 17.4297 15.75 17.0312 15.75 16.5625V10.375C15.75 10.1172 15.668 9.91797 15.5039 9.77734C15.3398 9.61328 15.1406 9.53125 14.9062 9.53125C14.6719 9.50781 14.4727 9.58984 14.3086 9.77734Z" fill="#231F20"/>
</svg>
