<svg width="65" height="46" viewBox="0 0 65 46" fill="none" xmlns="http://www.w3.org/2000/svg">
<path d="M9.75 19.5C11.5104 19.5 13.0339 18.8568 14.3203 17.5703C15.6068 16.2839 16.25 14.7604 16.25 13C16.25 11.2396 15.6068 9.71615 14.3203 8.42969C13.0339 7.14323 11.5104 6.5 9.75 6.5C7.98958 6.5 6.46615 7.14323 5.17969 8.42969C3.89323 9.71615 3.25 11.2396 3.25 13C3.25 14.7604 3.89323 16.2839 5.17969 17.5703C6.46615 18.8568 7.98958 19.5 9.75 19.5ZM55.25 19.5C57.0104 19.5 58.5339 18.8568 59.8203 17.5703C61.1068 16.2839 61.75 14.7604 61.75 13C61.75 11.2396 61.1068 9.71615 59.8203 8.42969C58.5339 7.14323 57.0104 6.5 55.25 6.5C53.4896 6.5 51.9661 7.14323 50.6797 8.42969C49.3932 9.71615 48.75 11.2396 48.75 13C48.75 14.7604 49.3932 16.2839 50.6797 17.5703C51.9661 18.8568 53.4896 19.5 55.25 19.5ZM58.5 22.75H52C50.2396 22.75 48.7161 23.3932 47.4297 24.6797C49.4609 25.763 51.1536 27.2865 52.5078 29.25C53.862 31.2135 54.7083 33.3802 55.0469 35.75H61.75C62.6302 35.75 63.375 35.4453 63.9844 34.8359C64.6615 34.1589 65 33.3802 65 32.5V29.25C65 27.4896 64.3568 25.9661 63.0703 24.6797C61.7839 23.3932 60.2604 22.75 58.5 22.75ZM32.5 22.75C34.5312 22.75 36.4271 22.2422 38.1875 21.2266C39.9479 20.2109 41.3359 18.8229 42.3516 17.0625C43.3672 15.3021 43.875 13.4062 43.875 11.375C43.875 9.34375 43.3672 7.44792 42.3516 5.6875C41.3359 3.92708 39.9479 2.53906 38.1875 1.52344C36.4271 0.507812 34.5312 0 32.5 0C30.4688 0 28.5729 0.507812 26.8125 1.52344C25.0521 2.53906 23.6641 3.92708 22.6484 5.6875C21.6328 7.44792 21.125 9.34375 21.125 11.375C21.125 13.4062 21.6328 15.3021 22.6484 17.0625C23.6641 18.8229 25.0521 20.2109 26.8125 21.2266C28.5729 22.2422 30.4688 22.75 32.5 22.75ZM40.3203 26H39.5078C37.2057 27.0833 34.8698 27.625 32.5 27.625C30.1302 27.625 27.7943 27.0833 25.4922 26H24.6797C22.5807 26 20.6172 26.5417 18.7891 27.625C17.0286 28.6406 15.6068 30.0625 14.5234 31.8906C13.5078 33.651 13 35.5807 13 37.6797V40.625C13 41.9792 13.474 43.1302 14.4219 44.0781C15.3698 45.026 16.5208 45.5 17.875 45.5H47.125C48.4792 45.5 49.6302 45.026 50.5781 44.0781C51.526 43.1302 52 41.9792 52 40.625V37.6797C52 35.5807 51.4583 33.651 50.375 31.8906C49.3594 30.0625 47.9375 28.6406 46.1094 27.625C44.349 26.5417 42.4193 26 40.3203 26ZM17.5703 24.6797C16.2839 23.3932 14.7604 22.75 13 22.75H6.5C4.73958 22.75 3.21615 23.3932 1.92969 24.6797C0.643229 25.9661 0 27.4896 0 29.25V32.5C0 33.3802 0.304688 34.1589 0.914062 34.8359C1.59115 35.4453 2.36979 35.75 3.25 35.75H9.95312C10.2917 33.3802 11.138 31.2135 12.4922 29.25C13.8464 27.2865 15.5391 25.763 17.5703 24.6797Z" fill="white"/>
</svg>
