<svg width="48" height="64" viewBox="0 0 48 64" fill="none" xmlns="http://www.w3.org/2000/svg">
<path d="M28 17V0H20V4H16V0H3C2.16667 0 1.45833 0.291667 0.875 0.875C0.291667 1.45833 0 2.16667 0 3V61C0 61.8333 0.291667 62.5417 0.875 63.125C1.45833 63.7083 2.16667 64 3 64H45C45.8333 64 46.5417 63.7083 47.125 63.125C47.7083 62.5417 48 61.8333 48 61V20H31C30.1667 20 29.4583 19.7083 28.875 19.125C28.2917 18.5417 28 17.8333 28 17ZM12 4H16V8H12V4ZM16 52C13.9167 52 12.2083 51.2083 10.875 49.625C9.625 47.9583 9.20833 46.125 9.625 44.125L12 32V28H16V24H12V20H16V16H12V12H16V8H20V12H16V16H20V20H16V24H20V28H16V32H18.875C19.2083 32 19.5 32.125 19.75 32.375C20 32.625 20.1667 32.9167 20.25 33.25L22.5 44.125C22.8333 46.2083 22.3333 48.0417 21 49.625C19.75 51.2083 18.0833 52 16 52ZM20.125 45.375C20.125 46.2917 19.7083 47.0833 18.875 47.75C18.125 48.4167 17.1667 48.75 16 48.75C14.9167 48.75 13.9583 48.4167 13.125 47.75C12.375 47.0833 12 46.2917 12 45.375C12 44.4583 12.375 43.6667 13.125 43C13.9583 42.3333 14.9167 42 16 42C17.1667 42 18.125 42.3333 18.875 43C19.7083 43.6667 20.125 44.4583 20.125 45.375ZM48 15.25V16H32V0H32.75C33.5833 0 34.2917 0.291667 34.875 0.875L47.125 13.125C47.7083 13.7083 48 14.4167 48 15.25Z" fill="white"/>
</svg>
