<svg width="366" height="298" viewBox="0 0 366 298" fill="none" xmlns="http://www.w3.org/2000/svg">
<path d="M118.318 2.95599C118.785 2.95599 119.485 3.73388 120.574 5.21189C119.951 6.06757 118.862 7.23442 117.307 8.79021C117.073 10.5016 116.996 12.213 116.996 13.9243C116.996 15.6357 116.918 17.5027 116.684 19.4474C116.062 19.6808 115.362 19.7585 114.74 19.7585C114.117 19.7585 113.573 19.9919 113.106 20.3808C109.45 22.7145 105.405 24.1925 100.971 24.7371C96.5369 25.2816 92.1806 25.9039 87.9022 26.5262C83.7794 27.1486 79.7343 27.6931 75.6115 28.1598C71.4886 28.6265 67.2102 29.0155 62.6984 29.4822C60.987 33.7607 59.898 38.1169 59.4312 42.3953C58.9645 46.6737 58.3422 50.8744 57.4865 54.9972C56.6308 59.2756 55.9307 63.4763 55.3862 67.5991C54.8416 71.722 54.3749 75.9226 53.9082 80.201C53.4414 84.3239 52.8191 88.5245 51.9634 92.803C51.1078 97.0814 51.03 101.438 51.6523 105.716C54.6861 107.038 57.4865 107.583 60.2091 107.505C62.9318 107.427 65.6544 107.583 68.4548 107.972C71.0219 108.439 73.6667 108.75 76.3894 109.139C79.112 109.45 81.8346 109.839 84.6351 110.306C85.9575 112.639 86.8909 114.584 87.5133 116.14C87.0465 117.229 86.6576 117.773 86.1908 117.773C82.9237 117.773 79.8899 117.773 77.0117 117.773C74.1334 117.773 71.1775 117.696 68.1437 117.462C65.5766 117.462 63.0873 117.384 60.6759 117.151C58.2644 116.918 55.9307 117.073 53.597 117.462C57.8755 117.929 62.2316 118.24 66.5101 118.629C70.7885 118.94 75.1447 119.329 79.4231 119.796C80.9011 120.029 82.3014 120.185 83.6238 120.263C84.9462 120.34 85.9575 121.196 86.8909 122.674C86.4242 124.152 85.7241 125.008 84.6351 125.241C83.546 125.475 82.4569 125.552 81.3679 125.552L61.9983 124.619C60.0535 124.619 58.1088 124.541 56.1641 124.308C54.2193 124.074 52.1968 124.385 50.0187 125.241C49.163 128.897 48.7741 132.553 48.8519 136.21C48.9296 139.866 48.9296 143.522 48.6963 147.178C48.074 154.723 47.7628 162.113 47.7628 169.503C47.2961 177.282 47.2961 184.984 47.7628 192.763C47.9962 196.419 48.2295 200.075 48.3851 203.731C48.6185 207.387 48.9296 211.043 49.3186 214.699C49.7853 218.355 50.4854 222.011 51.4189 225.668C52.3524 229.324 52.8969 233.291 52.8969 237.647C51.8078 236.558 51.03 235.78 50.4854 235.391C49.9409 234.924 49.163 234.302 48.074 233.446C47.6072 234.069 47.2961 234.691 47.1405 235.236C46.9071 235.78 46.6737 236.247 46.5182 236.714C45.8959 236.714 45.2735 236.402 44.729 235.936C44.1845 235.391 43.4844 235.469 42.6287 236.091C42.162 236.558 41.6174 236.636 40.8395 236.402C40.0616 236.169 39.2837 236.091 38.4281 236.091C37.5724 236.558 36.6389 237.103 35.7054 237.88C34.7719 238.658 33.6829 239.203 32.6716 239.67L23.9592 237.725C20.9254 235.78 18.6695 233.446 17.1915 230.646C15.7135 227.846 14.4689 224.734 13.6132 221.311C13.1464 217.889 12.6797 214.544 11.9796 211.276C11.3573 208.009 10.8905 204.742 10.6572 201.242C9.56812 186.15 8.94581 170.981 8.71244 155.657C8.47907 152.001 8.63465 148.5 9.02359 145.155C9.49033 141.81 9.64592 138.31 9.64592 134.654V128.82C7.70119 127.964 5.52306 127.186 3.18938 126.564C2.72264 125.475 2.48927 124.463 2.41148 123.53C2.33369 122.596 2.17811 121.507 1.94474 120.496C1.71137 118.551 1.08905 116.373 0 114.039C2.17811 112.95 4.12285 112.017 5.83422 111.317C7.54559 110.539 9.49033 109.839 11.6684 109.217C12.7575 102.993 13.7688 96.6924 14.7022 90.3137C15.6357 83.9349 16.8026 77.5562 18.125 71.0996C19.4474 64.8765 20.8476 58.7311 22.3256 52.6635C23.8036 46.6737 25.3594 40.3728 26.8374 33.9163C25.3594 33.4495 24.037 33.1383 22.9479 32.9828C21.8589 32.7494 20.7698 32.4382 19.6808 32.0493C18.3583 30.1045 17.736 28.1598 17.736 26.2151C17.736 24.2703 17.736 22.3256 17.736 20.3808C19.6808 18.0472 22.0145 16.647 24.6593 16.3358C27.3819 16.0246 29.8712 15.3245 32.2827 14.2355C33.3717 12.5241 34.4608 10.8127 35.5498 9.10136C36.6389 7.38999 37.728 5.52306 38.817 3.57832C40.7617 4.04506 42.3953 4.35621 43.6399 4.51179C45.8181 4.97852 47.3739 5.13412 48.4629 5.13412C49.552 5.9898 50.7188 6.76768 52.0412 7.54557C53.3637 8.32347 54.5305 9.10137 55.6195 9.95705C62.0761 9.49032 69.6217 8.63463 78.2563 7.23442C86.8909 5.83421 98.0926 3.42274 111.861 0C112.717 0.466737 113.728 0.93347 114.895 1.478C116.062 1.78916 117.229 2.33368 118.318 2.95599ZM8.1679 121.196C8.63464 121.196 9.0236 121.118 9.49034 120.885C8.86802 120.885 8.32349 120.807 7.85675 120.574C8.01233 120.807 8.1679 121.041 8.1679 121.196ZM37.8835 216.177C38.1169 218.355 38.4281 220.378 38.817 222.323C39.2837 224.267 39.9838 226.056 41.0729 227.846C40.6062 223.1 40.2172 218.511 39.7505 213.921C39.2837 209.409 38.9726 204.898 38.817 200.386C36.8723 180.394 36.8723 160.091 38.817 139.632C38.817 138.543 38.8948 137.454 38.9726 136.21C39.0504 135.043 39.1282 133.876 39.1282 132.787V126.019C38.0391 127.964 37.2612 129.986 36.8723 132.009C36.4055 134.031 36.0944 136.132 35.9388 138.31C35.7054 146.478 35.5498 154.49 35.472 162.347C35.3943 170.204 35.3943 178.216 35.6276 186.384C35.6276 191.362 35.861 196.263 36.4055 201.242C36.9501 206.298 37.4168 211.199 37.8835 216.177ZM42.3953 103.149C44.729 91.3249 47.0627 79.5009 49.3186 67.7547C51.5745 56.0085 53.9082 44.2623 56.2419 32.3605L55.9307 32.0493C55.6973 32.0493 55.6195 31.9715 55.6195 31.7381C54.5305 32.3604 53.986 32.5938 53.986 32.3605C50.7188 44.1845 47.9962 56.2418 45.7403 68.377C43.4844 80.5122 41.2285 93.1919 39.1282 106.338C40.2172 105.249 40.9951 104.549 41.5396 104.238C42.0842 103.927 42.3953 103.538 42.3953 103.149ZM42.7065 151.612V142.277H42.3953V151.612H42.7065ZM42.7065 184.517H42.3953V202.253C42.3953 202.019 42.4731 201.786 42.7065 201.631V184.517ZM44.34 213.299H44.0289V216.177H44.34V213.299Z" fill="white"/>
<path d="M177.437 185.14C175.725 186.851 174.014 188.485 172.302 189.963C170.591 191.441 168.724 193.074 166.779 194.786C160.323 199.92 152.855 202.565 144.454 202.565C143.131 202.565 141.887 202.565 140.564 202.565C139.242 202.565 138.075 202.643 136.986 202.876C136.364 202.876 135.352 203.343 134.108 204.198C135.197 206.376 136.597 208.399 138.308 210.344C136.83 209.488 135.275 208.555 133.797 207.621C132.319 206.688 130.452 205.599 128.274 204.587C125.707 204.121 122.828 203.42 119.717 202.331C116.605 201.242 113.494 199.842 110.538 198.131C103.848 194.864 99.1025 189.496 96.3021 181.951C94.8241 178.528 93.735 174.949 93.0349 171.293C92.4126 167.637 91.9458 163.981 91.7125 160.325C91.2457 152.157 91.5569 144.145 92.4904 136.288C93.4239 128.431 94.824 120.497 96.5354 112.562C97.0022 109.762 97.5467 107.117 98.3246 104.628C99.1025 102.138 99.258 99.4158 98.7913 96.382C98.5579 95.5263 98.7135 94.5928 99.1025 93.6594C99.5692 92.7259 99.9582 91.7924 100.425 90.9367C102.992 83.0022 106.259 75.4566 110.304 68.3C114.271 61.2212 119.094 54.5312 124.695 48.3081C127.729 44.8853 129.829 40.9958 131.152 36.7174C135.43 24.8934 143.754 17.5812 156.044 14.7808C162.501 13.6917 168.646 13.8473 174.481 15.0919C185.449 18.3591 194.628 23.2598 201.94 29.9497C209.253 36.6396 213.998 46.1299 216.176 58.3429C219.443 77.3236 218.432 95.9931 213.298 114.585C210.264 126.02 206.374 136.91 201.707 147.334C196.962 157.758 191.594 167.948 185.527 177.828C184.904 178.917 184.204 179.85 183.426 180.55C182.648 181.328 181.948 182.184 181.326 183.273V183.584H179.07L179.381 183.273C178.526 184.129 177.748 184.751 177.125 185.218H177.437V185.14ZM132.785 76.6234C133.019 76.1567 133.252 75.9233 133.408 75.8456C133.641 75.7678 133.485 75.9234 133.097 76.3123C133.097 75.8456 133.097 75.7678 133.097 76.0011C133.097 76.2345 133.019 76.5457 132.785 76.9346C132.319 77.4014 132.007 77.9459 131.852 78.7238C131.619 79.5017 131.307 80.0462 130.918 80.5129C130.452 81.602 129.985 82.6133 129.285 83.5467C128.663 84.4802 128.118 85.5693 127.651 86.5805C121.817 101.205 117.928 116.763 116.061 133.099C114.738 142.589 114.116 151.924 114.116 161.181C114.116 164.214 114.505 167.248 115.283 170.36C116.061 173.471 116.761 176.661 117.383 179.85C117.85 181.328 118.472 182.806 119.328 184.206C120.183 185.607 121.584 186.54 123.528 186.929V187.551L123.217 187.24C122.984 186.151 122.906 185.14 122.906 184.206C122.906 183.273 122.673 182.184 122.284 181.173C120.806 176.894 119.794 172.382 119.406 167.793C118.939 163.125 118.783 158.614 118.783 154.102C118.55 143.134 119.406 132.476 121.195 122.286C122.984 112.095 125.473 101.749 128.429 91.4035C128.896 89.6921 129.285 87.903 129.752 86.036C130.218 84.2468 130.607 82.3021 131.074 80.3574C132.163 80.124 132.708 79.6573 132.708 78.8794C132.474 78.3348 132.63 77.4791 132.785 76.6234ZM173.547 37.8843C172.691 37.4175 171.913 37.0286 171.136 36.5619C170.358 36.0951 169.58 35.6284 168.724 34.9283C164.835 38.351 162.501 42.2405 161.801 46.5189C161.023 50.7973 161.023 55.4647 161.645 60.4432C160.323 59.8209 159.234 59.2764 158.223 58.9653C157.289 58.6541 156.2 58.2651 155.189 57.7984C150.91 64.0216 147.254 70.4781 144.376 77.0124C141.498 83.5467 139.164 90.3922 137.453 97.5489C135.741 104.628 134.186 111.862 132.785 119.174C131.385 126.487 130.452 133.799 130.063 141.111C128.74 152.702 129.207 164.059 131.385 175.027C131.852 176.505 132.163 178.061 132.552 179.539C132.863 181.017 133.874 182.339 135.586 183.429C138.153 181.717 140.409 179.695 142.198 177.439C144.065 175.183 145.776 172.849 147.565 170.515C154.489 161.492 160.401 152.079 165.301 142.278C170.28 132.476 174.481 122.208 177.903 111.395C180.47 102.994 182.493 94.4373 183.893 85.7248C185.293 77.0124 185.682 68.1444 185.06 59.043C184.593 54.9202 184.126 50.9529 183.426 47.0634C182.804 43.174 181.559 39.4401 179.848 35.784C179.226 34.0726 178.137 32.2056 176.581 30.2609C175.103 31.3499 173.78 32.1278 172.691 32.5168C172.925 33.6058 173.08 34.5393 173.158 35.2394C173.236 36.0173 173.392 36.873 173.625 37.9621V37.8843H173.547ZM138.308 35.0061C135.041 34.7727 133.485 36.4063 133.485 39.829C134.575 38.7399 135.508 37.8065 136.208 37.1064C136.986 36.3285 137.686 35.6284 138.308 35.0061ZM138.308 210.344C138.931 210.577 139.631 210.655 140.253 210.655C140.875 210.655 141.576 210.733 142.198 210.966C141.965 211.199 141.887 211.511 141.887 211.9C140.798 211.122 139.631 210.577 138.308 210.344ZM153.789 210.033C152.699 211.977 150.444 212.288 147.021 210.966C148.732 210.733 150.132 210.655 151.221 210.655C152.311 210.655 153.244 210.577 154.1 210.344L153.789 210.033ZM154.8 38.1954C152.466 39.2845 151.688 41.0736 152.544 43.7185C153.633 43.0962 154.255 42.2405 154.489 41.307C154.644 40.2958 154.8 39.2845 154.8 38.1954ZM153.789 210.033C155.267 209.566 156.589 209.099 157.678 208.399L157.989 208.71C157.367 209.177 156.667 209.41 156.044 209.488C155.422 209.566 154.722 209.877 154.1 210.266L153.789 210.033ZM159.934 206.532C159.078 207.388 158.456 208.166 157.989 208.788L157.678 208.399L159.934 206.143V206.532ZM165.457 202.643C163.979 204.976 162.112 206.221 159.934 206.221V206.532C161.412 204.198 163.357 202.876 165.768 202.643H165.457ZM167.713 201.009C166.857 201.865 166.235 202.409 165.768 202.643H165.457C165.924 202.409 166.235 202.176 166.624 201.865C166.935 201.553 167.324 201.165 167.791 200.698V201.009H167.713ZM167.713 200.698C167.946 200.231 168.18 199.92 168.491 199.764C168.802 199.531 169.191 199.22 169.658 198.831H169.969C169.502 199.298 169.191 199.609 168.802 199.998C168.491 200.309 168.102 200.698 167.635 201.165V200.698H167.713ZM169.969 198.753C169.735 197.431 170.047 196.419 170.747 195.486C171.525 194.63 172.38 193.775 173.469 192.919H173.236C173.236 194.241 172.925 195.253 172.302 196.186C171.68 197.042 170.824 197.897 169.735 198.753H169.969ZM175.103 191.285L173.469 192.919H173.236L175.181 190.974V191.285H175.103ZM173.547 38.1954C174.636 38.6622 175.181 39.9068 175.181 42.0849H175.492C174.403 41.6182 173.858 41.1514 173.703 40.4513C173.625 39.829 173.547 38.9733 173.547 37.8843V38.1954ZM177.437 47.5302C176.348 46.9079 175.725 46.0522 175.492 45.1187C175.258 44.1852 175.258 43.0962 175.492 42.0849H175.181C176.503 42.9406 177.203 43.8741 177.281 44.8075C177.359 45.741 177.359 46.8301 177.125 47.8413L177.437 47.5302ZM177.437 189.029C176.97 189.496 176.659 189.807 176.27 190.196C175.959 190.507 175.57 190.896 175.103 191.363V191.052C175.57 190.585 175.881 190.274 176.27 190.118C176.581 189.807 176.97 189.496 177.437 189.029ZM177.048 47.9191C177.514 48.3859 177.826 48.8526 178.214 49.3971C178.526 49.9417 178.837 50.564 178.992 51.1863C178.992 51.8086 178.681 52.5865 178.059 53.4422C177.826 52.3531 177.67 51.4197 177.592 50.564C177.514 49.7083 177.437 48.7748 177.437 47.6857L177.048 47.9191ZM177.437 185.14H177.125H179.381H179.07C178.837 185.996 178.292 187.318 177.437 189.029V185.14ZM181.248 183.273C180.782 183.74 180.47 184.051 180.081 184.206C179.77 184.44 179.381 184.751 178.915 185.14H179.226V183.195L178.915 183.506H181.17V183.273H181.248ZM186.149 41.4626L185.838 41.7737V42.0849C185.838 42.3183 185.916 42.5516 186.149 42.7072V41.4626ZM188.094 51.1085V47.8413H187.783V51.1085H188.094ZM188.716 142.822H189.027C189.261 142.356 189.416 142.044 189.494 141.656C189.572 141.344 189.572 141.422 189.338 141.811L189.027 142.433L188.716 142.822ZM189.961 60.1321L189.65 60.4432V79.5017H189.961V60.1321ZM192.606 132.554C193.695 132.321 194.239 131.932 194.239 131.232C194.239 130.609 194.317 129.832 194.55 128.976C195.639 128.354 196.262 127.498 196.495 126.409C196.728 125.32 196.806 124.231 196.806 123.142C197.273 122.053 197.74 120.964 198.44 119.874C199.062 118.785 199.607 117.696 200.073 116.607C201.785 111.473 203.185 106.184 204.274 100.816C205.363 95.4485 206.296 89.9255 207.152 84.3246C208.008 77.6347 207.93 71.1004 206.997 64.6439C206.063 58.1874 204.818 51.8086 203.263 45.5854C202.796 44.1074 202.329 42.6294 201.629 41.2292C201.007 39.829 200.229 38.351 199.373 36.873C198.906 36.4063 198.44 35.9395 197.74 35.2394C197.04 34.5393 196.262 33.7614 195.173 32.6724C195.639 34.3837 195.951 35.7062 196.106 36.5619C196.339 37.4175 196.651 38.2732 197.04 39.1289C199.218 44.1074 200.618 49.1638 201.396 54.4534C202.174 59.7431 202.64 65.1884 202.874 70.7892C203.34 78.1014 203.107 85.3359 202.251 92.4148C201.396 99.4936 200.073 106.65 198.362 113.729C197.895 115.44 197.662 117.074 197.584 118.552C197.506 120.03 197.195 121.586 196.806 123.064C195.484 123.92 194.861 124.853 194.861 125.786C194.861 126.72 194.861 127.809 194.861 128.82L192.917 132.71C192.683 133.176 192.45 133.41 192.294 133.488C192.061 133.565 192.217 133.41 192.606 133.021V132.554Z" fill="white"/>
<path d="M333.405 198.442C334.883 200.386 336.595 202.176 338.384 203.965C340.251 205.676 342.196 207.543 344.374 209.488C343.751 210.344 343.051 211.899 342.429 214H335.973C335.506 214.855 335.117 215.633 334.65 216.411C334.183 217.189 333.794 217.967 333.328 218.823L333.017 219.134C333.017 219.367 332.939 219.445 332.705 219.445C326.638 222.012 321.893 223.179 318.314 223.023C314.736 222.79 310.924 220.689 306.879 216.567C303.223 212.911 299.645 208.477 296.222 203.342C291.944 196.653 287.743 189.885 283.62 182.962C279.497 176.038 275.297 169.193 271.018 162.27C270.396 161.18 269.774 160.014 269.229 158.691C268.685 157.369 267.673 156.358 266.195 155.424C264.873 156.746 264.251 157.836 264.251 158.847C264.251 159.78 264.484 160.869 264.873 161.881C265.495 163.592 266.04 165.148 266.506 166.392C266.973 167.715 267.44 169.115 268.14 170.593C267.518 170.126 266.973 169.815 266.506 169.426C266.04 169.115 265.651 168.726 265.184 168.259C264.328 167.17 263.628 166.159 263.084 165.226C262.539 164.292 261.761 163.125 260.672 161.803C259.817 162.892 259.039 163.748 258.416 164.37C257.794 164.992 257.094 165.692 256.472 166.315L233.524 200.231C232.435 201.709 231.423 203.265 230.49 204.743C229.556 206.221 228.001 207.543 225.822 208.632C225.356 208.165 224.811 207.699 224.033 207.154C223.255 206.61 222.478 206.143 221.622 205.676C219.91 205.909 218.355 205.754 216.954 205.209C215.554 204.665 213.998 204.043 212.287 203.42C212.52 201.242 212.909 199.22 213.61 197.275C214.232 195.33 215.088 193.541 216.177 191.752C218.355 187.629 220.611 183.584 223.1 179.461C225.589 175.338 228.078 171.138 230.645 166.859C232.746 163.592 234.924 160.403 237.024 157.135C239.124 153.868 241.303 150.679 243.403 147.412C244.492 146.089 245.425 144.767 246.281 143.367C247.137 141.966 247.993 140.644 248.848 139.322C248.459 137.61 247.915 136.054 247.215 134.81C246.592 133.487 246.048 132.321 245.659 131.231C241.38 121.119 237.88 110.928 235.002 100.738C232.123 90.5475 230.49 79.8126 230.101 68.6109C229.868 64.9548 230.023 61.3765 230.412 57.7982C230.879 54.2199 231.268 50.6415 231.734 46.9854C231.734 46.1297 231.812 45.4296 231.89 44.8851C231.968 44.3406 232.201 43.7183 232.512 43.0959C232.824 42.4736 233.29 41.7735 233.757 40.9956C234.302 40.2177 235.079 39.1287 236.169 37.5729C238.269 36.4838 240.525 35.5504 242.858 34.6947C245.192 33.839 247.604 33.6056 250.171 34.0723C251.26 35.1614 251.882 36.406 252.115 37.8063C252.349 39.2065 252.427 40.6845 252.427 42.1625C252.893 49.4747 253.827 56.6313 255.305 63.6324C256.783 70.6335 258.65 77.5567 260.828 84.48C261.295 85.569 261.761 86.4247 262.306 87.047C262.85 87.6693 263.317 88.4473 263.784 89.3029C263.317 87.825 263.084 86.2691 263.006 84.7911C262.928 83.3131 262.617 81.7573 262.228 80.2793C260.283 74.2895 258.961 68.0664 258.339 61.6877C257.716 55.3089 257.016 48.9302 256.394 42.4736C256.394 41.6179 256.472 40.7622 256.705 39.9066C256.938 39.0509 257.172 37.7285 257.327 36.0171C257.95 36.8728 258.572 37.4951 259.116 37.9618C259.661 38.4286 260.05 38.8175 260.283 39.2843C260.75 41.4624 261.061 43.5627 261.45 45.5852C261.761 47.6077 262.072 49.708 262.228 51.8861C263.939 60.0541 266.117 67.9886 268.685 75.612C271.252 83.2353 274.674 90.7809 279.031 98.0932L282.92 94.2037L311.002 60.2874C312.091 59.1984 313.025 57.9537 313.88 56.5535C314.736 55.1533 316.058 54.2198 317.77 53.8309C317.77 54.2976 317.692 54.7644 317.614 55.3089C317.536 55.8534 317.459 56.4757 317.459 57.0981C318.781 55.3867 319.637 54.2976 320.026 53.8309H319.714H320.026H317.77C318.625 51.4972 320.259 49.6303 322.593 48.3078C322.359 48.9302 322.282 49.6303 322.282 50.2526C322.282 50.8749 322.204 51.4194 321.97 51.8861C323.293 50.5637 324.226 49.3191 324.849 47.9967L324.537 48.3078L324.849 47.9967H322.593C323.215 45.8186 324.849 44.2628 327.416 43.1737C327.182 43.6405 327.104 44.1072 327.104 44.8073C327.104 45.4296 327.027 46.1297 326.793 46.7521C327.26 46.1297 327.649 45.4296 328.116 44.8073C328.582 44.185 329.049 43.6405 329.749 43.1737C330.838 41.6957 332.083 40.2955 333.483 39.1287C334.883 37.9618 336.128 36.795 337.217 35.7059C338.928 33.9946 340.718 32.2054 342.585 30.3385C344.374 28.5493 346.319 26.7601 348.263 24.971C350.597 21.7038 353.631 20.4592 357.287 21.0815C358.765 22.5595 360.554 23.9597 362.421 25.1265C364.366 26.2934 365.533 28.3937 365.999 31.4275C362.965 35.0836 359.776 38.7397 356.509 42.3958C353.164 46.0519 349.975 49.7081 347.019 53.3642C340.095 60.9098 333.794 68.5331 327.96 76.3121C324.693 80.2016 321.581 84.0133 318.625 87.7472C315.592 91.4811 312.558 95.3705 309.602 99.1822C306.568 103.072 303.534 106.961 300.578 110.773C297.544 114.662 294.511 118.552 291.555 122.364C292.021 123.453 292.255 124.386 292.333 125.242C292.41 126.097 292.721 126.953 293.11 127.809C298.089 137.921 303.145 147.801 308.279 157.524C313.414 167.248 319.17 176.816 325.393 186.306C326.716 188.251 327.96 190.274 329.283 192.296C330.216 194.786 331.694 196.73 333.405 198.442ZM253.593 130.609L254.216 130.298C253.982 129.831 253.671 129.442 253.282 128.976L252.66 129.287C252.893 129.52 253.049 129.753 253.127 129.909C253.282 130.142 253.438 130.376 253.593 130.609ZM263.939 89.8474C263.706 90.7031 263.628 91.4032 263.628 91.9478C263.628 92.4923 264.173 92.9591 265.262 93.4258C265.651 91.481 265.262 90.3142 263.939 89.8474ZM265.573 93.7369C264.951 95.2149 265.262 96.304 266.506 97.0041C266.973 95.2927 266.662 94.2037 265.573 93.7369ZM266.584 97.3153C266.117 99.0266 266.584 100.116 267.907 100.582C267.673 99.9601 267.44 99.4156 267.284 98.9488C266.973 98.4821 266.74 97.9376 266.584 97.3153ZM268.14 100.894C268.14 101.749 268.14 102.372 268.14 102.838C268.14 103.305 268.607 103.694 269.462 104.161C269.229 103.227 268.84 102.138 268.14 100.894ZM268.451 170.982V170.671H268.762V170.982H268.451ZM271.407 176.116C269.462 175.26 268.607 173.549 268.84 170.982C270.551 172.071 271.407 173.782 271.407 176.116ZM269.774 104.394C268.918 105.717 269.307 106.339 271.096 106.339C270.24 105.483 269.774 104.861 269.774 104.394ZM271.407 176.427V176.116L271.718 176.427H271.407ZM274.597 181.328C272.652 180.472 271.718 178.839 271.718 176.505C273.663 177.283 274.597 178.917 274.597 181.328ZM276.23 183.584C275.374 182.728 274.83 182.106 274.597 181.639V181.328L274.908 181.639C274.908 181.872 275.452 182.495 276.541 183.584C276.775 184.051 276.93 184.517 277.008 185.217C277.086 185.84 277.397 186.54 277.786 187.162C278.019 187.629 278.253 187.862 278.408 187.94C278.642 188.018 278.953 188.329 279.342 188.718L279.031 189.029C278.564 188.562 278.33 188.251 278.253 188.096C278.175 187.862 277.864 187.551 277.475 187.162C277.008 186.54 276.775 185.84 276.697 185.217C276.619 184.517 276.464 183.973 276.23 183.584ZM327.571 43.3293V43.0181H329.827V43.3293H327.571Z" fill="white"/>
<path d="M185.6 277.888C185.691 278.432 185.827 278.931 185.963 279.43C186.099 279.929 186.235 280.428 186.371 280.973C186.19 281.154 186.008 281.291 185.918 281.336C185.827 281.381 185.555 281.381 185.146 281.381C184.829 281.154 184.42 280.973 184.012 280.837C183.603 280.701 183.15 280.791 182.696 281.018C182.514 281.064 182.288 281.109 182.061 281.064C181.834 281.018 181.607 281.018 181.335 281.018C181.153 280.882 180.972 280.701 180.836 280.474C180.699 280.247 180.609 280.02 180.563 279.748C180.382 279.022 180.2 278.25 180.019 277.525C179.837 276.799 179.611 276.027 179.474 275.256C179.293 274.484 179.157 273.668 179.111 272.851C179.066 272.034 178.93 271.218 178.794 270.401C178.794 270.355 178.748 270.174 178.658 269.902C178.159 269.856 177.659 269.811 177.115 269.856C176.616 269.902 176.117 269.947 175.572 270.038C175.073 270.128 174.574 270.219 174.075 270.31C173.576 270.401 173.077 270.446 172.623 270.491C172.305 270.673 172.078 270.945 171.942 271.172C171.852 271.444 171.761 271.671 171.67 271.943C171.307 272.942 170.944 273.895 170.581 274.893C170.218 275.846 169.855 276.844 169.492 277.842C169.356 278.25 169.174 278.704 168.902 279.249C168.721 279.294 168.494 279.294 168.312 279.339C168.131 279.339 167.904 279.385 167.632 279.476C167.496 279.294 167.359 279.158 167.269 279.067C166.951 279.249 166.588 279.203 166.18 278.931C165.998 278.659 165.953 278.432 166.089 278.205C166.225 277.978 166.27 277.751 166.225 277.479C166.044 277.434 165.907 277.343 165.771 277.162C165.862 276.708 165.998 276.299 166.134 275.846C166.27 275.392 166.407 274.938 166.497 274.484C166.633 274.031 166.815 273.577 166.996 273.123C167.178 272.715 167.269 272.216 167.178 271.671C166.996 271.58 166.86 271.535 166.679 271.535C166.497 271.535 166.361 271.58 166.18 271.671C166.044 271.717 165.862 271.807 165.681 271.853C165.499 271.898 165.363 271.898 165.181 271.807C165.136 271.671 165.091 271.535 165.091 271.354C165.045 271.217 165.045 271.036 165 270.855C165.454 270.31 165.953 269.992 166.543 269.856C167.133 269.72 167.722 269.493 168.312 269.176C168.539 268.586 168.766 268.041 168.993 267.451C169.22 266.862 169.447 266.272 169.628 265.682C170.717 262.778 171.806 259.965 172.895 257.106C173.984 254.293 175.073 251.434 176.162 248.621C176.298 248.258 176.434 247.895 176.57 247.532C176.707 247.215 176.888 246.852 177.16 246.579C177.342 246.398 177.433 246.216 177.523 245.989C177.569 245.763 177.659 245.536 177.796 245.263C177.886 245.037 177.977 244.81 178.068 244.583C178.159 244.401 178.249 244.174 178.34 243.902C178.658 243.857 178.93 243.857 179.248 243.902C179.52 243.948 179.837 244.038 180.11 244.174C180.382 244.265 180.654 244.356 180.881 244.492C181.153 244.583 181.38 244.628 181.652 244.628C181.925 244.9 182.151 245.173 182.378 245.4C182.605 245.626 182.832 245.899 183.104 246.171C183.195 246.579 183.24 247.033 183.24 247.577C183.286 248.666 183.377 249.755 183.422 250.844C183.467 251.933 183.558 253.022 183.603 254.111C183.649 256.017 183.74 257.877 183.785 259.783C183.83 261.644 183.921 263.504 184.012 265.364C184.148 267.497 184.329 269.629 184.511 271.717C184.829 273.758 185.146 275.8 185.6 277.888ZM167.405 274.076H167.359L167.405 274.212V274.076ZM173.394 267.951C173.712 267.951 174.12 267.905 174.619 267.86C175.073 267.814 175.572 267.769 176.071 267.678C176.57 267.633 177.024 267.542 177.478 267.406C177.932 267.315 178.249 267.225 178.476 267.134C178.476 267.043 178.476 266.952 178.431 266.862C178.431 266.771 178.385 266.68 178.34 266.544C178.022 266.499 177.705 266.453 177.387 266.453C177.07 266.453 176.752 266.499 176.434 266.544C176.117 266.589 175.754 266.635 175.436 266.635C175.073 266.635 174.71 266.589 174.347 266.499C175.118 266.362 175.844 266.272 176.434 266.181C177.024 266.09 177.705 265.999 178.385 265.863V254.837C178.34 254.883 178.249 254.883 178.204 254.883C177.387 257.015 176.57 259.148 175.754 261.281C174.937 263.413 174.12 265.546 173.303 267.678V267.814C173.303 267.86 173.303 267.86 173.349 267.86C173.349 267.905 173.394 267.905 173.394 267.951Z" fill="#FF522A"/>
<path d="M214.868 257.696C215.049 257.288 215.231 256.88 215.457 256.517C215.73 256.063 216.002 255.564 216.229 255.065C216.456 254.565 216.637 254.021 216.773 253.476C216.909 252.932 216.955 252.388 216.955 251.888C216.955 251.344 216.773 250.845 216.501 250.346C216.456 250.255 216.41 250.164 216.365 250.073C216.274 250.028 216.183 249.892 216.047 249.71C216.047 250.164 216.047 250.436 216.093 250.573C216.274 251.435 216.274 252.297 216.093 253.159C215.911 253.976 215.639 254.792 215.231 255.564C215.049 255.927 214.822 256.29 214.595 256.653C214.368 256.97 214.142 257.333 213.869 257.742C213.098 258.831 212.236 259.874 211.374 260.918C210.512 261.916 209.559 262.914 208.515 263.867C207.653 264.639 206.791 265.365 205.883 266.091C204.976 266.771 203.887 267.316 202.616 267.633C202.753 267.86 202.843 268.087 202.934 268.223C203.025 268.405 203.116 268.541 203.206 268.722C203.796 269.584 204.431 270.492 205.112 271.354C205.793 272.216 206.473 273.078 207.29 273.895C208.016 274.666 208.787 275.392 209.649 276.073C210.512 276.754 211.51 277.298 212.599 277.797C212.78 277.752 213.007 277.752 213.234 277.752C213.461 277.752 213.688 277.752 213.915 277.706C213.96 277.842 214.051 277.979 214.096 278.069C214.278 278.115 214.414 278.024 214.505 277.888C214.595 277.752 214.686 277.616 214.913 277.57C215.185 277.661 215.503 277.661 215.82 277.57C216.138 277.479 216.456 277.525 216.819 277.752C216.955 278.024 216.955 278.251 216.819 278.478C216.683 278.705 216.501 278.886 216.32 279.068C215.82 279.431 215.276 279.794 214.731 280.066C214.187 280.383 213.552 280.474 212.78 280.429C212.327 280.383 211.918 280.429 211.464 280.52C211.056 280.61 210.602 280.61 210.149 280.565C206.201 279.975 203.025 278.205 200.62 275.392C200.302 275.029 200.03 274.621 199.713 274.213C199.395 273.804 199.077 273.35 198.714 272.897C198.624 273.26 198.578 273.623 198.578 273.895C198.578 274.213 198.578 274.485 198.533 274.757C198.487 275.029 198.442 275.302 198.442 275.528C198.397 275.801 198.351 276.028 198.351 276.3C198.306 276.617 198.306 276.89 198.306 277.207C198.306 277.479 198.306 277.797 198.215 278.115C198.17 278.387 198.124 278.659 198.079 278.886C198.079 279.158 197.988 279.385 197.807 279.657C197.489 279.521 197.308 279.34 197.172 279.113C197.035 278.886 196.899 278.659 196.672 278.432C196.672 277.706 196.672 277.026 196.627 276.3C196.627 275.574 196.627 274.848 196.672 274.122C196.718 273.441 196.763 272.761 196.809 271.989C196.854 271.263 196.899 270.537 196.945 269.811C196.672 270.492 196.491 271.172 196.4 271.898C196.309 272.624 196.219 273.305 196.173 273.986C196.128 274.848 196.128 275.665 196.173 276.527C196.219 277.343 196.355 278.16 196.582 278.977C196.627 279.158 196.627 279.385 196.672 279.567C196.672 279.748 196.627 279.975 196.536 280.202C196.264 280.247 195.992 280.247 195.72 280.293C195.447 280.338 195.175 280.338 194.857 280.338C194.676 280.157 194.404 280.066 194.177 279.975C193.95 279.884 193.678 279.839 193.406 279.794C193.133 279.748 192.861 279.657 192.634 279.567C192.362 279.476 192.135 279.34 191.908 279.113C191.636 278.75 191.454 278.342 191.318 277.933C191.182 277.525 191.091 277.071 190.955 276.708C190.638 275.528 190.456 274.303 190.502 273.124C190.547 271.898 190.638 270.719 190.774 269.539C190.955 267.452 191.409 265.455 192.044 263.504C192.68 261.553 193.451 259.602 194.268 257.696C194.404 257.379 194.54 257.016 194.721 256.698C194.857 256.38 195.039 256.017 195.175 255.654C195.22 255.609 195.22 255.518 195.22 255.337C195.13 255.291 195.039 255.201 194.948 255.065V255.11C195.084 254.883 195.266 254.656 195.493 254.475C195.72 254.293 195.81 254.021 195.81 253.703H195.856L195.81 253.749C195.583 253.93 195.357 254.157 195.084 254.339C194.857 254.52 194.676 254.792 194.585 255.11L194.631 255.065C194.585 255.155 194.494 255.201 194.449 255.246C194.404 255.291 194.358 255.337 194.268 255.382L194.313 255.337C194.041 255.609 193.769 255.881 193.496 256.199C193.224 256.471 192.952 256.789 192.68 257.061C192.271 257.606 191.863 258.15 191.454 258.649C191.046 259.194 190.638 259.738 190.184 260.283C189.413 260.464 188.687 260.419 188.097 260.192C187.507 259.965 186.872 259.693 186.327 259.421C186.236 259.103 186.236 258.831 186.282 258.558C186.373 258.286 186.463 258.059 186.599 257.878C186.917 257.379 187.189 256.834 187.507 256.335C187.824 255.791 188.142 255.291 188.505 254.792C190.592 252.025 193.133 249.665 196.083 247.669C197.081 246.988 198.17 246.398 199.304 245.899C200.439 245.4 201.664 245.082 202.934 244.901C203.025 244.855 203.252 244.855 203.524 244.855C204.976 244.81 206.428 244.855 207.835 244.992C209.241 245.173 210.648 245.491 211.964 245.99C212.735 246.262 213.461 246.58 214.096 246.988C214.731 247.396 215.367 247.85 216.002 248.304C216.683 248.848 217.136 249.438 217.363 250.119C217.59 250.799 217.681 251.525 217.59 252.297C217.499 253.295 217.227 254.202 216.728 255.065C216.274 255.927 215.684 256.743 214.958 257.515C214.913 257.56 214.868 257.56 214.822 257.606C214.731 257.606 214.686 257.651 214.641 257.696H214.868ZM191.318 279.975C191.273 279.794 191.182 279.657 191.182 279.567C191.137 279.476 191.091 279.34 191.046 279.158V279.113C191.091 279.294 191.182 279.431 191.228 279.567C191.273 279.703 191.318 279.794 191.409 279.93L191.318 279.975ZM191.364 279.93L191.681 280.247L191.636 280.293C191.591 280.247 191.545 280.157 191.5 280.157C191.454 280.111 191.409 280.066 191.318 280.02L191.364 279.93ZM191.636 280.247L191.681 280.293H191.591L191.636 280.247ZM194.721 255.291H194.358L194.404 255.246H194.676L194.721 255.291ZM195.039 254.974C194.994 255.065 194.903 255.11 194.857 255.11C194.812 255.155 194.767 255.201 194.676 255.201L194.721 255.246V254.928L194.676 254.974H195.039ZM199.259 260.101C199.486 259.92 199.622 259.738 199.667 259.511C199.713 259.284 199.758 259.058 199.803 258.876C200.121 258.014 200.484 257.106 200.756 256.199C201.074 255.291 201.391 254.384 201.709 253.522C201.754 253.477 201.8 253.386 201.89 253.25C201.981 253.159 202.072 252.977 202.208 252.796C202.163 253.068 202.163 253.25 202.163 253.386C202.163 253.522 202.163 253.613 202.117 253.749C201.936 254.475 201.754 255.155 201.573 255.881C201.391 256.562 201.165 257.288 200.938 258.014C200.665 258.876 200.484 259.784 200.348 260.691C200.212 261.599 200.121 262.461 200.03 263.368C200.166 263.686 200.302 263.958 200.439 264.185C200.575 264.412 200.756 264.639 200.938 264.775C201.119 264.775 201.255 264.775 201.346 264.729C201.528 264.639 201.709 264.502 201.89 264.366C202.072 264.23 202.299 264.094 202.48 263.913C203.751 262.778 204.976 261.599 206.065 260.328C207.154 259.058 208.198 257.787 209.15 256.426C209.604 255.745 210.058 255.019 210.375 254.293C210.738 253.567 211.011 252.796 211.147 252.025C211.328 251.299 211.374 250.573 211.283 249.847C211.192 249.121 210.829 248.395 210.239 247.714C210.012 247.714 209.786 247.669 209.559 247.623C209.332 247.578 209.105 247.532 208.833 247.487C207.29 247.351 205.747 247.669 204.295 248.395C203.66 248.758 203.025 249.166 202.39 249.574C201.8 249.983 201.165 250.391 200.575 250.754C200.484 250.799 200.439 250.89 200.393 251.117C200.529 251.208 200.665 251.253 200.756 251.389C200.847 251.48 200.938 251.571 201.074 251.707C201.301 252.251 201.346 252.841 201.165 253.431C200.983 253.885 200.847 254.384 200.711 254.792C200.575 255.246 200.439 255.7 200.257 256.154C200.076 256.834 199.894 257.515 199.713 258.195C199.531 258.876 199.304 259.557 199.123 260.237C198.896 260.464 198.85 260.782 199.032 261.099C199.077 260.918 199.077 260.782 199.077 260.646C199.213 260.464 199.213 260.283 199.259 260.101ZM200.484 273.441C200.529 273.577 200.665 273.759 200.802 273.94L200.892 273.986L200.847 273.94C200.802 273.85 200.665 273.668 200.529 273.396C200.484 273.35 200.393 273.305 200.393 273.26C200.393 273.214 200.302 273.214 200.257 273.124C200.121 272.851 200.03 272.67 199.939 272.579C199.849 272.534 199.803 272.443 199.803 272.307C199.758 272.216 199.713 272.125 199.667 272.035C199.531 271.898 199.395 271.808 199.304 271.717C199.259 271.672 199.259 271.672 199.213 271.626C199.213 271.581 199.213 271.626 199.259 271.672C199.259 271.626 199.259 271.581 199.259 271.626C199.259 271.672 199.259 271.717 199.304 271.762C199.44 271.898 199.576 271.989 199.667 272.035C199.713 272.125 199.758 272.216 199.803 272.307C199.803 272.398 199.849 272.488 199.939 272.579C199.985 272.67 200.121 272.851 200.257 273.124C200.302 273.169 200.393 273.169 200.393 273.214C200.348 273.35 200.393 273.396 200.484 273.441ZM200.802 249.892C200.756 249.937 200.665 250.028 200.439 250.164C200.121 250.3 199.939 250.391 199.894 250.436C199.803 250.482 199.758 250.618 199.713 250.89C199.849 250.754 199.985 250.618 200.076 250.527C200.212 250.436 200.302 250.3 200.439 250.119C200.484 250.073 200.575 250.028 200.575 249.983C200.62 249.983 200.665 249.937 200.711 249.847H200.802V249.892ZM214.55 258.241L214.459 258.286L214.505 258.241H214.55ZM214.868 257.696C214.731 257.969 214.641 258.15 214.55 258.241H214.505C214.55 258.15 214.686 257.969 214.822 257.696H214.868Z" fill="#FF522A"/>
<path d="M221.399 243.811C222.669 243.358 223.94 242.949 225.21 242.677C226.48 242.405 227.796 242.133 229.067 241.906C230.927 241.497 232.788 241.18 234.648 240.953C236.508 240.726 238.369 240.544 240.274 240.363C241.272 240.318 242.225 240.227 243.178 240.181C244.131 240.136 245.084 240.091 246.037 240.045C246.627 240 247.171 240 247.761 240C248.351 240 248.941 240.045 249.531 240.136C250.211 240.227 250.756 240.318 251.164 240.454C251.572 240.59 252.026 240.907 252.48 241.27C252.525 241.361 252.525 241.452 252.525 241.543C252.525 241.633 252.525 241.724 252.571 241.815C252.934 242.042 253.251 242.314 253.524 242.586C253.796 242.859 253.796 243.267 253.569 243.766C253.206 243.948 252.843 244.038 252.435 244.038C252.072 244.038 251.709 244.038 251.3 243.993C250.075 243.857 248.85 243.811 247.67 243.857C246.445 243.902 245.265 243.948 244.086 243.993C242.679 244.129 241.272 244.265 239.866 244.401C238.459 244.537 237.053 244.719 235.646 244.946C235.419 245.263 235.192 245.536 235.011 245.853C234.829 246.126 234.602 246.443 234.376 246.761H234.557C234.421 247.124 234.33 247.487 234.239 247.804C234.149 248.122 234.103 248.44 233.967 248.757C233.423 250.028 232.969 251.344 232.606 252.614C232.243 253.885 231.925 255.155 231.653 256.471C231.562 256.925 231.336 257.787 231.063 258.966C230.791 260.146 230.473 261.417 230.201 262.778C229.929 264.139 229.657 265.364 229.384 266.589C229.112 267.769 228.976 268.631 228.885 269.085C228.704 270.446 228.613 271.762 228.568 273.123C228.522 274.439 228.568 275.755 228.704 277.116C228.749 277.842 228.931 278.523 229.158 279.158C229.384 279.793 229.747 280.383 230.201 280.882C230.156 281.064 230.156 281.2 230.156 281.381C230.156 281.563 230.156 281.699 230.11 281.835C229.929 281.88 229.793 281.88 229.657 281.88C229.521 281.88 229.43 281.926 229.294 281.971C228.522 282.289 227.796 282.38 227.206 282.243C226.617 282.107 225.981 281.835 225.437 281.427C224.756 280.928 224.212 280.338 223.758 279.702C223.304 279.067 223.032 278.341 222.941 277.524C222.896 276.844 222.805 276.163 222.669 275.392C222.578 274.666 222.533 273.94 222.578 273.169C222.578 272.352 222.669 271.172 222.851 269.675C223.032 268.132 223.259 266.544 223.531 264.865C223.803 263.186 224.076 261.598 224.348 260.055C224.62 258.513 224.892 257.378 225.074 256.562C225.21 255.836 225.392 255.064 225.573 254.384C225.754 253.658 225.981 252.977 226.117 252.251V252.296C226.299 252.07 226.39 251.843 226.435 251.661C226.48 251.48 226.39 251.298 226.254 251.117C226.254 251.071 226.254 250.981 226.299 250.844C226.299 250.754 226.344 250.663 226.344 250.527H226.889V249.801C227.343 249.256 227.66 248.712 227.887 248.122C228.114 247.532 228.477 246.942 228.885 246.307C228.477 246.262 228.114 246.262 227.751 246.352C227.433 246.443 227.07 246.534 226.753 246.625C226.435 246.67 226.072 246.761 225.754 246.852C225.437 246.942 225.074 247.033 224.666 247.169C224.348 247.215 224.076 247.305 223.758 247.351C223.44 247.441 223.123 247.487 222.805 247.623C222.125 247.804 221.489 248.122 220.854 248.485C220.582 248.53 220.355 248.53 220.128 248.576C219.947 248.621 219.72 248.621 219.538 248.666C219.357 248.485 219.221 248.349 219.039 248.213C218.858 248.077 218.721 247.986 218.54 247.85C218.449 247.577 218.358 247.305 218.222 247.078C218.086 246.806 217.95 246.534 217.859 246.216C217.905 246.126 217.995 245.989 218.041 245.899C218.132 245.763 218.222 245.672 218.404 245.626C218.721 245.309 219.13 245.037 219.584 244.855C219.856 244.81 220.037 244.628 220.128 244.401C220.219 244.174 220.4 244.038 220.718 243.993C220.718 244.038 220.718 244.038 220.763 244.038C220.763 244.038 220.809 244.038 220.809 244.084L220.763 244.038C220.809 244.084 221.036 243.948 221.399 243.811L221.444 243.857L221.399 243.811ZM226.254 250.935C226.027 251.117 225.891 251.298 225.8 251.57C225.754 251.843 225.664 252.07 225.528 252.342C225.346 252.705 225.255 253.068 225.165 253.34C225.119 253.658 225.029 253.975 224.892 254.338C224.756 254.701 224.62 255.064 224.529 255.427C224.439 255.79 224.348 256.108 224.212 256.516C224.076 256.108 224.076 255.699 224.212 255.336C224.348 254.928 224.484 254.565 224.575 254.202C224.756 253.612 224.983 252.977 225.21 252.296C225.437 251.661 225.664 251.026 225.891 250.391C225.936 250.3 226.027 250.209 226.117 250.073C226.208 249.982 226.299 249.892 226.344 249.755C226.344 249.937 226.344 250.164 226.299 250.345C226.254 250.527 226.254 250.754 226.208 250.89V250.935H226.254Z" fill="#FF522A"/>
<path d="M239.222 265.773C239.041 265.954 238.904 266.09 238.723 266.272C238.541 266.453 238.405 266.59 238.269 266.771C237.815 267.361 237.407 268.042 237.044 268.722C236.726 269.403 236.454 270.129 236.227 270.9C236.5 271.082 236.726 271.218 236.953 271.354C237.135 271.49 237.362 271.671 237.498 271.898C237.679 272.216 237.952 272.534 238.315 272.76C238.632 272.987 238.995 273.214 239.404 273.441C240.175 273.849 240.992 274.258 241.763 274.712C242.58 275.165 243.351 275.574 244.122 275.937C244.848 276.254 245.529 276.663 246.164 277.071C246.8 277.479 247.389 278.024 247.843 278.614C247.889 278.659 248.025 278.75 248.115 278.795C248.252 278.886 248.342 278.931 248.388 279.067C248.388 279.113 248.433 279.158 248.478 279.204C248.524 279.158 248.615 279.113 248.66 279.067V279.113C248.751 279.204 248.841 279.294 248.978 279.385C249.068 279.43 249.159 279.567 249.295 279.703C249.613 280.156 249.885 280.701 250.066 281.2C250.248 281.745 250.384 282.289 250.52 282.834C250.702 284.195 250.702 285.511 250.429 286.826C250.157 288.097 249.749 289.367 249.114 290.593C248.932 291.137 248.524 291.545 247.979 291.863L248.025 291.818C247.752 292.044 247.48 292.271 247.253 292.544C247.026 292.77 246.754 292.997 246.482 293.224C246.119 293.451 245.756 293.723 245.393 293.95C245.03 294.222 244.667 294.404 244.259 294.585C243.306 295.039 242.353 295.448 241.4 295.811C240.447 296.174 239.494 296.537 238.496 296.945C238.451 296.99 238.315 297.036 238.224 297.036C238.088 297.036 237.997 297.036 237.906 297.036C237.952 296.945 238.088 296.809 238.315 296.537H236.454C235.728 296.582 235.048 296.537 234.412 296.446C233.777 296.355 233.142 296.174 232.461 295.901C232.507 295.856 232.597 295.856 232.643 295.856C232.688 295.856 232.779 295.811 232.915 295.765C232.734 295.629 232.597 295.493 232.416 295.402C232.28 295.311 232.098 295.221 231.917 295.085C231.735 294.948 231.599 294.812 231.463 294.722C231.327 294.631 231.191 294.495 230.964 294.359C230.919 294.722 231.009 294.994 231.282 295.13C231.508 295.266 231.69 295.448 231.826 295.674C231.508 295.584 231.191 295.538 230.919 295.493C230.919 295.584 230.919 295.674 230.873 295.765C230.873 295.811 230.873 295.901 230.919 295.947C231.191 296.537 231.735 296.99 232.552 297.263C233.006 297.444 233.505 297.535 234.049 297.535C234.549 297.535 235.048 297.489 235.547 297.444C235.955 297.399 236.363 297.308 236.772 297.217C237.18 297.126 237.589 297.036 237.952 296.99C237.679 297.308 237.362 297.489 236.999 297.535C236.636 297.58 236.273 297.626 235.864 297.716C234.73 297.989 233.641 297.989 232.597 297.671C231.372 297.308 230.646 296.582 230.465 295.584C230.283 294.948 230.283 294.313 230.374 293.633C230.465 292.589 230.692 291.545 231.009 290.547C231.327 289.549 231.781 288.551 232.371 287.643C232.96 286.736 233.55 285.828 234.186 284.966C234.821 284.104 235.456 283.242 236.137 282.38C236.772 281.563 237.498 280.837 238.315 280.202C239.131 279.567 239.993 278.977 240.946 278.478C240.992 278.432 240.992 278.341 240.992 278.296C240.992 278.251 240.992 278.16 241.037 278.115C241.219 278.16 241.355 278.205 241.536 278.296C241.718 278.387 241.899 278.387 242.081 278.251C240.901 276.98 238.904 275.846 236.137 274.848V275.12C235.955 275.075 235.819 274.984 235.683 274.938C235.547 274.893 235.411 274.802 235.275 274.666C235.048 274.485 234.821 274.303 234.594 274.076C234.367 273.849 234.185 273.623 234.004 273.441C233.641 273.078 233.369 272.67 233.142 272.261C232.96 271.853 232.915 271.354 233.006 270.855C233.051 270.537 233.142 270.174 233.187 269.811C233.233 269.448 233.369 269.085 233.505 268.767C234.322 266.907 235.456 265.228 236.953 263.731C237.952 262.687 238.995 261.689 240.13 260.827C241.264 259.965 242.398 259.103 243.623 258.331C244.395 257.878 245.211 257.469 246.074 257.106C246.936 256.789 247.798 256.516 248.705 256.29C249.295 256.108 249.93 256.017 250.566 256.017C251.201 256.017 251.836 256.017 252.471 256.108C252.789 256.153 253.152 256.244 253.47 256.244C253.787 256.29 254.105 256.335 254.422 256.38C255.239 256.562 255.829 256.879 256.237 257.333C256.646 257.742 256.827 258.377 256.873 259.148C256.873 259.738 256.782 260.283 256.646 260.782C256.51 261.281 256.328 261.78 256.101 262.324C255.829 263.005 255.511 263.64 255.148 264.275C254.785 264.865 254.377 265.501 253.923 266.045C253.651 266.408 253.379 266.771 253.152 267.134C252.925 267.497 252.607 267.815 252.29 268.132V268.087C252.29 268.132 252.29 268.132 252.244 268.178C252.199 268.178 252.199 268.223 252.244 268.268C252.244 268.314 252.244 268.314 252.29 268.359C252.29 268.359 252.335 268.405 252.335 268.495V268.45C252.108 268.586 251.881 268.767 251.745 268.994C251.655 269.085 251.609 269.085 251.564 269.13C251.518 269.13 251.473 269.176 251.382 269.267L251.428 269.221C251.382 269.267 251.292 269.357 251.246 269.403C251.201 269.448 251.155 269.493 251.065 269.584L251.11 269.539C251.019 269.63 250.974 269.675 250.929 269.675C250.883 269.72 250.838 269.766 250.747 269.811L250.792 269.766C250.656 270.038 250.52 270.219 250.429 270.31H250.475C250.384 270.401 250.339 270.446 250.293 270.446C250.248 270.492 250.203 270.537 250.112 270.582L250.157 270.537C250.067 270.673 249.93 270.809 249.794 270.9L249.84 270.855C249.794 270.9 249.658 270.991 249.477 271.172V270.9C249.159 271.082 248.796 271.218 248.433 271.399C248.07 271.535 247.707 271.717 247.344 271.898C246.21 272.488 245.166 272.443 244.122 271.853C244.032 271.581 244.032 271.399 244.122 271.263C244.213 271.127 244.349 270.991 244.485 270.809C244.939 270.219 245.438 269.584 245.892 268.994C246.346 268.404 246.8 267.815 247.208 267.179C247.662 266.499 248.115 265.818 248.524 265.047C248.932 264.321 249.295 263.595 249.704 262.869C250.021 262.279 250.248 261.689 250.384 261.099C250.475 260.509 250.384 259.874 250.112 259.194C250.203 259.194 250.293 259.194 250.384 259.239C250.475 259.239 250.566 259.284 250.656 259.284C250.702 259.012 250.656 258.785 250.566 258.604C250.475 258.422 250.339 258.195 250.157 257.968C250.021 258.014 249.885 258.105 249.794 258.105C249.704 258.15 249.613 258.195 249.477 258.241C249.522 258.468 249.658 258.649 249.84 258.74C250.066 258.831 250.157 259.012 250.112 259.239C249.885 259.103 249.658 259.012 249.431 258.921C249.25 258.831 248.978 258.74 248.705 258.604C248.433 258.74 248.161 258.876 247.934 258.967C247.662 259.103 247.435 259.239 247.163 259.42C244.803 260.782 242.716 262.37 240.81 264.275C240.629 264.457 240.493 264.593 240.311 264.729C240.13 264.865 239.948 265.001 239.767 265.183V265.228H239.449C239.358 265.319 239.313 265.41 239.267 265.501C239.222 265.591 239.177 265.682 239.086 265.773H239.222ZM231.871 295.584C232.144 295.72 232.371 295.811 232.552 295.901C232.371 295.811 232.144 295.72 231.871 295.584ZM235.229 290.184C234.821 290.91 234.639 291.5 234.685 291.863C234.73 292.226 234.957 292.589 235.456 292.997C235.411 292.544 235.365 292.044 235.365 291.591C235.32 291.137 235.274 290.683 235.229 290.184C235.456 290.003 235.501 289.821 235.32 289.64C235.274 289.776 235.275 289.867 235.275 289.957C235.32 290.048 235.274 290.139 235.229 290.184ZM236.454 275.256C236.409 275.211 236.318 275.12 236.273 275.12C236.227 275.075 236.182 275.029 236.137 274.984L236.454 275.256ZM237.407 275.8C237.089 275.8 236.772 275.619 236.5 275.301C236.953 275.347 237.226 275.574 237.362 275.846L237.407 275.8ZM237.815 293.406C239.993 292.362 241.718 291.046 243.079 289.458C244.395 287.87 245.211 286.01 245.529 283.786C245.801 281.971 244.939 280.61 242.943 279.703C242.534 280.066 242.171 280.474 241.854 280.882C241.536 281.291 241.219 281.745 240.901 282.244C240.039 283.514 239.222 284.785 238.496 286.1C237.77 287.416 237.226 288.778 236.772 290.184C236.681 290.456 236.636 290.729 236.636 290.956C236.59 291.228 236.59 291.455 236.59 291.727C236.636 292.044 236.681 292.362 236.817 292.634C236.953 292.907 237.18 293.133 237.498 293.36H237.815V293.406ZM238.315 276.345C237.861 276.3 237.589 276.073 237.407 275.8L237.362 275.846C237.589 275.891 237.815 275.937 237.952 275.982C238.088 276.027 238.224 276.163 238.315 276.39V276.345ZM239.222 276.889C238.768 276.844 238.451 276.617 238.315 276.345V276.39C238.768 276.39 239.086 276.572 239.177 276.889H239.222ZM240.13 277.434C239.721 277.389 239.404 277.207 239.222 276.935H239.177C239.404 276.98 239.63 277.026 239.767 277.071C239.903 277.116 240.039 277.252 240.13 277.479V277.434ZM239.54 293.179L239.494 293.224L239.585 293.133L239.54 293.179ZM241.037 277.978C240.583 277.933 240.266 277.706 240.13 277.434V277.479C240.493 277.479 240.81 277.615 241.037 277.978ZM240.356 292.725C240.356 292.68 240.356 292.68 240.402 292.68C240.447 292.68 240.447 292.68 240.447 292.634C240.538 292.589 240.674 292.453 240.81 292.317C240.856 292.271 240.901 292.271 240.946 292.271C240.992 292.271 241.037 292.271 241.082 292.226C241.945 291.681 242.716 291.092 243.351 290.456C244.032 289.821 244.622 289.05 245.075 288.233C245.257 287.915 245.393 287.552 245.529 287.189C245.665 286.826 245.665 286.418 245.574 285.964C245.529 286.146 245.438 286.327 245.393 286.418C245.348 286.509 245.302 286.645 245.257 286.781C244.939 287.643 244.531 288.415 244.032 289.141C243.487 289.867 242.897 290.502 242.217 291.092C241.99 291.318 241.763 291.545 241.536 291.772C241.309 291.954 241.082 292.181 240.856 292.362L240.538 292.68L240.356 292.725ZM241.082 293.133L240.992 293.179H241.037L241.082 293.133ZM242.67 278.432C242.67 278.478 242.625 278.568 242.58 278.614H242.852C242.807 278.568 242.807 278.568 242.761 278.523C242.761 278.523 242.716 278.478 242.67 278.432ZM244.712 280.429C244.576 280.383 244.44 280.293 244.349 280.156C244.168 279.793 244.032 279.567 243.986 279.476C243.896 279.385 243.669 279.294 243.351 279.249C243.623 279.703 243.986 280.02 244.44 280.111L244.712 280.429L244.803 280.519L244.712 280.429ZM248.07 291.772L248.115 291.863L248.025 291.818L248.07 291.772ZM248.388 278.523L248.342 278.478H248.388V278.523ZM248.388 279.113V278.523V278.568C248.433 278.659 248.524 278.75 248.524 278.841C248.569 278.931 248.615 279.022 248.66 279.113V279.067H248.342V279.113H248.388ZM248.705 279.93C248.841 280.111 248.932 280.293 248.978 280.429C249.023 280.474 249.023 280.519 249.068 280.565C249.114 280.565 249.068 280.565 249.023 280.519V280.429C248.978 280.247 248.887 280.066 248.66 279.884L248.705 279.93ZM248.796 288.006C249.023 287.643 249.25 287.28 249.386 286.872C249.522 286.509 249.567 286.1 249.522 285.647L249.341 285.737H249.295C249.25 286.1 249.159 286.463 249.068 286.872C248.932 287.28 248.841 287.643 248.796 288.006ZM249.522 281.472L249.477 281.382L249.431 281.472H249.522ZM249.93 270.945H249.567V270.9H249.885L249.93 270.945ZM250.157 270.673L249.84 270.855L249.885 270.9V270.582L249.84 270.628H250.203H250.157V270.673ZM250.475 270.401L250.157 270.719H250.203V270.356L250.157 270.401H250.52H250.475ZM250.792 270.083C250.747 270.174 250.611 270.265 250.475 270.401H250.52V270.083H250.475H250.838H250.792ZM251.155 269.539C251.065 269.63 251.019 269.72 250.974 269.856C250.929 269.947 250.883 270.038 250.792 270.129H250.838V269.539L250.792 269.584H251.155V269.539ZM251.382 269.312C251.337 269.357 251.292 269.403 251.246 269.403C251.246 269.448 251.201 269.493 251.11 269.493V269.539V269.221L251.065 269.267H251.428H251.382V269.312ZM251.745 268.994C251.655 269.04 251.518 269.176 251.382 269.312H251.428V268.949L251.382 268.994H251.745ZM251.745 268.767C251.745 268.858 251.791 268.904 251.836 268.904L251.791 268.949C251.745 268.949 251.745 268.949 251.745 268.994V268.767ZM252.335 267.951L252.426 268.132L252.335 268.178V268.223V267.86V267.951ZM255.103 258.694C255.058 259.012 255.058 259.239 255.012 259.466C255.012 259.647 254.967 259.874 254.922 260.01C254.922 260.192 254.922 260.373 254.876 260.555C254.876 260.736 254.831 261.009 254.785 261.326C254.967 260.872 255.148 260.555 255.239 260.282C255.33 260.01 255.421 259.829 255.421 259.647C255.421 259.466 255.421 259.33 255.33 259.194C255.33 259.057 255.239 258.876 255.103 258.694ZM255.239 258.286L255.194 258.331L255.239 258.377V258.286Z" fill="#FF522A"/>
<path d="M254.922 258.104C256.192 257.651 257.463 257.242 258.733 256.97C260.004 256.698 261.32 256.426 262.59 256.199C264.451 255.79 266.311 255.473 268.171 255.246C270.032 255.019 271.892 254.837 273.798 254.656C274.796 254.611 275.749 254.52 276.702 254.474C277.654 254.429 278.607 254.384 279.56 254.338C280.15 254.293 280.695 254.293 281.284 254.293C281.874 254.293 282.464 254.338 283.054 254.429C283.735 254.52 284.279 254.611 284.687 254.747C285.096 254.883 285.55 255.2 286.003 255.563C286.049 255.654 286.049 255.745 286.049 255.836C286.049 255.926 286.049 256.017 286.094 256.108C286.457 256.335 286.775 256.607 287.047 256.879C287.319 257.152 287.319 257.56 287.092 258.059C286.729 258.241 286.366 258.331 285.958 258.331C285.595 258.331 285.232 258.331 284.824 258.286C283.599 258.15 282.373 258.104 281.194 258.15C279.969 258.195 278.789 258.241 277.609 258.286C276.203 258.422 274.796 258.558 273.389 258.694C271.983 258.83 270.576 259.012 269.169 259.239C268.943 259.556 268.716 259.829 268.534 260.146C268.353 260.418 268.126 260.736 267.899 261.054H268.081C267.944 261.417 267.854 261.78 267.763 262.097C267.672 262.415 267.627 262.733 267.491 263.05C266.946 264.321 266.492 265.637 266.129 266.907C265.766 268.177 265.449 269.448 265.177 270.764C265.086 271.218 264.859 272.08 264.587 273.259C264.314 274.439 263.997 275.71 263.725 277.071C263.452 278.432 263.18 279.657 262.908 280.882C262.636 282.062 262.499 282.924 262.409 283.378C262.227 284.739 262.136 286.055 262.091 287.416C262.046 288.732 262.091 290.048 262.227 291.409C262.273 292.135 262.454 292.816 262.681 293.451C262.908 294.086 263.271 294.676 263.725 295.175C263.679 295.357 263.679 295.493 263.679 295.674C263.679 295.856 263.679 295.992 263.634 296.128C263.452 296.173 263.316 296.173 263.18 296.173C263.044 296.173 262.953 296.219 262.817 296.264C262.046 296.582 261.32 296.673 260.73 296.536C260.14 296.4 259.505 296.128 258.96 295.72C258.28 295.221 257.735 294.631 257.281 293.995C256.828 293.36 256.555 292.634 256.465 291.817C256.419 291.137 256.329 290.456 256.192 289.685C256.102 288.959 256.056 288.233 256.102 287.462C256.102 286.645 256.192 285.465 256.374 283.968C256.555 282.425 256.782 280.837 257.055 279.158C257.327 277.479 257.599 275.891 257.871 274.348C258.144 272.806 258.416 271.671 258.597 270.855C258.733 270.129 258.915 269.357 259.096 268.677C259.278 267.951 259.505 267.27 259.641 266.544V266.589C259.822 266.363 259.913 266.136 259.959 265.954C260.004 265.773 259.913 265.591 259.777 265.41C259.777 265.364 259.777 265.274 259.822 265.137C259.822 265.047 259.868 264.956 259.868 264.82H260.412V264.094C260.866 263.549 261.184 263.005 261.411 262.415C261.637 261.825 262 261.235 262.409 260.6C262 260.555 261.637 260.555 261.274 260.645C260.957 260.736 260.594 260.827 260.276 260.918C259.959 260.963 259.596 261.054 259.278 261.144C258.96 261.235 258.597 261.326 258.189 261.462C257.871 261.507 257.599 261.598 257.281 261.644C256.964 261.734 256.646 261.78 256.329 261.916C255.648 262.097 255.013 262.415 254.378 262.778C254.105 262.823 253.878 262.823 253.652 262.869C253.47 262.914 253.243 262.914 253.062 262.959C252.88 262.778 252.744 262.642 252.563 262.506C252.381 262.37 252.245 262.279 252.063 262.143C251.973 261.87 251.882 261.598 251.746 261.371C251.61 261.099 251.474 260.827 251.383 260.509C251.428 260.418 251.519 260.282 251.564 260.192C251.655 260.055 251.746 259.965 251.927 259.919C252.245 259.602 252.653 259.329 253.107 259.148C253.379 259.103 253.561 258.921 253.652 258.694C253.742 258.467 253.924 258.331 254.241 258.286C254.241 258.331 254.241 258.331 254.287 258.331C254.287 258.331 254.332 258.331 254.332 258.377L254.287 258.331C254.332 258.377 254.559 258.241 254.922 258.104L254.967 258.15L254.922 258.104ZM259.777 265.228C259.55 265.41 259.414 265.591 259.323 265.863C259.278 266.136 259.187 266.362 259.051 266.635C258.87 266.998 258.779 267.361 258.688 267.633C258.643 267.951 258.552 268.268 258.416 268.631C258.28 268.994 258.144 269.357 258.053 269.72C257.962 270.038 257.871 270.401 257.735 270.809C257.599 270.401 257.599 269.992 257.735 269.629C257.871 269.221 258.007 268.858 258.098 268.495C258.28 267.905 258.507 267.27 258.733 266.589C258.96 265.954 259.187 265.319 259.414 264.684C259.459 264.593 259.55 264.502 259.641 264.366C259.732 264.275 259.822 264.185 259.868 264.048C259.868 264.23 259.868 264.457 259.822 264.638C259.777 264.82 259.777 265.047 259.732 265.183V265.228H259.777Z" fill="#FF522A"/>
<path d="M269.713 273.668C269.668 273.713 269.577 273.804 269.532 273.895C269.441 273.985 269.396 274.076 269.396 274.121C269.033 275.12 268.715 276.163 268.443 277.207C268.171 278.251 267.989 279.34 267.853 280.428C267.808 280.973 267.717 281.517 267.672 282.017C267.626 282.516 267.535 283.151 267.49 283.786C267.309 282.969 267.263 282.198 267.354 281.427C267.399 280.701 267.535 279.975 267.672 279.294C267.944 277.797 268.307 276.345 268.761 274.938C269.214 273.532 269.759 272.125 270.485 270.673C270.712 270.219 270.984 269.72 271.347 269.266C271.665 268.813 271.982 268.359 272.3 267.86C272.617 267.406 273.116 267.043 273.797 266.862C274.251 266.771 274.705 266.816 275.113 266.998C275.521 267.179 275.975 267.361 276.429 267.542C276.52 267.769 276.656 267.996 276.837 268.223C276.837 268.359 276.837 268.45 276.792 268.495C276.338 269.493 275.93 270.492 275.612 271.49C275.294 272.488 275.022 273.532 274.75 274.575C274.568 275.256 274.432 275.891 274.342 276.526C274.251 277.116 274.251 277.797 274.342 278.477C274.387 278.704 274.387 278.931 274.342 279.203C274.296 279.43 274.251 279.657 274.251 279.884C274.069 281.563 274.251 283.242 274.931 284.966C275.022 285.238 275.158 285.51 275.294 285.828C275.431 286.1 275.612 286.418 275.884 286.69C276.247 286.509 276.565 286.327 276.746 286.1C276.928 285.873 277.155 285.647 277.427 285.374C278.017 284.648 278.471 283.922 278.879 283.151C279.287 282.38 279.605 281.563 279.877 280.701C280.376 279.158 280.875 277.57 281.42 276.027C281.919 274.484 282.418 272.942 282.963 271.399C283.28 270.401 283.553 269.448 283.87 268.45C284.188 267.451 284.505 266.499 284.823 265.546C284.959 265.228 285.095 264.956 285.186 264.638C285.277 264.321 285.504 264.094 285.776 263.867C286.23 263.776 286.683 263.776 287.137 263.867C287.546 263.958 287.999 264.048 288.453 264.139C288.634 264.321 288.816 264.457 288.997 264.548C289.179 264.638 289.406 264.774 289.587 264.91C289.905 265.818 289.95 266.816 289.769 267.905C289.451 270.265 289.179 272.579 288.997 274.893C288.816 277.207 288.68 279.521 288.634 281.88C288.589 282.879 288.589 283.877 288.68 284.921C288.725 285.964 288.816 286.962 288.907 287.961C288.952 288.913 289.179 289.821 289.451 290.683C289.769 291.545 290.313 292.317 291.085 293.043C290.994 293.224 290.858 293.36 290.767 293.542C290.631 293.678 290.54 293.859 290.449 294.041C290.132 294.041 289.86 294.041 289.542 294.086C289.224 294.086 288.952 294.086 288.634 293.995C288.362 293.95 288.09 293.905 287.818 293.814C287.546 293.723 287.273 293.632 287.001 293.587C286.32 293.133 285.776 292.634 285.413 292.044C285.05 291.454 284.732 290.819 284.505 290.139C284.233 289.367 284.052 288.596 283.916 287.824C283.779 287.053 283.689 286.282 283.598 285.51C283.598 285.193 283.598 284.966 283.553 284.784C283.371 284.83 283.235 284.875 283.19 284.966C283.144 285.057 283.144 285.193 283.19 285.329C283.235 286.146 283.326 286.962 283.371 287.779C283.416 288.596 283.598 289.413 283.87 290.229C283.916 290.32 283.961 290.456 283.961 290.547C283.961 290.683 283.916 290.774 283.916 290.865H283.961C283.87 290.819 283.825 290.728 283.779 290.683C283.734 290.638 283.643 290.547 283.643 290.502C283.553 289.957 283.462 289.413 283.326 288.913C283.235 288.369 283.099 287.87 282.963 287.325C282.917 287.144 282.917 286.917 282.872 286.736C282.827 286.554 282.827 286.327 282.781 286.055C282.509 286.055 282.373 286.1 282.327 286.191C282.282 286.282 282.237 286.373 282.191 286.463C282.01 286.645 281.874 286.826 281.783 287.008C281.511 287.371 281.193 287.734 280.876 288.051C280.558 288.369 280.15 288.641 279.65 288.777V288.732C278.834 289.095 277.972 289.322 277.109 289.413C276.247 289.503 275.34 289.458 274.478 289.276C273.479 289.095 272.572 288.823 271.665 288.46C270.757 288.097 270.031 287.462 269.441 286.554C269.169 286.236 268.942 285.783 268.761 285.238C268.624 284.921 268.715 284.648 268.942 284.376C268.897 284.558 268.897 284.694 268.942 284.83C268.987 284.966 269.078 285.102 269.26 285.238C269.305 285.42 269.35 285.647 269.396 285.828C269.441 286.01 269.623 286.146 269.895 286.282C269.94 286.373 269.986 286.463 270.031 286.554C270.031 286.645 270.076 286.736 270.167 286.826L270.213 286.872L270.122 286.826C270.076 286.736 270.031 286.645 270.031 286.554C270.031 286.463 269.986 286.373 269.94 286.282C269.804 286.1 269.668 285.964 269.577 285.783C269.487 285.601 269.396 285.465 269.26 285.284C269.214 285.102 269.124 284.966 269.124 284.83C269.078 284.694 269.033 284.558 268.987 284.376C268.897 283.741 268.851 283.106 268.715 282.47C268.624 281.835 268.579 281.2 268.67 280.519C268.761 279.566 268.897 278.614 269.078 277.706C269.26 276.753 269.441 275.846 269.668 274.938C269.713 274.757 269.759 274.575 269.804 274.394C269.623 273.985 269.668 273.804 269.713 273.668C269.759 273.622 269.759 273.532 269.804 273.395C269.804 273.305 269.85 273.214 269.895 273.123C269.85 273.078 269.804 273.078 269.759 273.078V273.668H269.713ZM270.076 272.397L270.167 272.306L270.076 272.261V272.397ZM271.528 280.156C271.574 279.929 271.574 279.702 271.619 279.43C271.665 279.203 271.71 278.977 271.755 278.704C271.801 278.205 271.891 277.706 272.073 277.162C272.118 276.935 272.118 276.708 272.164 276.436C272.209 276.209 272.254 275.982 272.3 275.71C272.345 275.437 272.436 275.165 272.481 274.893C272.527 274.621 272.617 274.348 272.663 274.076L273.116 272.715C273.298 272.17 273.434 271.671 273.616 271.218C273.661 270.991 273.752 270.764 273.888 270.537C273.979 270.31 274.069 270.083 274.205 269.856C274.251 269.675 274.387 269.448 274.478 269.176C274.614 268.949 274.614 268.631 274.568 268.268C274.024 269.13 273.616 269.992 273.343 270.809C273.071 271.626 272.754 272.443 272.481 273.259C272.118 274.621 271.755 275.982 271.483 277.343C271.211 278.704 271.12 280.156 271.302 281.608L271.528 280.156ZM279.151 289.14C279.106 289.186 279.106 289.186 279.061 289.186C279.015 289.231 279.015 289.231 279.015 289.186C279.015 289.14 279.061 289.14 279.151 289.095V289.14ZM279.424 288.823C279.424 288.777 279.424 288.777 279.469 288.777C279.469 288.777 279.514 288.777 279.514 288.732C279.469 288.732 279.469 288.732 279.469 288.687V288.596V288.55V288.823L279.151 289.14V289.095C279.242 288.959 279.333 288.868 279.424 288.823ZM279.741 285.556C280.104 285.329 280.286 285.057 280.286 284.739C280.875 284.149 281.329 283.469 281.738 282.652C282.146 281.835 282.327 281.109 282.327 280.474C282.01 281.154 281.647 281.835 281.329 282.47C281.012 283.151 280.694 283.786 280.331 284.467C280.286 284.512 280.286 284.558 280.286 284.603C280.286 284.603 280.331 284.648 280.331 284.739C280.013 284.875 279.787 285.147 279.741 285.601V285.556ZM284.006 291.5C283.825 291.409 283.734 291.273 283.734 291.137C283.734 291.001 283.734 290.865 283.779 290.683H283.734C283.916 290.819 284.006 290.955 284.006 291.091C284.006 291.228 284.006 291.364 284.052 291.545V291.5H284.006ZM284.006 291.591C284.142 291.772 284.233 291.954 284.324 292.09H284.369C284.188 292.044 284.052 291.954 284.052 291.817C284.052 291.727 284.006 291.636 284.006 291.5V291.591ZM285.549 290.456C285.549 290.502 285.549 290.547 285.594 290.547C285.594 290.592 285.594 290.547 285.549 290.502C285.594 290.592 285.594 290.592 285.594 290.547C285.549 290.502 285.549 290.502 285.549 290.456C285.504 290.139 285.413 289.776 285.368 289.458C285.322 289.14 285.277 288.777 285.186 288.414C285.095 288.097 285.05 287.824 285.05 287.507C285.005 287.189 284.959 286.872 284.959 286.554C284.914 286.236 284.914 285.873 284.914 285.556C284.914 285.238 284.914 284.921 284.868 284.558C284.823 284.24 284.823 283.877 284.823 283.605C284.823 283.287 284.823 283.015 284.778 282.697C284.732 282.38 284.687 282.017 284.732 281.699C284.778 281.381 284.687 280.973 284.46 280.519C284.415 280.882 284.369 281.154 284.369 281.381C284.324 281.563 284.324 281.744 284.324 281.926C284.369 282.697 284.369 283.469 284.369 284.24C284.369 285.011 284.415 285.737 284.46 286.509C284.505 287.008 284.596 287.507 284.732 288.006C284.823 288.505 284.914 289.004 285.05 289.458C285.095 289.639 285.141 289.866 285.186 290.048C285.186 290.139 285.322 290.32 285.549 290.456ZM284.642 292.634C284.46 292.589 284.369 292.498 284.369 292.362C284.369 292.271 284.369 292.18 284.415 292.044H284.369C284.415 292.135 284.505 292.317 284.642 292.589V292.634ZM286.094 293.95C285.368 293.769 284.868 293.315 284.596 292.634H284.551C284.823 292.861 285.095 293.088 285.322 293.315C285.594 293.496 285.821 293.723 286.094 293.95ZM284.959 272.261C285.413 271.626 285.549 270.9 285.458 270.129C285.368 270.31 285.277 270.537 285.186 270.718C285.095 270.9 285.05 271.127 285.005 271.308C284.959 271.49 284.959 271.626 284.959 271.762C284.959 271.944 284.959 272.125 284.959 272.261C284.778 272.352 284.732 272.488 284.732 272.624C284.732 272.76 284.778 272.987 284.868 273.259C284.914 272.987 284.914 272.76 284.914 272.624C284.868 272.488 284.914 272.397 284.959 272.261Z" fill="#FF522A"/>
<path d="M291.765 292.861C291.674 292.816 291.629 292.725 291.629 292.589C291.629 292.498 291.629 292.226 291.674 291.772C291.856 292.226 292.128 292.725 292.4 293.179C292.31 293.133 292.173 293.043 292.083 293.043C291.901 292.997 291.81 292.952 291.765 292.861ZM317.311 266.998C317.583 267.996 317.764 268.994 317.855 269.993C317.946 270.991 317.901 272.034 317.764 273.033C317.401 275.664 316.721 278.114 315.768 280.474C314.815 282.833 313.59 285.102 312.047 287.325C311.094 288.596 310.005 289.73 308.826 290.638C307.601 291.545 306.33 292.362 304.969 293.043C303.018 293.995 300.931 294.54 298.753 294.676C298.48 294.721 298.208 294.721 297.891 294.676C297.573 294.631 297.301 294.631 296.983 294.585C296.756 294.585 296.529 294.585 296.302 294.54C296.121 294.54 295.849 294.495 295.576 294.449C295.44 294.404 295.304 294.268 295.213 294.177C295.077 294.041 294.987 293.95 294.85 293.905C294.533 293.859 294.17 293.769 293.898 293.723C293.58 293.678 293.308 293.633 292.99 293.542C292.899 293.496 292.809 293.451 292.718 293.406C292.627 293.36 292.536 293.315 292.491 293.224H293.353C293.353 292.952 293.308 292.77 293.172 292.634C293.036 292.498 292.899 292.362 292.763 292.181C292.582 291.908 292.4 291.636 292.31 291.364C292.219 291.092 292.219 290.774 292.4 290.366C292.582 290.456 292.718 290.502 292.809 290.502C292.899 290.547 293.036 290.592 293.172 290.638C293.308 290.592 293.444 290.502 293.625 290.456C293.762 290.411 293.898 290.32 293.988 290.275C294.442 290.592 294.85 290.865 295.213 291.137C295.622 291.409 295.985 291.681 296.393 291.954C296.938 292.044 297.482 291.999 297.981 291.818C298.48 291.681 299.025 291.5 299.569 291.318C299.751 291.273 299.887 291.182 300.069 291.137C300.205 291.092 300.386 291.001 300.568 290.955C300.477 290.638 300.295 290.502 300.069 290.502C299.842 290.502 299.66 290.456 299.524 290.411C299.343 290.366 299.206 290.275 299.025 290.275C298.843 290.229 298.707 290.184 298.526 290.139C298.254 289.957 297.981 289.776 297.754 289.594C297.482 289.413 297.255 289.186 296.983 288.914C296.802 288.732 296.711 288.46 296.665 288.142C296.62 287.825 296.575 287.507 296.529 287.189C296.575 286.146 296.575 285.102 296.62 284.059C296.665 283.015 296.756 281.971 296.938 280.928C297.528 276.073 298.571 271.354 300.023 266.726C300.069 266.544 300.114 266.408 300.159 266.226C300.159 266.045 300.205 265.818 300.295 265.546C299.706 265.727 299.297 266.045 299.025 266.499C298.753 266.907 298.39 267.27 297.936 267.542C297.618 267.406 297.346 267.27 297.028 267.179C296.756 267.089 296.529 266.907 296.348 266.68C296.257 266.544 296.257 266.408 296.257 266.226C296.257 266.09 296.302 265.909 296.348 265.773C296.393 265.637 296.439 265.455 296.439 265.319C296.439 265.183 296.439 265.001 296.348 264.865C296.166 264.956 296.076 265.047 296.03 265.183C295.985 265.274 295.894 265.319 295.849 265.319C295.803 265.364 295.758 265.41 295.667 265.455L295.576 265.5L295.622 265.455C295.667 265.41 295.758 265.319 295.803 265.274C295.849 265.228 295.939 265.183 295.985 265.092C296.03 265.001 296.121 264.911 296.257 264.82H296.302C296.348 264.729 296.393 264.638 296.439 264.502C296.439 264.411 296.484 264.321 296.575 264.23C297.709 263.186 298.889 262.279 300.159 261.508C301.43 260.736 302.791 260.192 304.334 259.783C305.423 259.556 306.602 259.466 307.918 259.602C309.234 259.738 310.505 260.056 311.73 260.6C312.955 261.145 314.044 261.961 315.042 263.005C316.04 264.048 316.812 265.41 317.311 266.998ZM292.446 293.179L292.491 293.224H292.446L292.4 293.179H292.446ZM297.528 295.13H299.343L299.297 295.175H297.482L297.528 295.13ZM313.998 273.033C314.498 270.673 314.407 268.404 313.681 266.181C313.59 265.818 313.454 265.455 313.272 265.183C313.091 264.865 312.955 264.593 312.773 264.275C312.546 263.822 312.229 263.413 311.866 263.141C311.503 262.869 311.049 262.642 310.595 262.46C310.595 262.597 310.55 262.778 310.505 263.05C310.142 262.869 309.779 262.642 309.416 262.46C309.098 262.279 308.69 262.097 308.281 261.916C307.828 262.007 307.328 262.097 306.92 262.097C306.466 262.143 306.058 262.279 305.604 262.551C305.65 262.778 305.74 263.005 305.876 263.232C305.967 263.413 306.058 263.64 306.149 263.822C306.058 264.548 305.922 265.228 305.786 265.954C305.65 266.635 305.513 267.361 305.332 268.087C305.15 268.949 304.969 269.811 304.787 270.673C304.606 271.49 304.379 272.352 304.243 273.259C303.925 275.347 303.562 277.389 303.245 279.43C302.927 281.472 302.609 283.514 302.292 285.601C302.201 286.237 302.11 286.872 302.11 287.507C302.065 288.142 302.156 288.732 302.428 289.367C302.473 289.413 302.473 289.458 302.428 289.503C302.383 289.549 302.383 289.64 302.383 289.685C302.246 289.866 302.065 290.003 301.793 290.048C301.521 290.093 301.43 290.32 301.475 290.683C301.793 290.638 302.11 290.502 302.428 290.32C302.7 290.139 303.018 289.957 303.335 289.776C304.334 289.095 305.196 288.324 305.967 287.507C306.739 286.645 307.465 285.737 308.1 284.739C310.505 280.837 312.093 276.708 312.773 272.397C312.864 271.989 312.909 271.581 312.909 271.172C312.909 270.764 312.909 270.356 312.909 269.947C312.819 269.448 312.819 268.949 312.773 268.45C312.773 267.951 312.728 267.497 312.683 266.998C312.274 266.544 312.093 266.045 312.183 265.455C311.911 265.274 311.73 265.001 311.684 264.548C311.367 264.321 311.14 264.003 311.14 263.64C311.503 263.822 311.684 264.094 311.684 264.548C312.002 264.729 312.183 265.001 312.229 265.455C312.41 265.682 312.546 265.909 312.592 266.181C312.683 266.408 312.728 266.68 312.728 266.998C312.728 267.043 312.728 267.134 312.773 267.134C312.819 267.179 312.819 267.225 312.864 267.27C313.046 268.359 313.182 269.448 313.182 270.537C313.182 271.626 313.091 272.76 312.819 273.849L312.047 277.207C312.183 277.071 312.32 276.935 312.41 276.844C312.546 276.708 312.637 276.617 312.683 276.481C312.683 276.708 312.683 276.935 312.637 277.162C312.637 277.389 312.592 277.615 312.546 277.842C312.592 277.797 312.683 277.706 312.683 277.661C312.728 277.615 312.773 277.525 312.819 277.389C313.091 276.663 313.318 275.937 313.499 275.211C313.726 274.53 313.862 273.804 313.998 273.033ZM310.55 262.415C310.505 262.188 310.368 262.143 310.187 262.37C310.368 262.324 310.459 262.37 310.55 262.415ZM310.913 282.017C310.913 281.926 310.958 281.79 311.004 281.654C310.958 281.744 310.868 281.79 310.868 281.79C310.822 281.835 310.822 281.881 310.913 282.017ZM311.049 281.518C311.276 281.336 311.412 281.109 311.412 280.746C311.321 280.882 311.276 281.018 311.231 281.109C311.185 281.291 311.14 281.427 311.049 281.518ZM311.457 278.84L311.412 278.795L311.367 278.84H311.457ZM311.457 280.565C311.82 280.202 312.093 279.793 312.229 279.385C312.365 278.977 312.456 278.523 312.546 278.024C312.229 278.387 312.002 278.795 311.866 279.249C311.73 279.703 311.594 280.111 311.457 280.565ZM311.73 277.888C311.775 277.888 311.82 277.888 311.82 277.933C311.82 277.933 311.82 277.978 311.866 277.978C311.911 277.888 311.911 277.797 311.911 277.706C311.911 277.661 311.911 277.57 311.957 277.434C311.957 277.525 311.866 277.661 311.73 277.888ZM312.728 276.39C312.683 276.436 312.683 276.436 312.683 276.481V276.436L312.728 276.39ZM312.773 275.574C313 275.846 313 276.118 312.728 276.39C312.728 276.209 312.728 276.073 312.728 275.982C312.728 275.891 312.773 275.755 312.773 275.574Z" fill="#FF522A"/>
<path d="M335.461 260.055C335.506 260.191 335.597 260.327 335.733 260.509C335.824 260.645 335.915 260.781 336.005 260.872C335.96 261.144 335.869 261.326 335.733 261.462C335.597 261.598 335.416 261.689 335.234 261.734C334.826 261.87 334.417 262.006 334.009 262.097C333.601 262.188 333.192 262.324 332.739 262.46C332.33 262.596 331.922 262.732 331.513 262.823C331.105 262.914 330.651 263.005 330.288 263.141L328.609 263.73C328.337 264.32 328.156 264.91 328.11 265.5C328.02 266.09 327.974 266.68 327.974 267.315C328.11 266.952 328.292 266.408 328.564 265.727C328.564 265.908 328.564 266.135 328.609 266.317C328.609 266.498 328.609 266.68 328.564 266.861C328.02 269.765 327.475 272.669 326.976 275.573C326.477 278.477 325.978 281.381 325.479 284.376C325.297 285.193 325.161 286.009 325.07 286.826C324.98 287.643 324.889 288.459 324.753 289.276C324.934 289.685 325.206 290.002 325.524 290.184C325.842 290.365 326.159 290.592 326.522 290.728C326.568 290.91 326.613 291.091 326.704 291.318C326.84 291.363 326.976 291.454 327.157 291.5C327.339 291.545 327.475 291.636 327.657 291.772C327.702 291.863 327.793 291.908 327.838 292.044C327.883 292.18 327.974 292.271 328.02 292.407C327.838 292.498 327.702 292.543 327.566 292.634C327.43 292.725 327.339 292.77 327.203 292.77C325.842 292.952 324.526 293.133 323.165 293.36C321.849 293.587 320.533 293.859 319.172 294.177C318.899 294.222 318.627 294.267 318.31 294.267C318.037 294.267 317.72 294.267 317.447 294.313C317.266 294.131 317.13 293.995 316.948 293.814C316.767 293.677 316.631 293.496 316.449 293.315C316.268 293.269 316.086 293.269 315.859 293.269C315.632 293.269 315.406 293.269 315.133 293.269C314.952 293.088 314.77 292.861 314.589 292.679C314.407 292.498 314.18 292.271 313.908 292.044C314.135 291.681 314.407 291.409 314.725 291.273C315.043 291.137 315.36 291 315.678 290.91C315.995 290.819 316.313 290.728 316.676 290.683C317.039 290.637 317.357 290.501 317.629 290.274C317.674 288.505 317.901 286.781 318.355 285.147C318.809 283.468 319.262 281.835 319.761 280.156C320.351 277.887 321.032 275.619 321.713 273.395C322.393 271.172 323.074 268.949 323.754 266.68C323.8 266.408 323.891 266.135 323.936 265.908C323.981 265.636 324.072 265.319 324.208 264.956C323.891 265.046 323.618 265.137 323.437 265.182C323.21 265.228 322.983 265.273 322.756 265.364C322.302 265.545 321.803 265.591 321.395 265.545C320.941 265.5 320.533 265.273 320.17 264.774C319.898 264.729 319.625 264.683 319.398 264.683C319.126 264.683 318.899 264.683 318.627 264.638C318.491 264.502 318.355 264.366 318.264 264.23C318.173 264.093 318.037 263.957 317.946 263.776C317.992 263.73 318.037 263.64 318.037 263.549C318.037 263.458 318.083 263.413 318.128 263.368C318.4 263.186 318.627 263.05 318.854 262.914C319.081 262.778 319.262 262.687 319.535 262.596C322.212 261.326 325.025 260.237 327.974 259.329C328.337 259.193 328.746 259.057 329.109 258.966C329.517 258.875 329.88 258.739 330.243 258.558C330.198 258.331 330.152 258.195 330.061 258.195C329.971 258.195 329.88 258.195 329.789 258.286C328.655 258.649 327.475 259.057 326.341 259.42C325.206 259.828 324.072 260.191 322.938 260.6C322.484 260.781 322.076 260.963 321.622 261.144C321.168 261.326 320.714 261.507 320.261 261.734C320.079 261.779 319.898 261.779 319.716 261.825C319.535 261.825 319.353 261.87 319.172 261.961C319.625 261.689 320.034 261.416 320.487 261.19C320.896 260.963 321.35 260.736 321.803 260.464C323.119 259.828 324.48 259.238 325.842 258.739C327.203 258.24 328.564 257.741 329.971 257.242C330.243 257.197 330.515 257.106 330.833 257.06C331.15 257.015 331.468 257.06 331.831 257.197C331.695 257.378 331.604 257.514 331.513 257.696C331.423 257.832 331.332 258.013 331.241 258.195C331.559 258.467 331.831 258.558 332.149 258.422C332.421 258.286 332.784 258.24 333.147 258.286C333.464 258.603 333.873 258.875 334.327 259.012C334.735 259.284 335.098 259.601 335.461 260.055ZM319.081 262.097H319.172L319.081 262.142L319.035 262.188L319.081 262.097ZM327.702 264.774C327.747 264.683 327.747 264.547 327.793 264.456C327.793 264.32 327.838 264.23 327.883 264.184C327.43 264.819 326.749 267.043 325.842 270.809C324.98 274.575 323.891 279.611 322.665 285.873C322.529 286.463 322.393 287.053 322.302 287.643C322.166 288.233 322.121 288.868 322.121 289.548C322.257 289.412 322.302 289.367 322.302 289.412C323.074 285.283 323.936 281.154 324.843 277.071C325.751 272.987 326.704 268.903 327.702 264.774ZM327.475 268.858C327.52 268.676 327.52 268.54 327.52 268.404C327.52 268.359 327.52 268.359 327.475 268.359V268.858Z" fill="#FF522A"/>
<path d="M343.582 287.733C343.31 288.006 343.038 288.278 342.766 288.505C342.494 288.732 342.221 289.004 341.904 289.276C340.905 290.093 339.726 290.501 338.41 290.501C338.228 290.501 338.001 290.501 337.82 290.501C337.638 290.501 337.412 290.501 337.275 290.547C337.185 290.547 337.003 290.637 336.822 290.728C337.003 291.046 337.23 291.409 337.502 291.681C337.275 291.545 337.049 291.409 336.776 291.227C336.549 291.091 336.232 290.91 335.914 290.728C335.506 290.683 335.052 290.547 334.553 290.365C334.054 290.184 333.555 289.957 333.101 289.684C332.057 289.185 331.286 288.323 330.878 287.143C330.651 286.599 330.469 286.054 330.379 285.465C330.288 284.875 330.197 284.33 330.197 283.74C330.152 282.47 330.152 281.199 330.333 279.929C330.469 278.704 330.696 277.433 330.968 276.208C331.014 275.755 331.15 275.346 331.241 274.983C331.377 274.575 331.377 274.166 331.331 273.667C331.286 273.531 331.331 273.395 331.377 273.214C331.422 273.077 331.513 272.896 331.558 272.76C331.967 271.489 332.466 270.31 333.101 269.175C333.736 268.041 334.462 266.997 335.37 265.999C335.823 265.455 336.186 264.865 336.368 264.184C337.049 262.324 338.364 261.144 340.27 260.736C341.268 260.554 342.267 260.6 343.174 260.781C344.898 261.28 346.35 262.052 347.485 263.141C348.619 264.184 349.39 265.681 349.708 267.633C350.207 270.627 350.071 273.577 349.254 276.481C348.801 278.295 348.165 280.02 347.439 281.653C346.713 283.287 345.851 284.92 344.898 286.463C344.808 286.644 344.671 286.78 344.581 286.917C344.445 287.053 344.354 287.189 344.263 287.37V287.416H343.9L343.945 287.37C343.809 287.506 343.673 287.597 343.582 287.688V287.733ZM336.549 270.627C336.595 270.582 336.595 270.536 336.64 270.491C336.686 270.491 336.64 270.491 336.595 270.582C336.595 270.536 336.595 270.491 336.595 270.537C336.595 270.582 336.595 270.627 336.549 270.673C336.459 270.763 336.413 270.854 336.413 270.945C336.368 271.081 336.323 271.172 336.277 271.217C336.232 271.399 336.141 271.535 336.005 271.716C335.914 271.852 335.823 272.034 335.733 272.215C334.825 274.529 334.19 276.98 333.918 279.566C333.736 281.063 333.6 282.515 333.6 284.013C333.6 284.466 333.646 284.965 333.782 285.465C333.918 285.964 334.009 286.463 334.099 286.962C334.145 287.189 334.281 287.416 334.417 287.643C334.553 287.869 334.78 288.006 335.098 288.096V288.187L335.052 288.142C335.007 287.96 335.007 287.824 335.007 287.643C335.007 287.506 334.961 287.325 334.916 287.143C334.689 286.463 334.508 285.782 334.462 285.011C334.372 284.285 334.372 283.559 334.372 282.833C334.326 281.109 334.462 279.43 334.735 277.796C335.007 276.163 335.415 274.575 335.869 272.941C335.914 272.669 336.005 272.397 336.05 272.079C336.096 271.807 336.187 271.489 336.232 271.172C336.413 271.126 336.504 271.081 336.504 270.945C336.504 270.899 336.549 270.763 336.549 270.627ZM342.993 264.547C342.856 264.502 342.72 264.411 342.63 264.366C342.494 264.32 342.403 264.229 342.267 264.093C341.677 264.638 341.268 265.228 341.178 265.908C341.042 266.589 341.042 267.315 341.132 268.086C340.951 267.996 340.769 267.905 340.588 267.859C340.452 267.814 340.27 267.769 340.089 267.678C339.408 268.676 338.864 269.674 338.364 270.718C337.911 271.762 337.548 272.851 337.275 273.94C337.003 275.074 336.776 276.208 336.549 277.343C336.323 278.477 336.186 279.657 336.096 280.791C335.914 282.606 335.96 284.421 336.277 286.145C336.323 286.372 336.413 286.599 336.459 286.871C336.504 287.098 336.686 287.325 336.958 287.461C337.366 287.189 337.729 286.871 338.001 286.508C338.274 286.145 338.591 285.782 338.864 285.419C339.953 284.013 340.905 282.515 341.677 280.973C342.448 279.43 343.129 277.796 343.673 276.118C344.082 274.802 344.399 273.44 344.626 272.079C344.853 270.718 344.898 269.311 344.808 267.859C344.762 267.224 344.671 266.589 344.535 265.954C344.445 265.364 344.263 264.729 343.991 264.184C343.9 263.912 343.719 263.64 343.492 263.322C343.265 263.503 343.038 263.594 342.902 263.685C342.947 263.866 342.947 264.003 342.993 264.139C343.038 264.275 343.038 264.411 343.083 264.592V264.547H342.993ZM337.412 264.093C336.912 264.048 336.64 264.32 336.64 264.865C336.822 264.683 336.958 264.547 337.094 264.411C337.23 264.275 337.321 264.184 337.412 264.093ZM337.412 291.726C337.502 291.772 337.593 291.772 337.729 291.772C337.865 291.772 337.911 291.772 338.047 291.817C338.001 291.862 338.001 291.908 338.001 291.953C337.82 291.862 337.638 291.772 337.412 291.726ZM339.862 291.681C339.68 291.999 339.317 292.044 338.773 291.817C339.045 291.772 339.272 291.772 339.453 291.772C339.635 291.772 339.771 291.772 339.907 291.726L339.862 291.681ZM340.043 264.592C339.68 264.774 339.544 265.046 339.68 265.455C339.862 265.364 339.953 265.228 339.998 265.092C339.998 264.91 340.043 264.774 340.043 264.592ZM339.862 291.681C340.089 291.636 340.316 291.545 340.452 291.409L340.497 291.454C340.406 291.499 340.316 291.545 340.179 291.59C340.089 291.59 339.998 291.636 339.862 291.726V291.681ZM340.86 291.091C340.724 291.227 340.633 291.363 340.542 291.454L340.497 291.409L340.86 291.046V291.091ZM341.722 290.501C341.495 290.864 341.178 291.046 340.86 291.046V291.091C341.087 290.728 341.405 290.501 341.768 290.501H341.722ZM342.085 290.229C341.949 290.365 341.858 290.456 341.768 290.501H341.722C341.768 290.456 341.858 290.41 341.904 290.365C341.949 290.32 341.994 290.274 342.085 290.184V290.229ZM342.085 290.184C342.131 290.138 342.176 290.047 342.221 290.047C342.267 290.002 342.312 289.957 342.403 289.911H342.448C342.403 290.002 342.312 290.047 342.267 290.093C342.221 290.138 342.176 290.184 342.085 290.274V290.184ZM342.403 289.911C342.357 289.73 342.403 289.548 342.539 289.412C342.675 289.276 342.811 289.14 342.993 289.004H342.947C342.947 289.185 342.902 289.367 342.811 289.503C342.72 289.639 342.584 289.775 342.403 289.911ZM343.219 288.732L342.947 289.004H342.902L343.219 288.686V288.732ZM342.993 264.592C343.174 264.683 343.265 264.865 343.265 265.182H343.31C343.129 265.137 343.038 265.046 343.038 264.91C343.038 264.819 342.993 264.683 342.993 264.502V264.592ZM343.582 266.044C343.401 265.954 343.31 265.818 343.265 265.681C343.22 265.545 343.22 265.364 343.265 265.182H343.219C343.401 265.318 343.537 265.455 343.537 265.636C343.537 265.818 343.537 265.954 343.492 266.135L343.582 266.044ZM343.582 288.369C343.537 288.459 343.446 288.505 343.401 288.55C343.356 288.595 343.31 288.641 343.219 288.732V288.686C343.265 288.641 343.356 288.55 343.401 288.55C343.446 288.459 343.537 288.414 343.582 288.369ZM343.537 266.09C343.582 266.135 343.673 266.226 343.719 266.317C343.764 266.407 343.809 266.498 343.855 266.589C343.855 266.68 343.809 266.816 343.719 266.952C343.673 266.77 343.673 266.634 343.628 266.498C343.628 266.362 343.582 266.226 343.582 266.044L343.537 266.09ZM343.582 287.733H343.537H343.9H343.855C343.809 287.869 343.719 288.051 343.582 288.323V287.733ZM344.218 287.461C344.172 287.506 344.082 287.597 344.036 287.597C343.991 287.643 343.945 287.688 343.855 287.733H343.9V287.416L343.855 287.461H344.218ZM344.944 265.092L344.898 265.137V265.182C344.898 265.228 344.898 265.273 344.944 265.273V265.092ZM345.261 266.634V266.135H345.216V266.634H345.261ZM345.352 281.063H345.397C345.443 281.018 345.443 280.927 345.488 280.882C345.488 280.836 345.488 280.836 345.443 280.927L345.397 281.018L345.352 281.063ZM345.579 268.041L345.534 268.086V271.081H345.579V268.041ZM345.987 279.43C346.169 279.384 346.26 279.339 346.26 279.248C346.26 279.158 346.26 279.021 346.305 278.885C346.486 278.795 346.577 278.658 346.623 278.477C346.668 278.296 346.668 278.159 346.668 277.978C346.713 277.796 346.804 277.66 346.94 277.479C347.031 277.297 347.122 277.161 347.212 276.98C347.485 276.163 347.712 275.346 347.893 274.484C348.075 273.622 348.211 272.76 348.347 271.898C348.483 270.854 348.483 269.811 348.301 268.812C348.165 267.814 347.938 266.816 347.712 265.818C347.666 265.591 347.575 265.364 347.439 265.137C347.349 264.91 347.212 264.683 347.076 264.456C347.031 264.411 346.94 264.32 346.804 264.184C346.713 264.093 346.577 263.957 346.396 263.776C346.441 264.048 346.532 264.229 346.532 264.366C346.577 264.502 346.623 264.638 346.668 264.774C346.986 265.545 347.258 266.362 347.349 267.179C347.485 267.996 347.53 268.858 347.575 269.765C347.621 270.899 347.621 272.034 347.485 273.168C347.349 274.303 347.167 275.392 346.895 276.526C346.849 276.798 346.804 277.07 346.759 277.297C346.759 277.524 346.713 277.751 346.623 278.023C346.441 278.159 346.305 278.296 346.305 278.477C346.305 278.658 346.305 278.795 346.305 278.976L345.987 279.566C345.942 279.657 345.897 279.657 345.897 279.702C345.851 279.702 345.897 279.702 345.942 279.611V279.43H345.987Z" fill="#FF522A"/>
</svg>
