<svg width="96" height="49" viewBox="0 0 96 49" fill="none" xmlns="http://www.w3.org/2000/svg">
<path d="M95.4188 41.9499C96.1534 42.3366 95.4188 41.5247 94.7615 40.8674L93.7949 40.79L95.4188 41.9499Z" fill="#FF522A"/>
<path d="M91.7859 39.282L90.7033 38.8953C90.3553 38.7793 89.9687 38.6634 89.582 38.5474C90.0847 38.7407 90.626 38.934 91.0899 39.166C92.4432 40.4032 90.5873 39.514 89.9687 39.2433C92.5205 40.7125 91.2446 39.282 91.7859 39.282Z" fill="#FF522A"/>
<path d="M87.7619 37.3489C86.486 36.653 86.6793 37.1556 87.1819 37.5422C87.3366 37.4262 88.2258 37.7356 87.7619 37.3489Z" fill="#FF522A"/>
<path d="M5.87305 37.6585C5.98904 37.6199 6.18236 37.5039 6.10503 37.6585C6.37568 37.3492 6.37567 37.1946 5.87305 37.6585Z" fill="#FF522A"/>
<path d="M6.10486 37.6973C6.0662 37.7746 6.02752 37.8519 5.9502 37.9293C5.98886 37.8906 6.02753 37.8133 6.06619 37.7746L6.10486 37.6973Z" fill="#FF522A"/>
<path d="M32.2445 41.5634C32.8245 41.0608 33.3271 40.7128 33.8298 40.4035C34.3324 40.1329 34.835 39.8236 35.4536 39.4369L36.3815 39.4756C37.0388 39.0503 37.1548 38.8957 37.2321 38.741C37.3095 38.5863 37.3095 38.4704 37.7734 38.1224C38.4694 37.9291 39.5133 37.5038 40.4799 37.1171C41.4465 36.7305 42.2971 36.3439 42.6064 36.2665C43.109 36.3052 42.1424 36.6918 41.9491 36.9238C43.6503 36.1892 43.3797 35.8026 45.6222 35.1453L45.6995 35.2613C48.2899 34.2174 51.383 33.4441 54.5921 33.0188C57.8012 32.5548 61.165 32.4388 64.2967 32.4388C63.8714 32.4002 63.9874 32.3228 63.8328 32.2068C67.1578 32.2842 70.7149 32.7481 74.04 33.4054C77.4037 34.0627 80.5354 34.9133 83.2032 35.4933C82.3526 35.1839 81.3474 34.72 80.3035 34.2947C79.2209 33.8694 78.061 33.4054 76.9011 33.0574C75.7412 32.6321 74.5039 32.3615 73.3827 32.1295C72.8027 32.0135 72.2614 31.9749 71.7201 31.8975C71.1789 31.8589 70.6762 31.8202 70.2123 31.8589C69.555 31.6269 68.7044 31.4722 67.9311 31.4336C67.1578 31.3562 66.5005 31.3176 66.2299 31.0469C65.5726 30.9696 64.954 30.9309 64.3741 30.8923C64.1034 30.8923 63.7941 30.8536 63.5234 30.8536C63.2528 30.8536 62.9821 30.8536 62.7115 30.8536C62.2089 30.8536 61.7062 30.8923 61.2423 30.8923C60.7783 30.9309 60.3144 30.9696 59.8504 31.0469C57.9945 31.2403 56.216 31.5496 53.7029 31.8589C52.9683 31.8975 53.2776 31.6269 53.0456 31.4336C53.7029 31.3176 54.3601 31.1629 55.0561 31.0856C55.7134 31.0083 56.4093 30.8536 57.0666 30.8149C56.2547 30.7763 55.4041 30.8536 54.5921 30.8536C55.1334 30.699 56.0227 30.583 56.8733 30.5056C57.6852 30.4283 58.4198 30.3123 58.5745 30.119C56.796 30.4283 54.4761 30.6603 52.2337 31.0083C49.9912 31.3949 47.826 31.8975 46.3954 32.5548C46.7434 32.4775 47.13 32.4002 47.5167 32.3228C47.9033 32.2455 48.3286 32.1295 48.7153 32.0522C49.5272 31.8589 50.4165 31.6655 51.2671 31.5496C52.0403 31.5496 53.2002 31.5109 53.1616 31.7042C50.7644 32.3228 48.5993 32.8255 46.4341 33.4441C44.2689 34.024 42.1038 34.6813 39.8226 35.6866C39.2427 35.9572 38.5854 36.2279 38.0054 36.4212C37.4255 36.6532 37.0002 36.8078 36.8455 36.7305C37.5801 36.3052 36.9228 36.4212 37.5028 36.0345C36.7295 36.4985 36.7682 36.6918 36.6908 36.8852C36.6135 37.0785 36.4589 37.2718 35.299 37.8131L35.2603 37.0011C34.9896 37.5811 34.2551 37.8904 33.4431 38.277C32.6312 38.625 31.7419 39.0503 31.0846 39.7076C30.3887 39.8236 31.3166 39.0116 32.5152 38.277C31.0846 39.0116 31.1619 39.437 30.118 40.1329C30.35 39.7463 30.5433 39.321 30.7753 38.9343C30.35 39.5529 29.8474 39.8622 29.3061 40.0556C28.7648 40.2875 28.3008 40.3649 27.9529 40.4809C27.9529 40.5969 28.1075 40.6355 28.1462 40.7902C28.1462 40.9448 27.9915 41.2155 27.2182 41.7954C26.561 42.2207 26.9089 41.7568 26.7543 41.7568C26.7156 41.8341 26.677 41.9114 26.5996 42.0661C26.561 42.1434 26.5223 42.2207 26.445 42.2981C26.4063 42.3754 26.329 42.53 26.2517 42.4527C26.0197 42.2981 25.749 41.9888 25.3237 41.5248C25.2851 41.3315 25.4784 41.4088 25.633 41.4861C25.8264 41.5635 25.981 41.6794 26.0583 41.6021C25.8264 41.2541 25.5557 40.9835 25.3237 40.7129C25.0918 40.4422 24.8984 40.1716 24.7051 39.9009C23.5065 38.973 24.5891 40.1716 23.7385 39.7076C22.9266 38.8957 22.9653 38.741 23.1972 38.6637C23.4292 38.5863 23.8545 38.5863 23.6225 38.1224C24.0092 38.3157 24.3571 38.5864 24.7051 38.8183L25.2077 39.205C25.3237 39.2823 25.4397 39.3596 25.5171 39.4756C25.9424 39.8236 26.2517 40.1329 26.445 40.2875C26.4836 40.3649 26.5223 40.2489 26.561 40.2489C26.5996 40.2102 26.6383 40.1716 26.6383 40.1329L26.5223 40.2102L26.4837 40.2489L26.445 40.2102C26.2517 40.0169 26.0583 39.7849 25.865 39.5916C25.749 39.4756 25.6331 39.3983 25.5171 39.2823C25.4784 39.2436 25.4011 39.1663 25.3237 39.1276L25.2464 39.0503L25.0917 38.9343C25.2464 38.9343 24.8984 38.4317 24.6278 38.0837C24.3958 37.7357 24.3185 37.5424 25.1304 38.0837C23.8159 36.7305 22.0373 35.5706 20.1041 34.836C18.1709 34.1014 15.9671 33.8694 14.1499 34.1014C14.6526 34.14 15.3485 34.2174 15.2325 34.372C14.7685 34.4107 14.4206 34.4107 14.1886 34.4107C13.9566 34.4107 13.802 34.372 13.686 34.372C13.454 34.3333 13.4153 34.2174 13.1833 34.14C11.8301 34.5267 12.1008 34.9133 11.3661 35.4159C10.0129 35.6092 9.31698 35.9186 8.62103 36.1892C8.46638 36.2665 8.31171 36.3439 8.11839 36.3825C7.96374 36.4598 7.73177 36.5372 7.65444 36.5758C7.42246 36.6532 7.15181 36.7305 6.88116 36.7692C6.91983 36.9238 6.95849 37.0398 6.99715 37.1945C6.57185 37.3104 6.37853 37.5424 6.14654 37.8517C5.91456 38.1611 5.64393 38.509 5.33462 38.7797C5.29595 38.8183 5.21863 38.8957 5.1413 38.9343C5.1413 38.857 5.29595 38.6637 5.4506 38.4317C5.56659 38.277 5.68258 38.0837 5.79857 37.9291C5.68258 38.0837 5.5666 38.1997 5.48927 38.277C5.33462 38.4704 5.25728 38.393 5.21862 38.4317C5.17996 38.4317 5.10263 38.4704 4.83198 38.9343L5.56659 37.5038C5.48926 37.6198 5.37328 37.7357 5.29595 37.8904L5.21862 38.0064L5.17995 38.0451V38.0837C5.17995 38.0064 5.17996 37.9677 5.1413 37.8904C5.1413 37.6584 5.17996 37.4264 5.41194 37.1171C5.14129 37.2331 4.98663 36.6532 4.98663 36.0345C4.94797 35.7252 4.98663 35.3773 4.98663 35.0293C4.98663 34.836 4.98663 34.6813 4.98663 34.488C4.98663 34.1787 5.0253 33.8307 5.0253 33.5601L5.37327 33.7534C5.25728 33.1348 5.45061 31.9749 5.68259 30.8923C5.79858 30.351 5.91457 29.8097 6.03056 29.3457C6.10789 28.8818 6.14655 28.4565 6.10789 28.1472L6.30121 27.9925C6.33987 27.5672 6.37853 27.1419 6.4172 26.7166C6.45586 26.2913 6.49452 25.866 6.57185 25.4407C6.99715 24.3968 7.38379 24.9381 7.2678 24.7834C8.04107 22.4249 8.81434 20.6077 9.66494 19.2545C9.3943 18.6746 10.4769 16.2387 11.4821 14.4216C12.6034 12.643 13.8406 10.8645 15.1165 9.20196L15.6191 8.58333C15.7351 8.42868 15.8511 8.27403 16.0058 8.11937C16.2378 7.81006 16.5084 7.53942 16.7791 7.23011C17.0497 6.9208 17.3203 6.65015 17.591 6.37951C17.7456 6.22485 17.9003 6.10886 18.0163 5.9542L18.1323 5.83821C18.1323 5.87688 18.1709 5.91554 18.1709 5.9542L18.2483 6.22485C18.5189 6.95946 18.8282 7.69407 19.2535 8.39002L19.6402 8.96997L20.1428 9.66592C20.4908 10.1299 20.8774 10.5552 21.2641 10.9805C21.4574 11.1738 21.6893 11.3671 21.8827 11.5604C22.076 11.7538 22.308 11.9471 22.54 12.1017C22.7719 12.2951 22.9266 12.411 23.1199 12.527C23.3132 12.643 23.5065 12.759 23.6999 12.875C24.4731 13.339 25.4011 13.7256 26.3676 14.0349C26.7543 14.1509 27.1409 14.2282 27.5276 14.3056L27.6822 14.3442H27.7209L27.6822 14.3829L27.4889 14.4989L27.0636 14.7309C26.4837 15.0788 25.9037 15.3881 25.3237 15.7361C24.7051 16.0454 24.1638 16.4707 23.5065 16.9734C22.8493 17.476 22.0373 18.0946 21.148 18.6359C22.308 18.1333 22.9266 17.7853 23.5065 17.476C24.0865 17.128 24.6278 16.8187 25.7104 16.3161C27.5276 15.5815 29.0354 15.3881 31.3939 14.6149L29.6927 14.9628C30.0407 14.7309 30.35 14.5375 30.582 14.4216C30.6207 14.4216 30.6207 14.3829 30.582 14.3829L30.5433 14.3442L30.5047 14.3056L30.466 14.2282C30.466 14.1896 30.466 14.1509 30.466 14.0736C30.5047 13.9963 30.5047 13.9189 30.4273 13.8416C30.0407 13.7643 29.4994 13.6483 28.7261 13.4936L30.698 13.339C30.1567 13.2616 29.6154 13.1456 29.0741 13.0297C28.5328 12.875 28.1075 12.7203 27.6049 12.5657L27.2569 12.4497L27.1023 12.3724L26.9476 12.2951C26.7543 12.2177 26.561 12.1017 26.4063 12.0244C26.0583 11.8311 25.7104 11.6764 25.5944 11.5218C25.2077 11.4444 24.8211 11.4058 24.4731 11.3671C24.2798 11.2125 24.1252 11.0578 23.9705 10.9032C23.8932 10.7872 23.7772 10.6712 23.6999 10.5939C23.5452 10.4005 23.4292 10.1685 23.3132 10.0139C23.0812 9.66592 23.0039 9.35661 23.0426 9.08596L22.8106 9.43393C22.7719 9.31794 22.5786 9.0473 22.308 8.66066C22.192 8.50601 22.0373 8.27402 21.9213 8.08071L21.728 7.7714C21.6893 7.73273 21.6507 7.65541 21.6507 7.61674C21.612 7.53942 21.5733 7.50075 21.5347 7.42342C21.4574 7.26877 21.3414 7.11411 21.2641 6.9208C21.1867 6.76614 21.1094 6.61149 21.0321 6.41817C20.9161 6.10886 20.8388 5.79955 20.8001 5.60623C20.7228 5.18093 20.8001 5.06494 21.1867 5.56757C21.0321 5.25826 20.8387 5.06494 20.6454 4.6783C20.4521 4.29166 20.2588 3.8277 20.0268 3.05443L20.1815 2.16516C19.9495 1.54654 19.7175 0.889262 19.5242 0.347971C19.4082 0.425298 19.3309 0.463962 19.2149 0.541289L19.0602 0.618615C19.0216 0.657279 18.9829 0.65728 18.9056 0.734608C18.6736 0.96659 18.4416 1.15991 18.2096 1.35323C17.7843 1.7012 17.475 1.93318 17.3204 1.93318C18.1323 1.08258 18.4803 0.541291 18.8282 0C17.939 0.773274 17.2817 1.39189 16.7791 1.89452C16.2764 2.39715 15.9285 2.78378 15.6578 3.09309C15.1552 3.75038 15.0779 4.09835 15.0392 4.369C15.0005 4.67831 14.9619 4.94895 14.6912 5.45157C14.5366 5.72222 14.3433 6.03153 14.0339 6.45683C13.8793 6.65015 13.686 6.9208 13.5313 7.15278C13.3767 7.3461 13.222 7.57808 13.0287 7.81006L12.8354 7.61674L12.3327 8.77665L11.2888 9.62725C11.1728 10.6325 10.2062 11.9857 9.23964 13.5709C8.23438 15.1175 7.19047 16.8187 6.80383 18.2493C6.37853 19.3318 5.25729 20.4531 4.52268 22.5409H4.94798C4.44535 23.2755 3.55608 25.17 2.74415 27.1032C1.93221 29.0364 1.1976 31.0469 0.578979 31.8202C0.617642 33.5987 0.694972 31.6655 1.00428 31.7429C0.965618 32.5935 0.926956 33.2121 0.849629 33.7534C0.810965 33.908 0.810961 34.0627 0.772297 34.2173C0.733633 34.4107 0.694977 34.604 0.694977 34.7586C0.617649 35.1066 0.578976 35.4159 0.540313 35.7252C0.424321 36.3439 0.346999 36.8465 0.231008 37.4264C0.192344 37.7357 0.115019 38.0064 0.0763555 38.3544C0.0376918 38.7023 -0.000976562 39.0117 -0.000976562 39.3983C0.192342 41.0222 0.192342 40.3262 0.192342 39.4756C0.192342 39.0503 0.192347 38.5863 0.269674 38.277C0.308338 38.0064 0.385665 37.9291 0.462992 38.3544C0.462992 38.973 0.462992 39.5143 0.462992 39.9782C0.462992 40.2102 0.462995 40.4035 0.501658 40.6355C0.540322 40.8288 0.540315 40.9835 0.578979 41.1382C0.656306 41.7568 0.772304 42.1821 0.888295 42.6074C1.00429 43.0327 1.12027 43.4966 1.23627 44.2313C1.27493 44.5792 1.35226 45.0432 1.42958 45.5845C1.42958 45.7391 1.46825 45.8551 1.46825 46.0098C1.46825 46.0871 1.46824 46.1644 1.5069 46.2418C1.5069 46.3191 1.50691 46.4351 1.54557 46.4351C1.58423 46.5124 1.6229 46.5897 1.66157 46.7057C1.58424 47.015 1.50691 47.015 1.42958 46.9764L1.35225 46.899C1.35225 46.899 1.31359 46.8217 1.31359 46.7444C1.31359 46.6671 1.27493 46.6284 1.27493 46.5511C1.23627 46.3191 1.1976 46.0871 1.12027 46.0098C1.1976 46.2804 1.23626 46.5897 1.31359 46.899C1.39091 46.9377 1.42958 47.015 1.5069 47.0537C1.54557 47.0537 1.58424 47.1697 1.6229 47.247C1.66157 47.3243 1.70023 47.4403 1.73889 47.5177C1.77755 47.5563 1.77756 47.595 1.81622 47.6723C1.85488 47.7883 1.85488 47.8656 1.89354 47.9816C1.9322 48.1749 2.00954 48.3683 2.04821 48.6002C2.66682 47.711 3.32411 46.7444 3.98139 45.8165C4.2907 45.3912 4.60001 44.9659 4.90931 44.5019C5.06397 44.2699 5.21862 44.0766 5.37327 43.8446C5.52793 43.6126 5.68258 43.3806 5.79857 43.226C6.06922 42.878 6.33987 42.53 6.61051 42.1434L6.80383 41.8728C6.88116 41.7954 6.95849 41.6794 6.99715 41.6408L7.38379 41.2928C7.65443 41.0608 7.88642 40.8288 8.15706 40.5969C8.42771 40.4035 8.65969 40.2489 8.93033 40.0556L9.31697 39.7849L9.3943 39.7076L9.43296 39.6689L9.54896 39.6303L9.97426 39.3983C10.2449 39.2823 10.5155 39.1663 10.7862 39.0503C11.0568 38.9343 11.3275 38.8183 11.5981 38.741C11.7141 38.7023 11.8688 38.6637 11.9848 38.625C12.1008 38.5864 12.2554 38.5477 12.3714 38.509C12.6034 38.4704 12.8354 38.4317 13.0674 38.4317C13.2993 38.393 13.5313 38.393 13.802 38.393C14.3046 38.3544 14.8072 38.393 15.2712 38.4317C16.2378 38.5477 17.2817 38.8183 18.3256 39.321C19.3309 39.7849 20.3361 40.4422 21.1867 41.2155C21.4187 41.4088 21.612 41.6021 21.8053 41.7954C21.9213 41.8728 21.9987 41.9888 22.076 42.1047L22.2306 42.2594C22.2693 42.2981 22.3853 42.4141 22.424 42.4527L22.5786 42.646C23.0039 43.1873 23.4292 43.7286 23.8158 44.2699C24.2025 44.8499 24.6278 45.4298 25.0144 45.9711L25.1691 45.9324C25.3237 46.2031 25.4784 46.4351 25.6717 46.7057C26.445 46.2031 27.2569 45.5845 28.0689 44.9272C28.8035 44.3472 29.5767 43.7673 30.3113 43.1487L30.582 42.9167L30.7367 42.8007L30.814 42.762L30.8526 42.7234L31.1619 42.4914C31.3553 42.3367 31.5872 42.1821 31.7806 42.0661C32.2059 41.7568 32.6698 41.5248 33.1725 41.2541L32.2445 41.5634Z" fill="#FF522A"/>
<path d="M59.6564 29.616L59.2311 29.2681C58.4192 29.3454 57.6459 29.5 56.834 29.616C57.3366 29.732 57.6846 29.732 58.1099 29.6934C58.5352 29.616 58.9991 29.5774 59.6564 29.616Z" fill="#FF522A"/>
<path d="M59.1907 30.6997L60.4279 30.5063C59.7706 30.545 59.1133 30.545 58.4561 30.5837C58.6494 30.6223 58.92 30.661 59.1907 30.6997Z" fill="#FF522A"/>
<path d="M30.6562 38.5089L30.9656 38.3929L31.8935 37.7356C32.2028 37.5037 32.5121 37.3103 32.8601 37.117C33.4787 36.6917 34.136 36.3051 34.7933 35.9185L33.7493 36.5371C33.4014 36.7304 33.0534 36.9624 32.7054 37.1944C32.0095 37.581 31.3522 38.045 30.6562 38.5089Z" fill="#FF522A"/>
<path d="M6.14217 37.0005C6.37415 36.5365 6.56747 36.4592 6.76079 36.1499C6.56747 36.3819 6.3355 36.6525 6.10352 36.9618L6.14217 37.0005Z" fill="#FF522A"/>
<path d="M9.00398 25.866C8.65601 24.9381 9.50661 24.4741 8.61735 25.2087C8.3467 26.33 8.92666 25.4407 9.00398 25.866Z" fill="#FF522A"/>
<path d="M9.78175 21.3423C9.47244 21.9609 9.43377 22.3475 9.35645 22.7342C9.97506 21.9996 9.70442 21.8836 9.78175 21.3423Z" fill="#FF522A"/>
<path d="M55.2843 42.5684C55.091 42.6844 55.3616 42.8777 55.5549 43.071L55.7482 42.5684H55.2843Z" fill="#FF522A"/>
<path d="M56.3691 42.7233L56.9104 42.182L56.5238 42.4527C56.0985 42.1821 56.5624 41.8727 56.7558 41.7954C56.0598 41.9114 56.4851 42.414 56.3691 42.7233Z" fill="#FF522A"/>
<path d="M57.45 42.2983C57.798 42.337 57.682 41.989 57.566 41.873C57.5274 42.0277 57.2954 42.1824 57.45 42.2983Z" fill="#FF522A"/>
<path d="M78.9854 43.8833C78.8694 43.806 78.7921 43.7674 78.7921 43.6514C78.6761 43.7674 78.6761 43.8447 78.9854 43.8833Z" fill="#FF522A"/>
<path d="M78.7949 43.6514L78.873 43.6123H78.7949V43.6514Z" fill="#FF522A"/>
<path d="M71.7947 39.3594C71.408 39.6301 71.176 39.4754 70.8281 39.5527L70.6347 39.1274C70.2481 39.2821 70.4414 39.5141 70.1708 39.7074C69.8228 39.4368 69.0495 39.6687 68.8562 39.6687C68.7402 39.4754 69.0109 39.3981 69.0495 39.2821C68.5856 39.4367 68.6243 39.862 68.0443 39.862V39.7461C66.6524 40.3647 64.8739 40.21 63.3273 40.5967C63.4433 40.6353 63.4046 40.7126 63.4433 40.79C61.8194 40.9446 59.9249 40.9833 58.6104 41.9886C59.4996 41.8726 61.0075 42.5685 61.8968 41.7952C62.2447 42.1045 62.7474 41.6406 62.8634 42.1045C64.1393 42.2979 64.6806 41.5246 65.9178 41.4859C66.1111 41.5633 65.9951 41.7952 66.0724 41.9886L65.1058 42.1819L65.6858 42.3752C65.4152 42.5685 64.7965 42.4139 64.7192 42.8392C65.5698 42.3752 66.9617 42.7232 67.6963 42.1819C67.3483 42.0659 66.9231 42.1819 66.4978 42.1819C66.3044 42.0272 66.0338 41.9499 66.0338 41.7179C67.2324 41.0993 68.1989 41.4086 69.4362 41.2153C69.7455 41.1766 70.1708 41.2153 70.2095 41.4086C70.0161 41.4859 70.1708 41.6406 69.9775 41.7566C70.4028 41.5632 70.0161 41.022 70.6347 41.0993L70.5574 41.8339C70.7894 41.0606 71.3307 41.9499 71.756 41.5246C71.9107 41.8339 71.64 41.9886 71.292 41.9886C71.6787 42.1045 71.7173 41.6792 72.0267 41.7179L71.7173 42.3365C72.0653 41.7566 72.2973 42.4525 72.4906 42.6458C72.5293 42.4912 72.3359 42.0272 72.7612 42.0659C72.9546 42.1432 72.8386 42.2979 72.8773 42.3752C72.9159 42.2205 73.0319 41.9499 73.3412 41.9112C73.3799 42.1045 73.1479 42.2205 73.1479 42.4139C73.3412 42.4139 73.5345 42.3752 73.6892 42.5298C74.0372 42.3752 73.6505 42.2205 73.8825 42.0272C74.4625 42.1819 73.9212 42.7618 74.1532 43.1871C73.7279 43.4964 73.1865 43.5738 72.9546 43.7284L73.7665 43.5738C73.7279 43.8057 74.3078 43.9991 73.8825 44.2311C74.6944 44.463 75.661 44.1924 76.4343 43.9991C76.3183 43.9217 76.2023 43.8831 76.2023 43.7284C76.589 43.5738 76.5503 43.8831 76.6276 44.0764C76.9369 43.9217 76.8983 43.4964 77.0916 43.1871C77.7102 43.5351 77.7875 43.3418 78.3288 43.8444L78.2902 43.4191C78.6768 43.7671 78.7155 43.1098 79.1021 43.3804C79.1408 43.4578 78.9861 43.5738 78.8314 43.6897C79.1794 43.5351 79.1408 44.0377 79.4887 43.8831L79.2181 44.347C79.4887 44.347 79.8754 44.1924 79.7594 44.579C80.2234 44.1151 81.0739 44.3084 81.6539 43.9991L81.6152 44.347C81.9245 43.9217 82.7365 44.3857 83.0071 43.8444L83.0458 43.9991L83.6644 43.4964C83.9351 43.5351 83.8577 44.0764 83.8577 43.9217C84.4763 43.8444 84.9403 43.8057 85.3269 43.9991C85.4429 43.4964 86.0616 43.3804 86.5642 43.3418C89.0387 43.6511 91.6678 43.1871 93.949 42.6458C94.2969 42.6072 94.7609 42.1045 95.1862 41.8339C94.6449 41.7179 94.6062 41.9499 94.1036 41.9499C93.717 41.8339 93.5623 41.3313 93.253 41.022L93.4077 41.4473C92.8664 41.7952 93.0597 41.2153 92.6344 41.6406V40.9833C92.4797 41.3313 92.1318 41.0606 91.9771 40.8673L91.8611 41.3313C91.5131 41.0993 91.3198 40.9833 91.2038 40.558L91.2425 40.9833C91.1265 40.7126 89.9666 41.022 90.3532 40.326C90.2759 40.4033 90.1599 40.6353 89.9666 40.5967L89.9279 40.1714C89.6186 40.2874 89.2706 40.3647 89.1933 40.1327C89.348 40.0167 89.4253 39.862 89.464 39.6687C88.1881 39.5914 89.1933 41.022 88.0721 41.0606V40.79L87.8014 41.0606L87.4921 40.7127C87.0668 41.6406 85.9069 40.6353 85.211 41.138C84.9403 41.2153 84.5924 40.674 84.0897 40.7127L84.1284 41.138C83.7031 40.7127 82.1952 40.442 81.8086 39.4754C81.4219 39.7847 81.8472 39.5527 81.8472 39.9007C81.0739 40.326 81.0353 39.6687 80.6486 39.4367C80.1847 39.6301 80.9966 39.5914 80.7646 39.9007C80.0687 39.5914 80.1847 40.4033 79.2954 40.1327C79.2181 39.9007 79.5274 39.978 79.6047 39.8234C78.9861 40.2487 77.8262 39.978 76.8983 40.0554C75.8543 39.7461 74.3078 39.6301 73.0706 39.2821L73.0319 39.4367C72.5293 39.0501 71.9493 39.3981 71.3694 39.2434L71.7947 39.3594Z" fill="#FF522A"/>
<path d="M64.4492 43.3424L64.5652 43.6903L65.1452 43.4584C64.8745 43.1491 64.7585 43.381 64.4492 43.3424Z" fill="#FF522A"/>
<path d="M64.5665 42.2212L64.2959 42.4145L64.7599 42.3758L64.5665 42.2212Z" fill="#FF522A"/>
<path d="M71.716 42.8005L71.6773 42.7231L70.5947 43.0325L71.716 42.8005Z" fill="#FF522A"/>
<path d="M78.9468 44.231C78.8308 44.4243 78.6375 44.3469 78.5215 44.4629L79.0241 44.2696L78.9468 44.231Z" fill="#FF522A"/>
<path d="M83.8195 45.7001C84.0128 45.0428 84.2062 45.7001 83.9355 45.1201C83.6262 45.2361 83.8969 45.4681 83.8195 45.7001Z" fill="#FF522A"/>
<path d="M84.9417 44.7718C84.7871 44.7332 84.6711 44.8492 84.5938 44.9265C84.7871 45.2358 84.8257 44.8878 84.9417 44.7718Z" fill="#FF522A"/>
</svg>
