<svg width="100" height="100" viewBox="0 0 100 100" fill="none" xmlns="http://www.w3.org/2000/svg">
<rect width="100" height="100" fill="white"/>
<path d="M40.6538 48.4221L41.6735 43.3689H42.8161L41.2866 50.082H40.185L38.924 45.1808L37.6357 50.082H36.5295L35 43.3689H36.1426L37.1714 48.4129L38.4369 43.3689H39.402L40.6538 48.4221Z" fill="white"/>
<path d="M43.1985 47.5415C43.1985 47.0528 43.2941 46.6132 43.4853 46.2228C43.6765 45.8294 43.9451 45.5282 44.291 45.3192C44.637 45.1071 45.0346 45.001 45.4837 45.001C46.1483 45.001 46.687 45.2177 47.0998 45.6511C47.5155 46.0845 47.7401 46.6593 47.7735 47.3755L47.778 47.6383C47.778 48.1301 47.684 48.5697 47.4958 48.957C47.3107 49.3443 47.0436 49.644 46.6946 49.856C46.3486 50.0681 45.948 50.1742 45.4928 50.1742C44.7979 50.1742 44.241 49.9406 43.8222 49.4734C43.4064 49.0031 43.1985 48.3776 43.1985 47.5968V47.5415ZM44.3047 47.6383C44.3047 48.1516 44.4094 48.5543 44.6188 48.8463C44.8282 49.1352 45.1195 49.2797 45.4928 49.2797C45.8661 49.2797 46.1559 49.1322 46.3623 48.8371C46.5717 48.542 46.6764 48.1101 46.6764 47.5415C46.6764 47.0374 46.5687 46.6378 46.3532 46.3427C46.1408 46.0476 45.8509 45.9001 45.4837 45.9001C45.1226 45.9001 44.8358 46.0461 44.6234 46.3381C44.4109 46.627 44.3047 47.0605 44.3047 47.6383Z" fill="white"/>
<path d="M51.2923 46.1168C51.1467 46.0922 50.9964 46.0799 50.8417 46.0799C50.3348 46.0799 49.9934 46.2766 49.8174 46.6701V50.082H48.7112V45.0932H49.7673L49.7947 45.6511C50.0617 45.2177 50.432 45.001 50.9054 45.001C51.0632 45.001 51.1937 45.0225 51.2969 45.0656L51.2923 46.1168Z" fill="white"/>
<path d="M53.5912 47.9426L53.0996 48.4544V50.082H51.9934V43H53.0996V47.085L53.4455 46.647L54.8066 45.0932H56.1359L54.3059 47.1726L56.3316 50.082H55.0524L53.5912 47.9426Z" fill="white"/>
<path d="M59.6229 48.7264C59.6229 48.5266 59.5409 48.3745 59.377 48.27C59.2162 48.1655 58.9476 48.0733 58.5713 47.9933C58.195 47.9134 57.8809 47.812 57.629 47.689C57.0767 47.4185 56.8005 47.0266 56.8005 46.5133C56.8005 46.083 56.9795 45.7234 57.3377 45.4344C57.6958 45.1455 58.151 45.001 58.7033 45.001C59.2921 45.001 59.767 45.1486 60.1282 45.4436C60.4923 45.7387 60.6744 46.1214 60.6744 46.5917H59.5682C59.5682 46.3765 59.4893 46.1983 59.3315 46.0569C59.1737 45.9124 58.9643 45.8402 58.7033 45.8402C58.4605 45.8402 58.2618 45.897 58.107 46.0108C57.9552 46.1245 57.8794 46.2766 57.8794 46.4672C57.8794 46.6393 57.9507 46.7731 58.0933 46.8683C58.236 46.9636 58.5243 47.0605 58.9582 47.1588C59.3922 47.2541 59.7321 47.3694 59.9779 47.5046C60.2268 47.6368 60.4104 47.7966 60.5287 47.9841C60.6501 48.1716 60.7108 48.3991 60.7108 48.6665C60.7108 49.1153 60.5272 49.4795 60.16 49.7592C59.7928 50.0359 59.3118 50.1742 58.717 50.1742C58.3133 50.1742 57.9537 50.1004 57.6381 49.9529C57.3225 49.8053 57.0767 49.6025 56.9006 49.3443C56.7246 49.0861 56.6366 48.8079 56.6366 48.5097H57.7109C57.7261 48.7741 57.8247 48.9785 58.0068 49.123C58.1889 49.2643 58.4302 49.335 58.7306 49.335C59.022 49.335 59.2435 49.2797 59.3952 49.1691C59.547 49.0553 59.6229 48.9078 59.6229 48.7264Z" fill="white"/>
<path d="M65.9914 47.6383C65.9914 48.4098 65.8184 49.0261 65.4724 49.4872C65.1265 49.9452 64.6621 50.1742 64.0795 50.1742C63.5393 50.1742 63.1068 49.9944 62.7821 49.6347V52H61.6759V45.0932H62.6956L62.7411 45.6004C63.0658 45.2008 63.5074 45.001 64.0658 45.001C64.6667 45.001 65.1371 45.2285 65.477 45.6834C65.8199 46.1352 65.9914 46.7638 65.9914 47.5692V47.6383ZM64.8898 47.5415C64.8898 47.0435 64.7911 46.6486 64.5939 46.3566C64.3996 46.0645 64.1204 45.9185 63.7563 45.9185C63.3041 45.9185 62.9793 46.1076 62.7821 46.4857V48.6988C62.9824 49.0861 63.3101 49.2797 63.7654 49.2797C64.1174 49.2797 64.392 49.1368 64.5893 48.8509C64.7896 48.562 64.8898 48.1255 64.8898 47.5415Z" fill="white"/>
<path d="M69.8744 50.082C69.8259 49.9867 69.7834 49.8315 69.747 49.6163C69.3949 49.9882 68.964 50.1742 68.4541 50.1742C67.9595 50.1742 67.5558 50.0312 67.2432 49.7454C66.9307 49.4595 66.7744 49.106 66.7744 48.6849C66.7744 48.1532 66.9686 47.7459 67.357 47.4631C67.7485 47.1773 68.3069 47.0343 69.0323 47.0343H69.7105V46.707C69.7105 46.4488 69.6392 46.2428 69.4966 46.0891C69.3539 45.9324 69.137 45.854 68.8456 45.854C68.5937 45.854 68.3874 45.9185 68.2265 46.0476C68.0657 46.1737 67.9853 46.335 67.9853 46.5318H66.8791C66.8791 46.2582 66.9686 46.0031 67.1476 45.7664C67.3267 45.5266 67.5695 45.3391 67.876 45.2039C68.1856 45.0686 68.53 45.001 68.9094 45.001C69.486 45.001 69.9457 45.1486 70.2887 45.4436C70.6316 45.7357 70.8076 46.1475 70.8167 46.6793V48.9293C70.8167 49.3781 70.8789 49.7362 71.0034 50.0036V50.082H69.8744ZM68.659 49.2751C68.8775 49.2751 69.0823 49.2213 69.2735 49.1137C69.4678 49.0061 69.6134 48.8617 69.7105 48.6803V47.7398H69.1142C68.7045 47.7398 68.3965 47.812 68.1901 47.9565C67.9837 48.1009 67.8806 48.3053 67.8806 48.5697C67.8806 48.7848 67.9504 48.957 68.09 49.0861C68.2326 49.2121 68.4223 49.2751 68.659 49.2751Z" fill="white"/>
<path d="M73.9987 49.2797C74.2749 49.2797 74.504 49.1983 74.6861 49.0353C74.8682 48.8724 74.9653 48.6711 74.9774 48.4314H76.0199C76.0077 48.7418 75.9122 49.0323 75.7331 49.3028C75.554 49.5702 75.3113 49.7823 75.0047 49.939C74.6982 50.0958 74.3674 50.1742 74.0124 50.1742C73.3235 50.1742 72.7772 49.9483 72.3736 49.4964C71.9699 49.0446 71.7681 48.4206 71.7681 47.6245V47.5092C71.7681 46.75 71.9684 46.1429 72.369 45.688C72.7696 45.23 73.3159 45.001 74.0078 45.001C74.5935 45.001 75.07 45.1747 75.4372 45.522C75.8075 45.8663 76.0017 46.3197 76.0199 46.8822H74.9774C74.9653 46.5963 74.8682 46.3612 74.6861 46.1767C74.507 45.9923 74.2779 45.9001 73.9987 45.9001C73.6406 45.9001 73.3644 46.0323 73.1702 46.2966C72.976 46.5579 72.8774 46.9559 72.8743 47.4908V47.6706C72.8743 48.2116 72.9699 48.6158 73.1611 48.8832C73.3553 49.1475 73.6345 49.2797 73.9987 49.2797Z" fill="white"/>
<path d="M79.0243 50.1742C78.3233 50.1742 77.7543 49.9513 77.3173 49.5056C76.8833 49.0569 76.6663 48.4606 76.6663 47.7167V47.5784C76.6663 47.0804 76.7604 46.6363 76.9485 46.2459C77.1397 45.8525 77.4068 45.5466 77.7497 45.3284C78.0927 45.1101 78.475 45.001 78.8969 45.001C79.5676 45.001 80.085 45.2177 80.4492 45.6511C80.8164 46.0845 81 46.6977 81 47.4908V47.9426H77.7816C77.815 48.3545 77.95 48.6803 78.1867 48.9201C78.4265 49.1598 78.7269 49.2797 79.0881 49.2797C79.5949 49.2797 80.0076 49.0722 80.3263 48.6573L80.9226 49.2336C80.7253 49.5318 80.4613 49.7638 80.1305 49.9298C79.8028 50.0927 79.434 50.1742 79.0243 50.1742ZM78.8923 45.9001C78.5888 45.9001 78.343 46.0077 78.1549 46.2228C77.9697 46.438 77.8514 46.7377 77.7998 47.1219H79.9075V47.0389C79.8832 46.6639 79.7846 46.3811 79.6116 46.1906C79.4386 45.9969 79.1988 45.9001 78.8923 45.9001Z" fill="white"/>
<path d="M95.6827 66.841C96.4439 67.4547 95.6827 66.166 95.0016 65.1227L94 65L95.6827 66.841Z" fill="#FF522A"/>
<path d="M92 64.081L91.0176 63.5121C90.7018 63.3414 90.3509 63.1707 90 63C90.4561 63.2845 90.9474 63.569 91.3684 63.9103C92.5965 65.731 90.9123 64.4224 90.3509 64.0241C92.6667 66.1862 91.5088 64.081 92 64.081Z" fill="#FF522A"/>
<path d="M34.0037 66.1949C34.5613 65.7088 35.0446 65.3723 35.5279 65.0732C36.0112 64.8115 36.4944 64.5123 37.0892 64.1384L37.9814 64.1758C38.6134 63.7645 38.7249 63.615 38.7993 63.4654C38.8736 63.3158 38.8736 63.2037 39.3197 62.8671C39.9888 62.6802 40.9926 62.2689 41.9219 61.895C42.8513 61.5211 43.6691 61.1472 43.9665 61.0724C44.4498 61.1098 43.5205 61.4837 43.3346 61.708C44.9703 60.9976 44.7101 60.6237 46.8662 59.9881L46.9405 60.1002C49.4312 59.0907 52.4052 58.3429 55.4907 57.9316C58.5762 57.4829 61.8104 57.3707 64.8216 57.3707C64.4127 57.3333 64.5242 57.2586 64.3755 57.1464C67.5725 57.2212 70.9926 57.6699 74.1896 58.3055C77.4238 58.9411 80.4349 59.7637 83 60.3246C82.1822 60.0255 81.2156 59.5768 80.2119 59.1655C79.171 58.7542 78.0558 58.3055 76.9405 57.969C75.8253 57.5577 74.6357 57.2959 73.5576 57.0716C73 56.9594 72.4796 56.922 71.9591 56.8473C71.4387 56.8099 70.9554 56.7725 70.5093 56.8099C69.8773 56.5855 69.0595 56.436 68.316 56.3986C67.5725 56.3238 66.9405 56.2864 66.6803 56.0247C66.0483 55.9499 65.4536 55.9125 64.8959 55.8751C64.6357 55.8751 64.3383 55.8377 64.0781 55.8377C63.8179 55.8377 63.5576 55.8377 63.2974 55.8377C62.8141 55.8377 62.3309 55.8751 61.8848 55.8751C61.4387 55.9125 60.9926 55.9499 60.5465 56.0247C58.7621 56.2116 57.052 56.5107 54.6357 56.8099C53.9294 56.8473 54.2268 56.5855 54.0037 56.3986C54.6357 56.2864 55.2677 56.1368 55.9368 56.0621C56.5688 55.9873 57.2379 55.8377 57.8699 55.8003C57.0892 55.7629 56.2714 55.8377 55.4907 55.8377C56.0112 55.6881 56.8662 55.576 57.684 55.5012C58.4647 55.4264 59.171 55.3142 59.3197 55.1273C57.6097 55.4264 55.3792 55.6508 53.2231 55.9873C51.0669 56.3612 48.9851 56.8473 47.6097 57.4829C47.9443 57.4081 48.316 57.3333 48.6877 57.2585C49.0595 57.1838 49.4684 57.0716 49.8402 56.9968C50.6208 56.8099 51.4758 56.6229 52.2937 56.5107C53.0372 56.5107 54.1524 56.4733 54.1153 56.6603C51.8104 57.2585 49.7286 57.7446 47.6468 58.3429C45.5651 58.9037 43.4833 59.5394 41.29 60.5115C40.7324 60.7733 40.1004 61.035 39.5428 61.222C38.9851 61.4463 38.5762 61.5959 38.4275 61.5211C39.1338 61.1098 38.5019 61.222 39.0595 60.848C38.316 61.2967 38.3532 61.4837 38.2788 61.6706C38.2045 61.8576 38.0558 62.0446 36.9405 62.568L36.9033 61.7828C36.6431 62.3437 35.9368 62.6428 35.1561 63.0167C34.3755 63.3532 33.5204 63.7645 32.8885 64.4002C32.2193 64.5123 33.1115 63.7271 34.2639 63.0167C32.8885 63.7271 32.9628 64.1384 31.9591 64.8115C32.1822 64.4376 32.368 64.0263 32.5911 63.6523C32.1822 64.2506 31.6989 64.5497 31.1784 64.7367C30.658 64.961 30.2119 65.0358 29.8773 65.148C29.8773 65.2601 30.026 65.2975 30.0632 65.4471C30.0632 65.5967 29.9145 65.8584 29.171 66.4193C28.539 66.8305 28.8736 66.3819 28.7249 66.3819C28.6877 66.4566 28.6506 66.5314 28.5762 66.681C28.539 66.7558 28.5019 66.8306 28.4275 66.9053C28.3903 66.9801 28.316 67.1297 28.2416 67.0549C28.0186 66.9053 27.7584 66.6062 27.3495 66.1575C27.3123 65.9706 27.4982 66.0453 27.6468 66.1201C27.8327 66.1949 27.9814 66.3071 28.0558 66.2323C27.8327 65.8958 27.5725 65.6341 27.3495 65.3723C27.1264 65.1106 26.9405 64.8488 26.7546 64.5871C25.6022 63.6897 26.6431 64.8488 25.8253 64.4002C25.0446 63.615 25.0818 63.4654 25.3048 63.3906C25.5279 63.3158 25.9368 63.3158 25.7138 62.8671C26.0855 63.0541 26.4201 63.3158 26.7546 63.5402L27.2379 63.9141C27.3494 63.9889 27.461 64.0636 27.5353 64.1758C27.9443 64.5123 28.2416 64.8115 28.4275 64.961C28.4647 65.0358 28.5019 64.9236 28.539 64.9236C28.5762 64.8862 28.6134 64.8489 28.6134 64.8115L28.5019 64.8862L28.4647 64.9236L28.4275 64.8862C28.2416 64.6993 28.0558 64.4749 27.8699 64.288C27.7584 64.1758 27.6469 64.101 27.5353 63.9889C27.4982 63.9515 27.4238 63.8767 27.3495 63.8393L27.2751 63.7645L27.1264 63.6523C27.2751 63.6523 26.9405 63.1663 26.6803 62.8298C26.4572 62.4932 26.3829 62.3063 27.1636 62.8298C25.8996 61.5211 24.1896 60.3994 22.3309 59.6889C20.4721 58.9785 18.3532 58.7542 16.606 58.9785C17.0892 59.0159 17.7584 59.0907 17.6468 59.2403C17.2007 59.2777 16.8662 59.2776 16.6431 59.2776C16.4201 59.2776 16.2714 59.2403 16.1599 59.2403C15.9368 59.2029 15.8996 59.0907 15.6766 59.0159C14.3755 59.3898 14.6357 59.7637 13.9294 60.2498C12.6283 60.4368 11.9591 60.7359 11.29 60.9976C11.1413 61.0724 10.9926 61.1472 10.8067 61.1846C10.658 61.2593 10.435 61.3341 10.3606 61.3715C10.1376 61.4463 9.87733 61.5211 9.61711 61.5585C9.65428 61.708 9.69145 61.8202 9.72863 61.9698C9.31971 62.0819 9.13383 62.3063 8.91078 62.6054C8.68773 62.9045 8.42752 63.2411 8.13012 63.5028C8.09294 63.5402 8.01859 63.615 7.94425 63.6523C7.94425 63.5776 8.09294 63.3906 8.24164 63.1663C8.35316 63.0167 8.46468 62.8298 8.57621 62.6802C8.46468 62.8298 8.35316 62.9419 8.27882 63.0167C8.13012 63.2037 8.05576 63.1289 8.01859 63.1663C7.98141 63.1663 7.90706 63.2037 7.64684 63.6523L8.35316 62.2689C8.27881 62.3811 8.16729 62.4932 8.09294 62.6428L8.01859 62.755L7.98141 62.7924V62.8298C7.98141 62.755 7.98142 62.7176 7.94425 62.6428C7.94425 62.4185 7.98141 62.1941 8.20446 61.895C7.94424 62.0072 7.79554 61.4463 7.79554 60.848C7.75836 60.5489 7.79554 60.2124 7.79554 59.8759C7.79554 59.6889 7.79554 59.5394 7.79554 59.3524C7.79554 59.0533 7.83271 58.7168 7.83271 58.4551L8.16728 58.642C8.05576 58.0438 8.24164 56.922 8.46469 55.8751C8.57621 55.3516 8.68774 54.8282 8.79926 54.3795C8.87361 53.9308 8.91079 53.5195 8.87361 53.2204L9.05949 53.0708C9.09666 52.6595 9.13383 52.2482 9.17101 51.8369C9.20818 51.4256 9.24535 51.0143 9.3197 50.603C9.72863 49.5935 10.1004 50.1169 9.98886 49.9674C10.7323 47.6866 11.4758 45.9292 12.2937 44.6205C12.0335 44.0597 13.0744 41.7041 14.0409 39.9467C15.119 38.2267 16.3086 36.5068 17.5353 34.899L18.0186 34.3007C18.1301 34.1512 18.2416 34.0016 18.3903 33.852C18.6134 33.5529 18.8736 33.2912 19.1338 32.992C19.3941 32.6929 19.6543 32.4312 19.9145 32.1695C20.0632 32.0199 20.2119 31.9077 20.3234 31.7582L20.4349 31.646C20.4349 31.6834 20.4721 31.7208 20.4721 31.7582L20.5465 32.0199C20.8067 32.7303 21.1041 33.4407 21.513 34.1138L21.8848 34.6746L22.368 35.3477C22.7026 35.7963 23.0744 36.2076 23.4461 36.6189C23.632 36.8059 23.855 36.9928 24.0409 37.1798C24.2268 37.3667 24.4498 37.5537 24.6729 37.7033C24.8959 37.8902 25.0446 38.0024 25.2305 38.1146C25.4164 38.2267 25.6022 38.3389 25.7881 38.4511C26.5316 38.8998 27.4238 39.2737 28.3532 39.5728C28.7249 39.685 29.0966 39.7597 29.4684 39.8345L29.6171 39.8719H29.6543L29.6171 39.9093L29.4312 40.0215L29.0223 40.2458C28.4647 40.5823 27.9071 40.8815 27.3495 41.218C26.7547 41.5171 26.2342 41.9284 25.6022 42.4145C24.9703 42.9006 24.1896 43.4988 23.3346 44.0223C24.4498 43.5362 25.0446 43.1997 25.6022 42.9006C26.1599 42.564 26.6803 42.2649 27.7212 41.7788C29.4684 41.0684 30.9182 40.8815 33.1859 40.1337L31.5502 40.4702C31.8848 40.2458 32.1822 40.0589 32.4052 39.9467C32.4424 39.9467 32.4424 39.9093 32.4052 39.9093L32.368 39.8719L32.3309 39.8345L32.2937 39.7597C32.2937 39.7224 32.2937 39.685 32.2937 39.6102C32.3309 39.5354 32.3309 39.4606 32.2565 39.3858C31.8848 39.3111 31.3643 39.1989 30.6208 39.0493L32.5167 38.8998C31.9963 38.825 31.4758 38.7128 30.9554 38.6006C30.4349 38.4511 30.026 38.3015 29.5428 38.1519L29.2082 38.0398L29.0595 37.965L28.9108 37.8902C28.7249 37.8154 28.539 37.7033 28.3903 37.6285C28.0558 37.4415 27.7212 37.292 27.6097 37.1424C27.2379 37.0676 26.8662 37.0302 26.5316 36.9928C26.3457 36.8433 26.197 36.6937 26.0483 36.5442C25.974 36.432 25.8625 36.3198 25.7881 36.245C25.6394 36.0581 25.5279 35.8337 25.4164 35.6842C25.1933 35.3477 25.119 35.0485 25.1561 34.7868L24.9331 35.1233C24.8959 35.0111 24.71 34.7494 24.4498 34.3755C24.3383 34.2259 24.1896 34.0016 24.0781 33.8146L23.8922 33.5155C23.855 33.4781 23.8179 33.4033 23.8179 33.3659C23.7807 33.2912 23.7435 33.2538 23.7063 33.179C23.632 33.0294 23.5205 32.8799 23.4461 32.6929C23.3718 32.5434 23.2974 32.3938 23.223 32.2068C23.1115 31.9077 23.0372 31.6086 23 31.4216C22.9257 31.0103 23 30.8982 23.3718 31.3842C23.2231 31.0851 23.0372 30.8982 22.8513 30.5243C22.6654 30.1504 22.4796 29.7017 22.2565 28.9539L22.4052 28.0939C22.1822 27.4956 21.9591 26.86 21.7732 26.3365C21.6617 26.4113 21.5874 26.4487 21.4758 26.5235L21.3271 26.5982C21.29 26.6356 21.2528 26.6356 21.1784 26.7104C20.9554 26.9348 20.7323 27.1217 20.5093 27.3087C20.1004 27.6452 19.803 27.8695 19.6543 27.8695C20.435 27.0469 20.7695 26.5235 21.1041 26C20.2491 26.7478 19.6171 27.3461 19.1338 27.8321C18.6506 28.3182 18.316 28.6921 18.0558 28.9912C17.5725 29.6269 17.4981 29.9634 17.461 30.2251C17.4238 30.5243 17.3866 30.786 17.1264 31.2721C16.9777 31.5338 16.7918 31.8329 16.4944 32.2442C16.3457 32.4312 16.1599 32.6929 16.0112 32.9173C15.8625 33.1042 15.7138 33.3286 15.5279 33.5529L15.342 33.3659L14.8587 34.4877L13.855 35.3103C13.7435 36.2824 12.8141 37.5911 11.8848 39.1241C10.9182 40.6197 9.9145 42.2649 9.54275 43.6484C9.13383 44.6953 8.05577 45.7796 7.34945 47.7987H7.75837C7.2751 48.5092 6.42008 50.3413 5.63941 52.2108C4.85874 54.0803 4.15242 56.0247 3.55762 56.7725C3.5948 58.4924 3.66915 56.6229 3.96655 56.6977C3.92937 57.5203 3.8922 58.1185 3.81785 58.642C3.78067 58.7916 3.78067 58.9411 3.74349 59.0907C3.70632 59.2776 3.66915 59.4646 3.66915 59.6142C3.5948 59.9507 3.55762 60.2498 3.52044 60.5489C3.40892 61.1472 3.33457 61.6333 3.22305 62.1941C3.18588 62.4932 3.11153 62.755 3.07435 63.0915C3.03718 63.428 3 63.7271 3 64.101C3.18587 65.6714 3.18587 64.9984 3.18587 64.1758C3.18587 63.7645 3.18588 63.3158 3.26023 63.0167C3.2974 62.755 3.37175 62.6802 3.4461 63.0915C3.4461 63.6897 3.4461 64.2132 3.4461 64.6619C3.4461 64.8862 3.4461 65.0732 3.48328 65.2975C3.52045 65.4845 3.52045 65.6341 3.55762 65.7836C3.63197 66.3819 3.7435 66.7932 3.85503 67.2045C3.96655 67.6158 4.07807 68.0644 4.1896 68.7749C4.22677 69.1114 4.30112 69.5601 4.37547 70.0835C4.37547 70.2331 4.41265 70.3453 4.41265 70.4948C4.41265 70.5696 4.41264 70.6444 4.44981 70.7192C4.44981 70.794 4.44981 70.9061 4.48699 70.9061C4.52416 70.9809 4.56135 71.0557 4.59852 71.1679C4.52417 71.467 4.44982 71.467 4.37547 71.4296L4.30112 71.3548C4.30112 71.3548 4.26394 71.28 4.26394 71.2053C4.26394 71.1305 4.22677 71.0931 4.22677 71.0183C4.1896 70.794 4.15241 70.5696 4.07806 70.4948C4.15241 70.7566 4.18959 71.0557 4.26394 71.3548C4.33829 71.3922 4.37546 71.467 4.44981 71.5044C4.48699 71.5044 4.52417 71.6165 4.56134 71.6913C4.59852 71.7661 4.63569 71.8783 4.67286 71.9531C4.71004 71.9905 4.71004 72.0278 4.74722 72.1026C4.78439 72.2148 4.78438 72.2896 4.82156 72.4018C4.85873 72.5887 4.93309 72.7757 4.97027 73C5.56506 72.14 6.19703 71.2052 6.829 70.3079C7.1264 69.8966 7.4238 69.4853 7.72119 69.0366C7.86989 68.8123 8.01859 68.6253 8.16728 68.401C8.31598 68.1766 8.46468 67.9523 8.57621 67.8027C8.83643 67.4662 9.09666 67.1297 9.35688 66.7558L9.54275 66.494C9.6171 66.4193 9.69145 66.3071 9.72863 66.2697L10.1004 65.9332C10.3606 65.7088 10.5836 65.4845 10.8439 65.2601C11.1041 65.0732 11.3271 64.9236 11.5874 64.7367L11.9591 64.4749L12.0335 64.4002L12.0706 64.3628L12.1822 64.3254L12.5911 64.101C12.8513 63.9889 13.1115 63.8767 13.3717 63.7645C13.632 63.6523 13.8922 63.5402 14.1524 63.4654C14.2639 63.428 14.4126 63.3906 14.5242 63.3532C14.6357 63.3158 14.7844 63.2784 14.8959 63.241C15.119 63.2037 15.342 63.1663 15.5651 63.1663C15.7881 63.1289 16.0112 63.1289 16.2714 63.1289C16.7547 63.0915 17.2379 63.1289 17.684 63.1663C18.6134 63.2784 19.6171 63.5402 20.6208 64.0263C21.5874 64.4749 22.5539 65.1106 23.3718 65.8584C23.5948 66.0453 23.7807 66.2323 23.9665 66.4193C24.0781 66.494 24.1524 66.6062 24.2268 66.7184L24.3755 66.8679C24.4127 66.9053 24.5242 67.0175 24.5614 67.0549L24.71 67.2418C25.119 67.7653 25.5279 68.2888 25.8996 68.8122C26.2714 69.3731 26.6803 69.934 27.052 70.4574L27.2007 70.42C27.3494 70.6818 27.4981 70.9061 27.684 71.1679C28.4275 70.6818 29.2082 70.0835 29.9889 69.4479C30.6952 68.887 31.4387 68.3262 32.145 67.7279L32.4052 67.5036L32.5539 67.3914L32.6283 67.354L32.6654 67.3166L32.9628 67.0923C33.1487 66.9427 33.3717 66.7932 33.5576 66.681C33.9665 66.3819 34.4127 66.1575 34.8959 65.8958L34.0037 66.1949Z" fill="#FF522A"/>
<path d="M61 54.776L60.5479 54C59.6849 54.1724 58.863 54.5173 58 54.776C58.5342 55.0346 58.9041 55.0347 59.3562 54.9484C59.8082 54.776 60.3014 54.6898 61 54.776Z" fill="#FF522A"/>
<path d="M33 63L33.2991 62.9105L34.1963 62.403C34.4953 62.2239 34.7944 62.0746 35.1308 61.9254C35.729 61.597 36.3645 61.2985 37 61L35.9907 61.4776C35.6542 61.6269 35.3177 61.806 34.9813 61.9851C34.3084 62.2836 33.6729 62.6418 33 63Z" fill="#FF522A"/>
<path d="M9.05881 62C9.41175 61.4545 9.70588 61.3636 10 61C9.70588 61.2727 9.35294 61.5909 9 61.9545L9.05881 62Z" fill="#FF522A"/>
<path d="M11.9295 51C11.2234 50.0901 12.9494 49.6351 11.145 50.3555C10.5958 51.4549 11.7726 50.583 11.9295 51Z" fill="#FF522A"/>
<path d="M56.1254 67C55.7609 67.2308 56.2711 67.6154 56.6356 68L57 67H56.1254Z" fill="#FF522A"/>
<path d="M57.0431 67L58 66.4167L57.3165 66.7083C56.5647 66.4167 57.3849 66.0833 57.7266 66C56.4963 66.125 57.2482 66.6667 57.0431 67Z" fill="#FF522A"/>
<path d="M72.6163 64.2128C72.2463 64.461 72.0243 64.3192 71.6913 64.3901L71.5063 64C71.1364 64.1418 71.3214 64.3546 71.0624 64.5319C70.7294 64.2837 69.9894 64.4965 69.8044 64.4965C69.6934 64.3191 69.9524 64.2482 69.9894 64.1418C69.5455 64.2837 69.5825 64.6738 69.0275 64.6738V64.5674C67.6956 65.1348 65.9937 64.9929 64.5137 65.3475C64.6247 65.383 64.5877 65.4539 64.6247 65.5248C63.0708 65.6667 61.2579 65.7021 60 66.6241C60.851 66.5177 62.2939 67.156 63.1448 66.4468C63.4778 66.7305 63.9588 66.305 64.0698 66.7305C65.2907 66.9078 65.8087 66.1986 66.9926 66.1631C67.1776 66.234 67.0666 66.4468 67.1406 66.6241L66.2156 66.8014L66.7706 66.9787C66.5116 67.156 65.9197 67.0142 65.8457 67.4043C66.6596 66.9787 67.9915 67.2979 68.6945 66.8014C68.3615 66.695 67.9546 66.8014 67.5476 66.8014C67.3626 66.6596 67.1036 66.5887 67.1036 66.3759C68.2505 65.8085 69.1755 66.0922 70.3594 65.9149C70.6554 65.8794 71.0624 65.9149 71.0994 66.0922C70.9144 66.1631 71.0624 66.305 70.8774 66.4113C71.2844 66.234 70.9144 65.7376 71.5063 65.8085L71.4324 66.4823C71.6543 65.773 72.1723 66.5887 72.5793 66.1986C72.7273 66.4823 72.4683 66.6241 72.1353 66.6241C72.5053 66.7305 72.5423 66.3404 72.8383 66.3759L72.5423 66.9433C72.8753 66.4113 73.0973 67.0496 73.2823 67.227C73.3193 67.0851 73.1342 66.6596 73.5412 66.695C73.7262 66.766 73.6152 66.9078 73.6522 66.9787C73.6892 66.8369 73.8002 66.5887 74.0962 66.5532C74.1332 66.7305 73.9112 66.8369 73.9112 67.0142C74.0962 67.0142 74.2812 66.9787 74.4292 67.1206C74.7622 66.9787 74.3922 66.8369 74.6142 66.6596C75.1691 66.8014 74.6512 67.3333 74.8732 67.7234C74.4662 68.0071 73.9482 68.078 73.7262 68.2199L74.5032 68.078C74.4662 68.2908 75.0211 68.4681 74.6142 68.6809C75.3911 68.8936 76.3161 68.6454 77.056 68.4681C76.945 68.3972 76.834 68.3617 76.834 68.2199C77.204 68.078 77.167 68.3617 77.241 68.539C77.537 68.3972 77.5 68.0071 77.685 67.7234C78.277 68.0426 78.351 67.8653 78.8689 68.3262L78.8319 67.9362C79.2019 68.2553 79.2389 67.6525 79.6089 67.9007C79.6459 67.9716 79.4979 68.078 79.3499 68.1844C79.6829 68.0425 79.6459 68.5035 79.9789 68.3617L79.7199 68.7872C79.9789 68.7872 80.3488 68.6454 80.2379 69C80.6818 68.5745 81.4958 68.7518 82.0507 68.4681L82.0137 68.7872C82.3097 68.3972 83.0867 68.8227 83.3457 68.3262L83.3827 68.4681L83.9746 68.0071C84.2336 68.0425 84.1596 68.539 84.1596 68.3972C84.7516 68.3262 85.1956 68.2908 85.5655 68.4681C85.6765 68.0071 86.2685 67.9007 86.7495 67.8652C89.1173 68.1489 91.6332 67.7234 93.8161 67.227C94.1491 67.1915 94.593 66.7305 95 66.4823C94.482 66.3759 94.445 66.5886 93.9641 66.5886C93.5941 66.4823 93.4461 66.0213 93.1501 65.7376L93.2981 66.1277C92.7801 66.4468 92.9651 65.9149 92.5581 66.305V65.7021C92.4102 66.0213 92.0772 65.773 91.9292 65.5957L91.8182 66.0213C91.4852 65.8085 91.3002 65.7021 91.1892 65.3121L91.2262 65.7021C91.1152 65.4539 90.0053 65.7376 90.3753 65.0993C90.3013 65.1702 90.1903 65.383 90.0053 65.3475L89.9683 64.9575C89.6723 65.0638 89.3393 65.1348 89.2653 64.922C89.4133 64.8156 89.4873 64.6738 89.5243 64.4965C88.3034 64.4255 89.2653 65.7376 88.1924 65.773V65.5248L87.9334 65.773L87.6374 65.4539C87.2305 66.305 86.1205 65.383 85.4545 65.844C85.1956 65.9149 84.8626 65.4184 84.3816 65.4539L84.4186 65.844C84.0116 65.4539 82.5687 65.2057 82.1987 64.3191C81.8288 64.6028 82.2357 64.3901 82.2357 64.7092C81.4958 65.0993 81.4588 64.4964 81.0888 64.2837C80.6448 64.461 81.4218 64.4255 81.1998 64.7092C80.5338 64.4255 80.6448 65.1702 79.7939 64.922C79.7199 64.7092 80.0159 64.7801 80.0899 64.6383C79.4979 65.0284 78.388 64.7801 77.5 64.8511C76.5011 64.5674 75.0212 64.461 73.8372 64.1418L73.8002 64.2837C73.3192 63.9291 72.7643 64.2482 72.2093 64.1064L72.6163 64.2128Z" fill="#FF522A"/>
<path d="M72 67.25L71.9655 67L71 68L72 67.25Z" fill="#FF522A"/>
</svg>
