<svg width="178" height="90" viewBox="0 0 178 90" fill="none" xmlns="http://www.w3.org/2000/svg">
<path d="M71.3379 43.8359L73.3066 34.2031H75.5127L72.5596 47H70.4326L67.998 37.6572L65.5107 47H63.375L60.4219 34.2031H62.6279L64.6143 43.8184L67.0576 34.2031H68.9209L71.3379 43.8359Z" fill="white"/>
<path d="M76.251 42.1572C76.251 41.2256 76.4355 40.3877 76.8047 39.6436C77.1738 38.8936 77.6924 38.3193 78.3604 37.9209C79.0283 37.5166 79.7959 37.3145 80.6631 37.3145C81.9463 37.3145 82.9863 37.7275 83.7832 38.5537C84.5859 39.3799 85.0195 40.4756 85.084 41.8408L85.0928 42.3418C85.0928 43.2793 84.9111 44.1172 84.5479 44.8555C84.1904 45.5938 83.6748 46.165 83.001 46.5693C82.333 46.9736 81.5596 47.1758 80.6807 47.1758C79.3389 47.1758 78.2637 46.7305 77.4551 45.8398C76.6523 44.9434 76.251 43.751 76.251 42.2627V42.1572ZM78.3867 42.3418C78.3867 43.3203 78.5889 44.0879 78.9932 44.6445C79.3975 45.1953 79.96 45.4707 80.6807 45.4707C81.4014 45.4707 81.9609 45.1895 82.3594 44.627C82.7637 44.0645 82.9658 43.2412 82.9658 42.1572C82.9658 41.1963 82.7578 40.4346 82.3418 39.8721C81.9316 39.3096 81.3721 39.0283 80.6631 39.0283C79.9658 39.0283 79.4121 39.3066 79.002 39.8633C78.5918 40.4141 78.3867 41.2402 78.3867 42.3418Z" fill="white"/>
<path d="M91.8779 39.4414C91.5967 39.3945 91.3066 39.3711 91.0078 39.3711C90.0293 39.3711 89.3701 39.7461 89.0303 40.4961V47H86.8945V37.4902H88.9336L88.9863 38.5537C89.502 37.7275 90.2168 37.3145 91.1309 37.3145C91.4355 37.3145 91.6875 37.3555 91.8867 37.4375L91.8779 39.4414Z" fill="white"/>
<path d="M96.3164 42.9219L95.3672 43.8975V47H93.2314V33.5H95.3672V41.2871L96.0352 40.4521L98.6631 37.4902H101.229L97.6963 41.4541L101.607 47H99.1377L96.3164 42.9219Z" fill="white"/>
<path d="M107.962 44.416C107.962 44.0352 107.804 43.7451 107.487 43.5459C107.177 43.3467 106.658 43.1709 105.932 43.0186C105.205 42.8662 104.599 42.6729 104.112 42.4385C103.046 41.9229 102.513 41.1758 102.513 40.1973C102.513 39.377 102.858 38.6914 103.55 38.1406C104.241 37.5898 105.12 37.3145 106.187 37.3145C107.323 37.3145 108.24 37.5957 108.938 38.1582C109.641 38.7207 109.992 39.4502 109.992 40.3467H107.856C107.856 39.9365 107.704 39.5967 107.399 39.3271C107.095 39.0518 106.69 38.9141 106.187 38.9141C105.718 38.9141 105.334 39.0225 105.035 39.2393C104.742 39.4561 104.596 39.7461 104.596 40.1094C104.596 40.4375 104.733 40.6924 105.009 40.874C105.284 41.0557 105.841 41.2402 106.679 41.4277C107.517 41.6094 108.173 41.8291 108.647 42.0869C109.128 42.3389 109.482 42.6436 109.711 43.001C109.945 43.3584 110.062 43.792 110.062 44.3018C110.062 45.1572 109.708 45.8516 108.999 46.3848C108.29 46.9121 107.361 47.1758 106.213 47.1758C105.434 47.1758 104.739 47.0352 104.13 46.7539C103.521 46.4727 103.046 46.0859 102.706 45.5938C102.366 45.1016 102.196 44.5713 102.196 44.0029H104.271C104.3 44.5068 104.49 44.8965 104.842 45.1719C105.193 45.4414 105.659 45.5762 106.239 45.5762C106.802 45.5762 107.229 45.4707 107.522 45.2598C107.815 45.043 107.962 44.7617 107.962 44.416Z" fill="white"/>
<path d="M120.258 42.3418C120.258 43.8125 119.924 44.9873 119.256 45.8662C118.588 46.7393 117.691 47.1758 116.566 47.1758C115.523 47.1758 114.688 46.833 114.062 46.1475V50.6562H111.926V37.4902H113.895L113.982 38.457C114.609 37.6953 115.462 37.3145 116.54 37.3145C117.7 37.3145 118.608 37.748 119.265 38.6152C119.927 39.4766 120.258 40.6748 120.258 42.21V42.3418ZM118.131 42.1572C118.131 41.208 117.94 40.4551 117.56 39.8984C117.185 39.3418 116.646 39.0635 115.942 39.0635C115.069 39.0635 114.442 39.4238 114.062 40.1445V44.3633C114.448 45.1016 115.081 45.4707 115.96 45.4707C116.64 45.4707 117.17 45.1982 117.551 44.6533C117.938 44.1025 118.131 43.2705 118.131 42.1572Z" fill="white"/>
<path d="M127.755 47C127.661 46.8184 127.579 46.5225 127.509 46.1123C126.829 46.8213 125.997 47.1758 125.013 47.1758C124.058 47.1758 123.278 46.9033 122.675 46.3584C122.071 45.8135 121.77 45.1396 121.77 44.3369C121.77 43.3232 122.145 42.5469 122.895 42.0078C123.65 41.4629 124.729 41.1904 126.129 41.1904H127.438V40.5664C127.438 40.0742 127.301 39.6816 127.025 39.3887C126.75 39.0898 126.331 38.9404 125.769 38.9404C125.282 38.9404 124.884 39.0635 124.573 39.3096C124.263 39.5498 124.107 39.8574 124.107 40.2324H121.972C121.972 39.7109 122.145 39.2246 122.49 38.7734C122.836 38.3164 123.305 37.959 123.896 37.7012C124.494 37.4434 125.159 37.3145 125.892 37.3145C127.005 37.3145 127.893 37.5957 128.555 38.1582C129.217 38.7148 129.557 39.5 129.574 40.5137V44.8027C129.574 45.6582 129.694 46.3408 129.935 46.8506V47H127.755ZM125.408 45.4619C125.83 45.4619 126.226 45.3594 126.595 45.1543C126.97 44.9492 127.251 44.6738 127.438 44.3281V42.5352H126.287C125.496 42.5352 124.901 42.6729 124.503 42.9482C124.104 43.2236 123.905 43.6133 123.905 44.1172C123.905 44.5273 124.04 44.8555 124.31 45.1016C124.585 45.3418 124.951 45.4619 125.408 45.4619Z" fill="white"/>
<path d="M135.718 45.4707C136.251 45.4707 136.693 45.3154 137.045 45.0049C137.396 44.6943 137.584 44.3105 137.607 43.8535H139.62C139.597 44.4453 139.412 44.999 139.066 45.5146C138.721 46.0244 138.252 46.4287 137.66 46.7275C137.068 47.0264 136.43 47.1758 135.744 47.1758C134.414 47.1758 133.359 46.7451 132.58 45.8838C131.801 45.0225 131.411 43.833 131.411 42.3154V42.0957C131.411 40.6484 131.798 39.4912 132.571 38.624C133.345 37.751 134.399 37.3145 135.735 37.3145C136.866 37.3145 137.786 37.6455 138.495 38.3076C139.21 38.9639 139.585 39.8281 139.62 40.9004H137.607C137.584 40.3555 137.396 39.9072 137.045 39.5557C136.699 39.2041 136.257 39.0283 135.718 39.0283C135.026 39.0283 134.493 39.2803 134.118 39.7842C133.743 40.2822 133.553 41.041 133.547 42.0605V42.4033C133.547 43.4346 133.731 44.2051 134.101 44.7148C134.476 45.2188 135.015 45.4707 135.718 45.4707Z" fill="white"/>
<path d="M145.421 47.1758C144.067 47.1758 142.969 46.751 142.125 45.9014C141.287 45.0459 140.868 43.9092 140.868 42.4912V42.2275C140.868 41.2783 141.05 40.4316 141.413 39.6875C141.782 38.9375 142.298 38.3545 142.96 37.9385C143.622 37.5225 144.36 37.3145 145.175 37.3145C146.47 37.3145 147.469 37.7275 148.172 38.5537C148.881 39.3799 149.235 40.5488 149.235 42.0605V42.9219H143.021C143.086 43.707 143.347 44.3281 143.804 44.7852C144.267 45.2422 144.847 45.4707 145.544 45.4707C146.522 45.4707 147.319 45.0752 147.935 44.2842L149.086 45.3828C148.705 45.9512 148.195 46.3936 147.557 46.71C146.924 47.0205 146.212 47.1758 145.421 47.1758ZM145.166 39.0283C144.58 39.0283 144.105 39.2334 143.742 39.6436C143.385 40.0537 143.156 40.625 143.057 41.3574H147.126V41.1992C147.079 40.4844 146.889 39.9453 146.555 39.582C146.221 39.2129 145.758 39.0283 145.166 39.0283Z" fill="white"/>
<path d="M176.706 77.6846C178.067 78.4006 176.706 76.897 175.489 75.6798L173.699 75.5366L176.706 77.6846Z" fill="#FF522A"/>
<path d="M169.976 72.7442L167.971 72.0282C167.327 71.8134 166.611 71.5986 165.895 71.3838C166.825 71.7418 167.828 72.0998 168.687 72.5294C171.193 74.8205 167.756 73.1738 166.611 72.6726C171.336 75.3933 168.973 72.7442 169.976 72.7442Z" fill="#FF522A"/>
<path d="M162.529 69.1645C160.166 67.8757 160.524 68.8065 161.455 69.5225C161.742 69.3077 163.388 69.8805 162.529 69.1645Z" fill="#FF522A"/>
<path d="M10.8828 69.7371C11.0976 69.6655 11.4556 69.4507 11.3124 69.7371C11.8136 69.1643 11.8136 68.8779 10.8828 69.7371Z" fill="#FF522A"/>
<path d="M11.3138 69.8091C11.2422 69.9523 11.1705 70.0955 11.0273 70.2387C11.0989 70.1671 11.1706 70.0239 11.2422 69.9523L11.3138 69.8091Z" fill="#FF522A"/>
<path d="M59.7136 76.969C60.7876 76.0382 61.7184 75.3938 62.6492 74.821C63.58 74.3198 64.5107 73.747 65.6563 73.031L67.3747 73.1026C68.5919 72.315 68.8067 72.0286 68.9499 71.7422C69.0931 71.4558 69.0931 71.241 69.9523 70.5967C71.241 70.2387 73.1742 69.4511 74.9642 68.7351C76.7542 68.0191 78.3294 67.3031 78.9021 67.1599C79.8329 67.2315 78.043 67.9475 77.685 68.3771C80.8354 67.0167 80.3342 66.3007 84.4869 65.0835L84.6301 65.2983C89.4272 63.3652 95.1551 61.9332 101.098 61.1456C107.041 60.2864 113.27 60.0716 119.069 60.0716C118.282 60 118.496 59.8568 118.21 59.642C124.368 59.7852 130.955 60.6444 137.112 61.8616C143.341 63.0788 149.141 64.6539 154.081 65.7279C152.506 65.1551 150.644 64.2959 148.711 63.5084C146.706 62.7208 144.558 61.8616 142.411 61.2172C140.263 60.4296 137.971 59.9284 135.895 59.4988C134.821 59.284 133.819 59.2124 132.816 59.0692C131.814 58.9976 130.883 58.926 130.024 58.9976C128.807 58.568 127.232 58.2816 125.8 58.21C124.368 58.0668 123.15 57.9952 122.649 57.494C121.432 57.3508 120.286 57.2792 119.212 57.2076C118.711 57.2076 118.138 57.136 117.637 57.136C117.136 57.136 116.635 57.136 116.134 57.136C115.203 57.136 114.272 57.2076 113.413 57.2076C112.554 57.2792 111.695 57.3508 110.835 57.494C107.399 57.852 104.105 58.4248 99.4511 58.9976C98.0907 59.0692 98.6635 58.568 98.2339 58.21C99.4511 57.9952 100.668 57.7088 101.957 57.5656C103.174 57.4224 104.463 57.136 105.68 57.0644C104.177 56.9928 102.601 57.136 101.098 57.136C102.1 56.8496 103.747 56.6349 105.322 56.4917C106.826 56.3485 108.186 56.1337 108.473 55.7757C105.179 56.3485 100.883 56.778 96.7303 57.4224C92.5776 58.1384 88.5681 59.0692 85.9189 60.2864C86.5633 60.1432 87.2792 60 87.9952 59.8568C88.7112 59.7136 89.4988 59.4988 90.2148 59.3556C91.7184 58.9976 93.3652 58.6396 94.9404 58.4248C96.3723 58.4248 98.5203 58.3532 98.4487 58.7112C94.0096 59.8568 90 60.7876 85.9905 61.9332C81.9809 63.0072 77.9714 64.2243 73.747 66.0859C72.6731 66.5871 71.4559 67.0883 70.3819 67.4463C69.3079 67.8759 68.5203 68.1623 68.2339 68.0191C69.5943 67.2315 68.3771 67.4463 69.4511 66.7303C68.0191 67.5895 68.0907 67.9475 67.9475 68.3055C67.8043 68.6635 67.5179 69.0215 65.3699 70.0239L65.2983 68.5203C64.7971 69.5943 63.4368 70.1671 61.9332 70.883C60.4296 71.5274 58.7828 72.315 57.5656 73.5322C56.2769 73.747 57.9952 72.2434 60.2148 70.883C57.5656 72.2434 57.7088 73.031 55.7757 74.3198C56.2053 73.6038 56.5633 72.8162 56.9929 72.1002C56.2053 73.2458 55.2745 73.8186 54.2721 74.1766C53.2697 74.6062 52.4105 74.7494 51.7661 74.9642C51.7661 75.179 52.0525 75.2506 52.1241 75.537C52.1241 75.8234 51.8377 76.3246 50.4057 77.3986C49.1885 78.1862 49.8329 77.327 49.5465 77.327C49.4749 77.4702 49.4034 77.6134 49.2602 77.8998C49.1886 78.043 49.1169 78.1862 48.9737 78.3294C48.9021 78.4726 48.759 78.759 48.6158 78.6158C48.1862 78.3294 47.685 77.7566 46.8974 76.8974C46.8258 76.5394 47.1838 76.6826 47.4702 76.8258C47.8282 76.969 48.1146 77.1838 48.2578 77.0406C47.8282 76.3962 47.327 75.895 46.8974 75.3938C46.4678 74.8926 46.1098 74.3914 45.7518 73.8902C43.5322 72.1718 45.537 74.3914 43.9618 73.5322C42.4582 72.0286 42.5299 71.7422 42.9595 71.599C43.389 71.4558 44.1766 71.4558 43.747 70.5967C44.463 70.9547 45.1074 71.4559 45.7518 71.8855L46.6826 72.6014C46.8974 72.7446 47.1122 72.8878 47.2554 73.1026C48.043 73.747 48.6158 74.3198 48.9737 74.6062C49.0453 74.7494 49.1169 74.5346 49.1885 74.5346C49.2601 74.463 49.3317 74.3914 49.3317 74.3198L49.117 74.463L49.0454 74.5346L48.9737 74.463C48.6158 74.105 48.2578 73.6754 47.8998 73.3174C47.685 73.1026 47.4702 72.9594 47.2554 72.7446C47.1838 72.673 47.0406 72.5298 46.8974 72.4582L46.7542 72.315L46.4678 72.1002C46.7542 72.1002 46.1098 71.1694 45.6086 70.5251C45.179 69.8807 45.0358 69.5227 46.5394 70.5251C44.105 68.0191 40.8115 65.8711 37.2315 64.5107C33.6516 63.1504 29.5704 62.7208 26.2053 63.1504C27.136 63.222 28.4248 63.3652 28.21 63.6516C27.3508 63.7232 26.7065 63.7231 26.2769 63.7231C25.8473 63.7231 25.5609 63.6516 25.3461 63.6516C24.9165 63.58 24.8449 63.3652 24.4153 63.222C21.9093 63.938 22.4105 64.6539 21.0501 65.5847C18.5442 65.9427 17.2554 66.5155 15.9666 67.0167C15.6802 67.1599 15.3938 67.3031 15.0358 67.3747C14.7494 67.5179 14.3198 67.6611 14.1766 67.7327C13.747 67.8759 13.2458 68.0191 12.7446 68.0907C12.8162 68.3771 12.8878 68.5919 12.9594 68.8783C12.1718 69.0931 11.8138 69.5227 11.3842 70.0955C10.9547 70.6683 10.4535 71.3127 9.88068 71.8139C9.80908 71.8854 9.66588 72.0286 9.52269 72.1002C9.52269 71.957 9.80907 71.5991 10.0955 71.1695C10.3103 70.8831 10.5251 70.5251 10.7399 70.2387C10.5251 70.5251 10.3103 70.7398 10.1671 70.883C9.88068 71.241 9.73747 71.0979 9.66587 71.1695C9.59427 71.1695 9.45108 71.2411 8.94988 72.1002L10.3103 69.4511C10.1671 69.6659 9.95228 69.8807 9.80908 70.1671L9.66587 70.3819L9.59427 70.4535V70.5251C9.59427 70.3819 9.59429 70.3103 9.52269 70.1671C9.52269 69.7375 9.59427 69.3079 10.0239 68.7351C9.52267 68.9499 9.23627 67.8759 9.23627 66.7303C9.16467 66.1575 9.23627 65.5131 9.23627 64.8687C9.23627 64.5107 9.23627 64.2243 9.23627 63.8663C9.23627 63.2936 9.30788 62.6492 9.30788 62.148L9.95226 62.506C9.73747 61.3604 10.0955 59.2124 10.5251 57.2076C10.7399 56.2053 10.9547 55.2029 11.1695 54.3437C11.3127 53.4845 11.3843 52.6969 11.3127 52.1241L11.6707 51.8377C11.7423 51.0501 11.8138 50.2625 11.8854 49.4749C11.957 48.6873 12.0286 47.8998 12.1718 47.1122C12.9594 45.179 13.6754 46.1814 13.4606 45.895C14.8926 41.5274 16.3246 38.1623 17.8998 35.6563C17.3986 34.5823 19.4034 30.0716 21.2649 26.7064C23.3413 23.4129 25.6325 20.1193 27.9952 17.0406L28.926 15.895C29.1408 15.6086 29.3556 15.3222 29.642 15.0358C30.0716 14.463 30.5728 13.9618 31.074 13.389C31.5752 12.8162 32.0764 12.315 32.5776 11.8138C32.864 11.5274 33.1504 11.3126 33.3652 11.0262L33.58 10.8115C33.58 10.883 33.6516 10.9546 33.6516 11.0262L33.7948 11.5274C34.296 12.8878 34.8688 14.2482 35.6563 15.537L36.3723 16.611L37.3031 17.8998C37.9475 18.759 38.6635 19.5465 39.3795 20.3341C39.7375 20.6921 40.1671 21.0501 40.5251 21.4081C40.8831 21.7661 41.3127 22.1241 41.7423 22.4105C42.1719 22.7685 42.4583 22.9833 42.8162 23.1981C43.1742 23.4129 43.5322 23.6277 43.8902 23.8425C45.3222 24.7017 47.0406 25.4177 48.8305 25.9905C49.5465 26.2053 50.2625 26.3484 50.9785 26.4916L51.2649 26.5632H51.3365L51.2649 26.6348L50.9069 26.8496L50.1194 27.2792C49.0454 27.9236 47.9714 28.4964 46.8974 29.1408C45.7518 29.7136 44.7494 30.5012 43.5322 31.432C42.3151 32.3628 40.8114 33.5084 39.1647 34.5107C41.3126 33.58 42.4583 32.9356 43.5322 32.3628C44.6062 31.7184 45.6086 31.1456 47.6134 30.2148C50.9785 28.8544 53.7709 28.4964 58.1384 27.0644L54.9881 27.7088C55.6325 27.2792 56.2053 26.9212 56.6349 26.7064C56.7065 26.7064 56.7065 26.6348 56.6349 26.6348L56.5633 26.5632L56.4916 26.4916L56.4201 26.3485C56.4201 26.2769 56.4201 26.2053 56.4201 26.0621C56.4917 25.9189 56.4916 25.7757 56.3484 25.6325C55.6325 25.4893 54.6301 25.2745 53.1981 24.9881L56.8496 24.7017C55.8473 24.5585 54.8449 24.3437 53.8425 24.1289C52.8401 23.8425 52.0525 23.5561 51.1217 23.2697L50.4774 23.0549L50.1909 22.9117L49.9045 22.7685C49.5465 22.6253 49.1886 22.4105 48.9022 22.2673C48.2578 21.9093 47.6134 21.6229 47.3986 21.3365C46.6826 21.1933 45.9666 21.1217 45.3222 21.0501C44.9642 20.7637 44.6778 20.4773 44.3914 20.1909C44.2482 19.9761 44.0334 19.7613 43.8902 19.6181C43.6038 19.2602 43.389 18.8305 43.1742 18.5441C42.7446 17.8998 42.6014 17.327 42.673 16.8258L42.2435 17.4702C42.1719 17.2554 41.8138 16.7542 41.3126 16.0382C41.0978 15.7518 40.8114 15.3222 40.5966 14.9642L40.2387 14.3914C40.1671 14.3198 40.0955 14.1766 40.0955 14.105C40.0239 13.9618 39.9523 13.8902 39.8807 13.747C39.7375 13.4606 39.5227 13.1742 39.3795 12.8162C39.2363 12.5298 39.0931 12.2434 38.9499 11.8854C38.7351 11.3126 38.5919 10.7399 38.5203 10.3819C38.3771 9.59427 38.5203 9.37947 39.2363 10.3103C38.9499 9.73747 38.5919 9.37947 38.2339 8.66348C37.8759 7.94749 37.5179 7.0883 37.0883 5.65632L37.3747 4.00954C36.9451 2.86396 36.5155 1.64677 36.1575 0.644387C35.9427 0.787585 35.7995 0.859184 35.5847 1.00238L35.2983 1.14558C35.2267 1.21718 35.1551 1.21718 35.0119 1.36038C34.5823 1.78997 34.1528 2.14797 33.7232 2.50597C32.9356 3.15036 32.3628 3.57995 32.0764 3.57995C33.58 2.00477 34.2244 1.00239 34.8687 0C33.222 1.43198 32.0048 2.57756 31.074 3.50835C30.1432 4.43914 29.4988 5.15513 28.9976 5.72792C28.0668 6.94511 27.9236 7.5895 27.852 8.09069C27.7804 8.66349 27.7088 9.16467 27.2076 10.0955C26.9212 10.5967 26.5633 11.1694 25.9905 11.957C25.7041 12.315 25.3461 12.8162 25.0597 13.2458C24.7733 13.6038 24.4869 14.0334 24.1289 14.463L23.7709 14.105L22.8401 16.253L20.9069 17.8282C20.6921 19.6897 18.9021 22.1957 17.1122 25.1313C15.2506 27.9952 13.3174 31.1456 12.6014 33.7948C11.8138 35.7995 9.73748 37.8759 8.3771 41.7422H9.16469C8.2339 43.1026 6.58712 46.611 5.08354 50.1909C3.57996 53.7709 2.21957 57.494 1.07399 58.926C1.14558 62.2196 1.28879 58.6396 1.86158 58.7828C1.78998 60.358 1.71839 61.5036 1.57519 62.506C1.50359 62.7924 1.50358 63.0788 1.43198 63.3651C1.36038 63.7231 1.2888 64.0812 1.2888 64.3676C1.1456 65.0119 1.07398 65.5847 1.00238 66.1575C0.787585 67.3031 0.644396 68.2339 0.429599 69.3079C0.358 69.8807 0.214806 70.3819 0.143207 71.0263C0.0716078 71.6706 0 72.2434 0 72.9594C0.357995 75.9666 0.357995 74.6778 0.357995 73.1026C0.357995 72.315 0.358004 71.4558 0.501202 70.883C0.572801 70.3819 0.715999 70.2387 0.859197 71.0263C0.859197 72.1718 0.859197 73.1742 0.859197 74.0334C0.859197 74.463 0.859202 74.821 0.930801 75.2506C1.0024 75.6086 1.00239 75.895 1.07399 76.1814C1.21718 77.327 1.43199 78.1146 1.64679 78.9021C1.86159 79.6897 2.07638 80.5489 2.29118 81.9093C2.36278 82.5537 2.50598 83.4129 2.64917 84.4153C2.64917 84.7017 2.72078 84.9165 2.72078 85.2029C2.72078 85.3461 2.72076 85.4893 2.79236 85.6325C2.79236 85.7757 2.79236 85.9904 2.86396 85.9904C2.93556 86.1337 3.00717 86.2769 3.07877 86.4917C2.93557 87.0644 2.79237 87.0644 2.64917 86.9928L2.50597 86.8496C2.50597 86.8496 2.43436 86.7065 2.43436 86.5633C2.43436 86.4201 2.36278 86.3485 2.36278 86.2053C2.29118 85.7757 2.21957 85.3461 2.07637 85.2029C2.21957 85.704 2.29117 86.2769 2.43436 86.8496C2.57756 86.9212 2.64916 87.0644 2.79236 87.136C2.86396 87.136 2.93557 87.3508 3.00717 87.494C3.07877 87.6372 3.15036 87.852 3.22196 87.9952C3.29356 88.0668 3.29357 88.1384 3.36516 88.2816C3.43676 88.4964 3.43675 88.6396 3.50835 88.8544C3.57995 89.2124 3.72316 89.5704 3.79476 90C4.94035 88.3532 6.15753 86.5632 7.37472 84.8449C7.94751 84.0573 8.5203 83.2697 9.09309 82.4105C9.37949 81.9809 9.66587 81.6229 9.95226 81.1933C10.2387 80.7637 10.5251 80.3341 10.7399 80.0477C11.2411 79.4033 11.7422 78.7589 12.2434 78.043L12.6014 77.5418C12.7446 77.3986 12.8878 77.1838 12.9594 77.1122L13.6754 76.4678C14.1766 76.0382 14.6062 75.6086 15.1074 75.179C15.6086 74.821 16.0382 74.5346 16.5394 74.1766L17.2554 73.6754L17.3986 73.5322L17.4702 73.4606L17.685 73.389L18.4726 72.9594C18.9738 72.7446 19.4749 72.5298 19.9761 72.315C20.4773 72.1002 20.9785 71.8854 21.4797 71.7422C21.6945 71.6706 21.9809 71.5991 22.1957 71.5275C22.4105 71.4559 22.6969 71.3842 22.9117 71.3126C23.3413 71.241 23.7709 71.1695 24.2005 71.1695C24.6301 71.0979 25.0597 71.0979 25.5609 71.0979C26.4917 71.0263 27.4224 71.0979 28.2816 71.1695C30.0716 71.3843 32.0048 71.8854 33.9379 72.8162C35.7995 73.6754 37.6611 74.8926 39.2363 76.3246C39.6659 76.6826 40.0239 77.0406 40.3819 77.3986C40.5967 77.5418 40.7399 77.7566 40.8831 77.9714L41.1695 78.2578C41.2411 78.3294 41.4559 78.5442 41.5275 78.6158L41.8138 78.9738C42.6014 79.9761 43.389 80.9785 44.105 81.9809C44.821 83.0549 45.6086 84.1289 46.3246 85.1313L46.611 85.0597C46.8974 85.5609 47.1838 85.9905 47.5418 86.4917C48.9737 85.5609 50.4773 84.4153 51.9809 83.1981C53.3413 82.1241 54.7733 81.0501 56.1337 79.9045L56.6349 79.4749L56.9213 79.2601L57.0644 79.1885L57.1361 79.1169L57.7088 78.6874C58.0668 78.401 58.4964 78.1146 58.8544 77.8998C59.642 77.327 60.5012 76.8974 61.432 76.3962L59.7136 76.969Z" fill="#FF522A"/>
<path d="M110.479 54.8446L109.691 54.2002C108.187 54.3434 106.756 54.6298 105.252 54.8446C106.183 55.0594 106.827 55.0594 107.615 54.9878C108.402 54.8446 109.261 54.773 110.479 54.8446Z" fill="#FF522A"/>
<path d="M109.618 56.8497L111.909 56.4917C110.692 56.5633 109.475 56.5633 108.258 56.6349C108.616 56.7065 109.117 56.7781 109.618 56.8497Z" fill="#FF522A"/>
<path d="M56.7773 71.3127L57.3501 71.098L59.0685 69.8808C59.6413 69.4512 60.2141 69.0932 60.8585 68.7352C62.0041 67.9476 63.2213 67.2316 64.4385 66.5156L62.5053 67.6612C61.8609 68.0192 61.2165 68.4488 60.5721 68.8784C59.2833 69.5944 58.0661 70.4536 56.7773 71.3127Z" fill="#FF522A"/>
<path d="M11.3841 68.52C11.8137 67.6608 12.1717 67.5176 12.5297 66.9448C12.1717 67.3744 11.7421 67.8756 11.3125 68.4484L11.3841 68.52Z" fill="#FF522A"/>
<path d="M16.6823 47.8993C16.0379 46.1809 17.6131 45.3217 15.9663 46.6821C15.4651 48.7585 16.5391 47.1117 16.6823 47.8993Z" fill="#FF522A"/>
<path d="M18.1157 39.5225C17.5429 40.668 17.4713 41.384 17.3281 42.1C18.4737 40.7396 17.9725 40.5248 18.1157 39.5225Z" fill="#FF522A"/>
<path d="M102.387 78.8306C102.029 79.0454 102.53 79.4034 102.888 79.7614L103.246 78.8306H102.387Z" fill="#FF522A"/>
<path d="M104.391 79.1168L105.393 78.1144L104.677 78.6156C103.89 78.1144 104.749 77.5416 105.107 77.3984C103.818 77.6132 104.606 78.544 104.391 79.1168Z" fill="#FF522A"/>
<path d="M106.396 78.3291C107.041 78.4007 106.826 77.7563 106.611 77.5415C106.539 77.8279 106.11 78.1143 106.396 78.3291Z" fill="#FF522A"/>
<path d="M146.275 81.2645C146.061 81.1213 145.917 81.0498 145.917 80.835C145.703 81.0498 145.703 81.1929 146.275 81.2645Z" fill="#FF522A"/>
<path d="M145.92 80.8353L146.063 80.7637H145.92V80.8353Z" fill="#FF522A"/>
<path d="M132.96 72.8876C132.244 73.3888 131.815 73.1024 131.17 73.2456L130.812 72.458C130.096 72.7444 130.454 73.174 129.953 73.532C129.309 73.0308 127.877 73.4604 127.519 73.4604C127.304 73.1024 127.805 72.9592 127.877 72.7444C127.017 73.0308 127.089 73.8184 126.015 73.8184V73.6036C123.438 74.7492 120.144 74.4628 117.28 75.1788C117.495 75.2504 117.423 75.3936 117.495 75.5368C114.488 75.8232 110.979 75.8948 108.545 77.7563C110.192 77.5415 112.984 78.8303 114.631 77.3983C115.275 77.9711 116.206 77.112 116.421 77.9711C118.784 78.3291 119.786 76.8972 122.077 76.8256C122.435 76.9688 122.22 77.3983 122.364 77.7563L120.574 78.1143L121.648 78.4723C121.146 78.8303 120.001 78.5439 119.858 79.3315C121.433 78.4723 124.01 79.1167 125.371 78.1143C124.726 77.8995 123.939 78.1143 123.151 78.1143C122.793 77.8279 122.292 77.6847 122.292 77.2552C124.512 76.1096 126.301 76.6823 128.593 76.3244C129.165 76.2528 129.953 76.3244 130.025 76.6823C129.667 76.8255 129.953 77.1119 129.595 77.3267C130.383 76.9687 129.667 75.9664 130.812 76.1096L130.669 77.4699C131.099 76.038 132.101 77.6847 132.889 76.8972C133.175 77.4699 132.674 77.7563 132.029 77.7563C132.745 77.9711 132.817 77.1836 133.39 77.2552L132.817 78.4007C133.461 77.3267 133.891 78.6155 134.249 78.9735C134.321 78.6871 133.963 77.8279 134.75 77.8995C135.108 78.0427 134.893 78.3291 134.965 78.4723C135.037 78.1859 135.251 77.6847 135.824 77.6131C135.896 77.9711 135.466 78.1859 135.466 78.5439C135.824 78.5439 136.182 78.4723 136.469 78.7587C137.113 78.4723 136.397 78.1859 136.827 77.8279C137.901 78.1143 136.898 79.1883 137.328 79.9759C136.54 80.5487 135.538 80.6919 135.108 80.9783L136.612 80.6919C136.54 81.1215 137.614 81.4795 136.827 81.9091C138.33 82.3387 140.12 81.8375 141.552 81.4795C141.337 81.3363 141.122 81.2647 141.122 80.9783C141.838 80.6919 141.767 81.2647 141.91 81.6227C142.483 81.3363 142.411 80.5487 142.769 79.9759C143.915 80.6203 144.058 80.2623 145.06 81.1931L144.989 80.4055C145.705 81.0499 145.776 79.8327 146.492 80.3339C146.564 80.4771 146.278 80.6919 145.991 80.9067C146.636 80.6203 146.564 81.5511 147.208 81.2647L146.707 82.1239C147.208 82.1239 147.924 81.8375 147.71 82.5535C148.569 81.6943 150.144 82.0523 151.218 81.4795L151.146 82.1239C151.719 81.3363 153.223 82.1955 153.724 81.1931L153.796 81.4795L154.941 80.5487C155.442 80.6203 155.299 81.6227 155.299 81.3363C156.445 81.1931 157.304 81.1215 158.02 81.4795C158.235 80.5487 159.38 80.3339 160.311 80.2623C164.893 80.8351 169.762 79.9759 173.986 78.9735C174.631 78.9019 175.49 77.9711 176.278 77.4699C175.275 77.2551 175.204 77.6847 174.273 77.6847C173.557 77.4699 173.27 76.5391 172.698 75.9664L172.984 76.754C171.982 77.3983 172.34 76.3244 171.552 77.1119V75.8948C171.266 76.5391 170.621 76.038 170.335 75.68L170.12 76.5392C169.476 76.1096 169.118 75.8948 168.903 75.1072L168.975 75.8948C168.76 75.3936 166.612 75.9664 167.328 74.6776C167.185 74.8208 166.97 75.2504 166.612 75.1788L166.54 74.3912C165.967 74.606 165.323 74.7492 165.18 74.3196C165.466 74.1048 165.609 73.8184 165.681 73.4604C163.318 73.3172 165.18 75.9664 163.103 76.038V75.5368L162.602 76.038L162.029 75.3936C161.242 77.112 159.094 75.2504 157.805 76.1812C157.304 76.3244 156.66 75.322 155.729 75.3936L155.8 76.1812C155.013 75.3936 152.22 74.8924 151.504 73.1024C150.788 73.6752 151.576 73.2456 151.576 73.89C150.144 74.6776 150.072 73.4604 149.356 73.0308C148.497 73.3888 150.001 73.3172 149.571 73.89C148.282 73.3172 148.497 74.8208 146.85 74.3196C146.707 73.89 147.28 74.0332 147.423 73.7468C146.278 74.5344 144.13 74.0332 142.411 74.1764C140.478 73.6036 137.614 73.3888 135.323 72.7444L135.251 73.0308C134.321 72.3148 133.247 72.9592 132.173 72.6728L132.96 72.8876Z" fill="#FF522A"/>
<path d="M119.355 80.2622L119.57 80.9066L120.644 80.477C120.143 79.9042 119.928 80.3338 119.355 80.2622Z" fill="#FF522A"/>
<path d="M119.57 78.1855L119.068 78.5435L119.928 78.4719L119.57 78.1855Z" fill="#FF522A"/>
<path d="M132.817 79.2599L132.745 79.1167L130.74 79.6895L132.817 79.2599Z" fill="#FF522A"/>
<path d="M146.206 81.9092C145.991 82.2672 145.633 82.124 145.418 82.3388L146.349 81.9808L146.206 81.9092Z" fill="#FF522A"/>
<path d="M155.225 84.6296C155.583 83.4125 155.941 84.6296 155.44 83.5557C154.867 83.7705 155.369 84.2001 155.225 84.6296Z" fill="#FF522A"/>
<path d="M157.303 82.9112C157.016 82.8396 156.801 83.0544 156.658 83.1976C157.016 83.7704 157.088 83.126 157.303 82.9112Z" fill="#FF522A"/>
</svg>
